<svg width="237" height="120" viewBox="0 0 237 120" fill="none" xmlns="http://www.w3.org/2000/svg">
<rect width="55" height="25" transform="translate(72 95)" fill="#8CBEEB"/>
<rect width="103" height="5" transform="translate(127 101)" fill="#8CBEEB"/>
<rect width="72" height="5" transform="translate(0 101)" fill="#8CBEEB"/>
<rect width="5" height="101" transform="translate(14)" fill="#8CBEEB"/>
<rect width="5" height="3" transform="translate(65 98)" fill="#EE7E6F"/>
<rect width="6" height="3" transform="translate(106 92)" fill="#EE7E6F"/>
<rect width="5" height="3" transform="translate(160 98)" fill="#EE7E6F"/>
<rect width="3" height="5" transform="translate(188 72)" fill="#EE7E6F"/>
<rect width="5" height="3" transform="translate(183 66)" fill="#EE7E6F"/>
<rect width="5" height="3" transform="translate(182 106)" fill="#EE7E6F"/>
<rect width="3" height="5" transform="translate(188 84)" fill="#EE7E6F"/>
<rect width="3" height="5" transform="translate(180 69)" fill="#EE7E6F"/>
<rect width="5" height="3" transform="translate(160 106)" fill="#EE7E6F"/>
<rect width="5" height="3" transform="translate(174 106)" fill="#EE7E6F"/>
<rect width="5" height="3" transform="translate(137 106)" fill="#EE7E6F"/>
<rect width="5" height="3" transform="translate(129 98)" fill="#EE7E6F"/>
<rect width="5" height="3" transform="translate(190 106)" fill="#EE7E6F"/>
<rect width="5" height="3" transform="translate(153 106)" fill="#EE7E6F"/>
<rect width="5" height="3" transform="translate(153 98)" fill="#EE7E6F"/>
<rect width="5" height="3" transform="translate(137 98)" fill="#EE7E6F"/>
<rect width="6" height="3" transform="translate(87 92)" fill="#EE7E6F"/>
<rect width="5" height="3" transform="translate(58 98)" fill="#EE7E6F"/>
<rect width="5" height="3" transform="translate(43 98)" fill="#EE7E6F"/>
<rect width="5" height="3" transform="translate(35 98)" fill="#EE7E6F"/>
<rect width="5" height="3" transform="translate(27 98)" fill="#EE7E6F"/>
<rect width="5" height="3" transform="translate(33 106)" fill="#EE7E6F"/>
<rect width="5" height="3" transform="translate(50 106)" fill="#EE7E6F"/>
<rect width="5" height="3" transform="translate(58 106)" fill="#EE7E6F"/>
<rect width="5" height="3" transform="translate(65 106)" fill="#EE7E6F"/>
<rect width="5" height="3" transform="translate(27 106)" fill="#EE7E6F"/>
<rect width="15" height="10" transform="translate(72 85)" fill="#91DA85"/>
<rect width="6" height="10" transform="translate(19 83)" fill="#91DA85"/>
<rect width="6" height="8" transform="translate(19 93)" fill="#8CBEEB"/>
<rect width="10" height="15" transform="translate(173 74)" fill="#91DA85"/>
<rect width="10" height="15" transform="translate(227 86)" fill="#91DA85"/>
<rect width="15" height="12" transform="translate(173 89)" fill="#8CBEEB"/>
<rect width="15" height="10" transform="translate(112 85)" fill="#91DA85"/>
<rect width="5" height="20" transform="translate(183 69)" fill="#8CBEEB"/>
</svg>
