<svg width="929" height="492" viewBox="0 0 929 492" fill="none" xmlns="http://www.w3.org/2000/svg">
<g clip-path="url(#clip0_75_325)">
<rect width="223" height="102" transform="translate(284 388)" fill="white"/>
<mask id="path-1-inside-1_75_325" fill="white">
<path d="M283 444H329V490H283V444Z"/>
</mask>
<path d="M283 444H329V490H283V444Z" fill="#66CCFF"/>
<path d="M283 444V443H282V444H283ZM329 444H330V443H329V444ZM329 490V491H330V490H329ZM283 490H282V491H283V490ZM283 445H329V443H283V445ZM328 444V490H330V444H328ZM329 489H283V491H329V489ZM284 490V444H282V490H284Z" fill="black" mask="url(#path-1-inside-1_75_325)"/>
<mask id="path-3-inside-2_75_325" fill="white">
<path d="M328 444H374V490H328V444Z"/>
</mask>
<path d="M328 444H374V490H328V444Z" fill="#66CCFF"/>
<path d="M328 444V443H327V444H328ZM374 444H375V443H374V444ZM374 490V491H375V490H374ZM328 490H327V491H328V490ZM328 445H374V443H328V445ZM373 444V490H375V444H373ZM374 489H328V491H374V489ZM329 490V444H327V490H329Z" fill="black" mask="url(#path-3-inside-2_75_325)"/>
<mask id="path-5-inside-3_75_325" fill="white">
<path d="M373 444H419V490H373V444Z"/>
</mask>
<path d="M373 444H419V490H373V444Z" fill="#66CCFF"/>
<path d="M373 444V443H372V444H373ZM419 444H420V443H419V444ZM419 490V491H420V490H419ZM373 490H372V491H373V490ZM373 445H419V443H373V445ZM418 444V490H420V444H418ZM419 489H373V491H419V489ZM374 490V444H372V490H374Z" fill="black" mask="url(#path-5-inside-3_75_325)"/>
<mask id="path-7-inside-4_75_325" fill="white">
<path d="M418 444H464V490H418V444Z"/>
</mask>
<path d="M418 444H464V490H418V444Z" fill="#66CCFF"/>
<path d="M418 444V443H417V444H418ZM464 444H465V443H464V444ZM464 490V491H465V490H464ZM418 490H417V491H418V490ZM418 445H464V443H418V445ZM463 444V490H465V444H463ZM464 489H418V491H464V489ZM419 490V444H417V490H419Z" fill="black" mask="url(#path-7-inside-4_75_325)"/>
<mask id="path-9-inside-5_75_325" fill="white">
<path d="M463 444H7825V490H463V444Z"/>
</mask>
<path d="M463 444H7825V490H463V444Z" fill="#66CCFF"/>
<path d="M463 444V443H462V444H463ZM7825 444H7826V443H7825V444ZM7825 490V491H7826V490H7825ZM463 490H462V491H463V490ZM463 445H7825V443H463V445ZM7824 444V490H7826V444H7824ZM7825 489H463V491H7825V489ZM464 490V444H462V490H464Z" fill="black" mask="url(#path-9-inside-5_75_325)"/>
</g>
<rect width="401" height="19" transform="translate(506 407)" fill="white"/>
<rect width="285" height="19" transform="translate(2 407)" fill="white"/>
<rect width="19" height="405" transform="translate(60 2)" fill="white"/>
<rect width="23" height="31" transform="translate(79 376)" fill="white"/>
<rect width="58" height="48" transform="translate(684 359)" fill="white"/>
<rect width="19" height="77" transform="translate(723 282)" fill="white"/>
<rect width="42" height="23" transform="matrix(-1 0 0 1 914 407)" fill="white"/>
<rect x="79.5" y="336.5" width="23" height="39" fill="#99FF99"/>
<rect x="79.5" y="336.5" width="23" height="39" stroke="black"/>
<rect x="683.5" y="282.5" width="39" height="77" fill="#99FF99"/>
<rect x="683.5" y="282.5" width="39" height="77" stroke="black"/>
<rect x="79.5" y="2.5" width="57" height="34" fill="#99FF99"/>
<rect x="79.5" y="2.5" width="57" height="34" stroke="black"/>
<rect x="893.5" y="343.5" width="33.0885" height="63" fill="#99FF99"/>
<rect x="893.5" y="343.5" width="33.0885" height="63" stroke="black"/>
<rect x="283.5" y="343.5" width="62" height="44" fill="#99FF99"/>
<rect x="283.5" y="343.5" width="62" height="44" stroke="black"/>
<rect x="644.5" y="2.5" width="157" height="280" fill="#66CCFF"/>
<rect x="644.5" y="2.5" width="157" height="280" stroke="black"/>
<rect x="742.5" y="369.5" width="54" height="37" fill="#66CCFF"/>
<rect x="742.5" y="369.5" width="54" height="37" stroke="black"/>
<rect x="742.5" y="282.5" width="54" height="87" fill="#66CCFF"/>
<rect x="742.5" y="282.5" width="54" height="87" stroke="black"/>
<mask id="path-19-inside-6_75_325" fill="white">
<path d="M839 343H869V407H839V343Z"/>
</mask>
<path d="M839 343H869V407H839V343Z" fill="#66CCFF"/>
<path d="M839 343V342H838V343H839ZM869 343H870V342H869V343ZM869 407V408H870V407H869ZM839 407H838V408H839V407ZM839 344H869V342H839V344ZM868 343V407H870V343H868ZM869 406H839V408H869V406ZM840 407V343H838V407H840Z" fill="black" mask="url(#path-19-inside-6_75_325)"/>
<rect x="326.5" y="110.5" width="139" height="233" fill="#66CCFF" stroke="black"/>
<rect x="507.5" y="426.5" width="30" height="63" fill="#66CCFF"/>
<rect x="507.5" y="426.5" width="30" height="63" stroke="black"/>
<mask id="path-23-inside-7_75_325" fill="white">
<path d="M537 426H570V490H537V426Z"/>
</mask>
<path d="M537 426H570V490H537V426Z" fill="#66CCFF"/>
<path d="M570 426H571V425H570V426ZM570 490V491H571V490H570ZM537 427H570V425H537V427ZM569 426V490H571V426H569ZM570 489H537V491H570V489Z" fill="black" mask="url(#path-23-inside-7_75_325)"/>
<rect x="569.5" y="426.5" width="59" height="63" fill="#66CCFF"/>
<rect x="569.5" y="426.5" width="59" height="63" stroke="black"/>
<rect x="507.5" y="343.5" width="62" height="63" fill="#66CCFF"/>
<rect x="507.5" y="343.5" width="62" height="63" stroke="black"/>
<rect x="654.5" y="426.5" width="59" height="63" fill="#66CCFF"/>
<rect x="654.5" y="426.5" width="59" height="63" stroke="black"/>
<rect x="713.5" y="426.5" width="30" height="63" fill="#66CCFF"/>
<rect x="713.5" y="426.5" width="30" height="63" stroke="black"/>
<rect x="743.5" y="426.5" width="51" height="63" fill="#66CCFF"/>
<rect x="743.5" y="426.5" width="51" height="63" stroke="black"/>
<rect x="794.5" y="426.5" width="45" height="63" fill="#66CCFF"/>
<rect x="794.5" y="426.5" width="45" height="63" stroke="black"/>
<rect x="628.5" y="426.5" width="26" height="63" fill="#66CCFF"/>
<rect x="628.5" y="426.5" width="26" height="63" stroke="black"/>
<rect x="254.5" y="343.5" width="29" height="63" fill="#66CCFF"/>
<rect x="254.5" y="343.5" width="29" height="63" stroke="black"/>
<mask id="path-33-inside-8_75_325" fill="white">
<path d="M198 426H226V490H198V426Z"/>
</mask>
<path d="M198 426H226V490H198V426Z" fill="#66CCFF"/>
<path d="M226 426H227V425H226V426ZM226 490V491H227V490H226ZM198 427H226V425H198V427ZM225 426V490H227V426H225ZM226 489H198V491H226V489Z" fill="black" mask="url(#path-33-inside-8_75_325)"/>
<mask id="path-35-inside-9_75_325" fill="white">
<path d="M130 426H199V490H130V426Z"/>
</mask>
<path d="M130 426H199V490H130V426Z" fill="#66CCFF"/>
<path d="M130 426V425H129V426H130ZM130 490H129V491H130V490ZM130 427H199V425H130V427ZM199 489H130V491H199V489ZM131 490V426H129V490H131Z" fill="black" mask="url(#path-35-inside-9_75_325)"/>
<mask id="path-37-inside-10_75_325" fill="white">
<path d="M225 426H284V490H225V426Z"/>
</mask>
<path d="M225 426H284V490H225V426Z" fill="#66CCFF"/>
<path d="M284 426H285V425H284V426ZM284 490V491H285V490H284ZM225 427H284V425H225V427ZM283 426V490H285V426H283ZM284 489H225V491H284V489Z" fill="black" mask="url(#path-37-inside-10_75_325)"/>
<rect x="225.5" y="343.5" width="29" height="63" fill="#66CCFF"/>
<rect x="225.5" y="343.5" width="29" height="63" stroke="black"/>
<rect x="839.5" y="426.5" width="32" height="63" fill="#66CCFF"/>
<rect x="839.5" y="426.5" width="32" height="63" stroke="black"/>
<rect x="197.5" y="343.5" width="28" height="63" fill="#66CCFF"/>
<rect x="197.5" y="343.5" width="28" height="63" stroke="black"/>
<rect x="102.5" y="343.5" width="47" height="63" fill="#66CCFF"/>
<rect x="102.5" y="343.5" width="47" height="63" stroke="black"/>
<rect x="868.5" y="343.5" width="25" height="63" fill="#66CCFF"/>
<rect x="868.5" y="343.5" width="25" height="63" stroke="black"/>
<mask id="path-44-inside-11_75_325" fill="white">
<path d="M796 343H840V407H796V343Z"/>
</mask>
<path d="M796 343H840V407H796V343Z" fill="#66CCFF"/>
<path d="M796 343V342H795V343H796ZM840 343H841V342H840V343ZM840 407V408H841V407H840ZM796 407H795V408H796V407ZM796 344H840V342H796V344ZM839 343V407H841V343H839ZM840 406H796V408H840V406ZM797 407V343H795V407H797Z" fill="black" mask="url(#path-44-inside-11_75_325)"/>
<rect x="644.5" y="343.5" width="39" height="63" fill="#66CCFF"/>
<rect x="644.5" y="343.5" width="39" height="63" stroke="black"/>
<rect x="871.5" y="429.5" width="55" height="52" fill="#66CCFF"/>
<rect x="871.5" y="429.5" width="55" height="52" stroke="black"/>
<rect x="2.5" y="426.5" width="54" height="63" fill="#66CCFF"/>
<rect x="2.5" y="426.5" width="54" height="63" stroke="black"/>
<rect x="103.5" y="426.5" width="27" height="63" fill="#66CCFF"/>
<rect x="103.5" y="426.5" width="27" height="63" stroke="black"/>
<rect x="345.5" y="343.5" width="49" height="44" fill="#66CCFF"/>
<rect x="345.5" y="343.5" width="49" height="44" stroke="black"/>
<rect x="394.5" y="343.5" width="49" height="44" fill="#66CCFF"/>
<rect x="394.5" y="343.5" width="49" height="44" stroke="black"/>
<rect x="79.5" y="132.5" width="57" height="127" fill="#66CCFF"/>
<rect x="79.5" y="132.5" width="57" height="127" stroke="black"/>
<rect x="79.5" y="36.5" width="57" height="74" fill="#66CCFF"/>
<rect x="79.5" y="36.5" width="57" height="74" stroke="black"/>
<rect x="79.5" y="259.5" width="57" height="30" fill="#66CCFF"/>
<rect x="79.5" y="259.5" width="57" height="30" stroke="black"/>
<rect x="2.5" y="259.5" width="57" height="29" fill="#66CCFF"/>
<rect x="2.5" y="259.5" width="57" height="29" stroke="black"/>
<rect x="2.5" y="132.5" width="57" height="69" fill="#66CCFF"/>
<rect x="2.5" y="132.5" width="57" height="69" stroke="black"/>
<rect x="2.5" y="70.5" width="57" height="62" fill="#66CCFF"/>
<rect x="2.5" y="70.5" width="57" height="62" stroke="black"/>
<rect x="2.5" y="2.5" width="57" height="34" fill="#66CCFF"/>
<rect x="2.5" y="2.5" width="57" height="34" stroke="black"/>
<rect x="569.5" y="343.5" width="75" height="63" fill="#66CCFF"/>
<rect x="569.5" y="343.5" width="75" height="63" stroke="black"/>
<rect x="79.5" y="289.5" width="23" height="47" fill="#66CCFF"/>
<rect x="79.5" y="289.5" width="23" height="47" stroke="black"/>
<rect x="2.5" y="288.5" width="57" height="118" fill="#66CCFF"/>
<rect x="2.5" y="288.5" width="57" height="118" stroke="black"/>
<mask id="path-62-inside-12_75_325" fill="white">
<path d="M443 343H508V388H443V343Z"/>
</mask>
<path d="M443 343H508V388H443V343Z" fill="#66CCFF"/>
<path d="M508 343H509V342H508V343ZM508 388V389H509V388H508ZM443 344H508V342H443V344ZM507 343V388H509V343H507ZM508 387H443V389H508V387Z" fill="black" mask="url(#path-62-inside-12_75_325)"/>
<mask id="path-64-inside-13_75_325" fill="white">
<path d="M394 343H444V388H394V343Z"/>
</mask>
<path d="M394 343H444V388H394V343Z" fill="#66CCFF"/>
<path d="M394 343V342H393V343H394ZM394 388H393V389H394V388ZM394 344H444V342H394V344ZM444 387H394V389H444V387ZM395 388V343H393V388H395Z" fill="black" mask="url(#path-64-inside-13_75_325)"/>
<rect x="149.5" y="343.5" width="48" height="63" fill="#66CCFF"/>
<rect x="149.5" y="343.5" width="48" height="63" stroke="black"/>
<rect x="56.5" y="426.5" width="47" height="63" fill="#66CCFF"/>
<rect x="56.5" y="426.5" width="47" height="63" stroke="black"/>
<rect x="2.5" y="230.5" width="57" height="29" fill="#66CCFF"/>
<rect x="2.5" y="230.5" width="57" height="29" stroke="black"/>
<rect x="2.5" y="201.5" width="57" height="29" fill="#66CCFF"/>
<rect x="2.5" y="201.5" width="57" height="29" stroke="black"/>
<rect x="79.5" y="103.5" width="57" height="29" fill="#66CCFF"/>
<rect x="79.5" y="103.5" width="57" height="29" stroke="black"/>
<rect x="2.5" y="36.5" width="57" height="34" fill="#66CCFF"/>
<rect x="2.5" y="36.5" width="57" height="34" stroke="black"/>
<rect x="259.5" y="399.5" width="19" height="9" fill="#FF9999"/>
<rect x="259.5" y="399.5" width="19" height="9" stroke="black"/>
<rect x="60.5" y="424.5" width="20" height="9" fill="#FF9999"/>
<rect x="60.5" y="424.5" width="20" height="9" stroke="black"/>
<rect x="6.5" y="424.5" width="20" height="9" fill="#FF9999"/>
<rect x="6.5" y="424.5" width="20" height="9" stroke="black"/>
<rect x="573.5" y="424.5" width="19" height="9" fill="#FF9999"/>
<rect x="573.5" y="424.5" width="19" height="9" stroke="black"/>
<rect x="845.5" y="399.5" width="19" height="9" fill="#FF9999"/>
<rect x="845.5" y="399.5" width="19" height="9" stroke="black"/>
<rect x="871.5" y="399.5" width="19" height="9" fill="#FF9999"/>
<rect x="871.5" y="399.5" width="19" height="9" stroke="black"/>
<rect x="740.5" y="379.5" width="9" height="19" fill="#FF9999"/>
<rect x="740.5" y="379.5" width="9" height="19" stroke="black"/>
<rect x="53.5" y="265.5" width="9" height="19" fill="#FF9999"/>
<rect x="53.5" y="265.5" width="9" height="19" stroke="black"/>
<rect x="808.5" y="399.5" width="19" height="9" fill="#FF9999"/>
<rect x="808.5" y="399.5" width="19" height="9" stroke="black"/>
<rect x="53.5" y="75.5" width="9" height="19" fill="#FF9999"/>
<rect x="53.5" y="75.5" width="9" height="19" stroke="black"/>
<rect x="718.5" y="424.656" width="19" height="9" fill="#FF9999"/>
<rect x="718.5" y="424.656" width="19" height="9" stroke="black"/>
<rect x="53.5" y="140.5" width="9" height="19" fill="#FF9999"/>
<rect x="53.5" y="140.5" width="9" height="19" stroke="black"/>
<rect x="740.5" y="339.5" width="9" height="19" fill="#FF9999"/>
<rect x="740.5" y="339.5" width="9" height="19" stroke="black"/>
<rect x="632.5" y="424.656" width="19" height="9" fill="#FF9999"/>
<rect x="632.5" y="424.656" width="19" height="9" stroke="black"/>
<rect x="688.5" y="424.656" width="19" height="9" fill="#FF9999"/>
<rect x="688.5" y="424.656" width="19" height="9" stroke="black"/>
<rect x="543.5" y="424.656" width="19" height="9" fill="#FF9999"/>
<rect x="543.5" y="424.656" width="19" height="9" stroke="black"/>
<rect x="511.5" y="399.656" width="19" height="9" fill="#FF9999"/>
<rect x="511.5" y="399.656" width="19" height="9" stroke="black"/>
<rect x="751.5" y="424.656" width="19" height="9" fill="#FF9999"/>
<rect x="751.5" y="424.656" width="19" height="9" stroke="black"/>
<rect x="812.5" y="424.656" width="19" height="9" fill="#FF9999"/>
<rect x="812.5" y="424.656" width="19" height="9" stroke="black"/>
<rect x="605.5" y="424.5" width="19" height="9" fill="#FF9999"/>
<rect x="605.5" y="424.5" width="19" height="9" stroke="black"/>
<rect x="543.5" y="399.656" width="19" height="9" fill="#FF9999"/>
<rect x="543.5" y="399.656" width="19" height="9" stroke="black"/>
<rect x="230.5" y="399.5" width="19" height="9" fill="#FF9999"/>
<rect x="230.5" y="399.5" width="19" height="9" stroke="black"/>
<rect x="599.5" y="399.5" width="19" height="9" fill="#FF9999"/>
<rect x="599.5" y="399.5" width="19" height="9" stroke="black"/>
<rect x="154.5" y="399.5" width="19" height="9" fill="#FF9999"/>
<rect x="154.5" y="399.5" width="19" height="9" stroke="black"/>
<rect x="107.5" y="399.5" width="19" height="9" fill="#FF9999"/>
<rect x="107.5" y="399.5" width="19" height="9" stroke="black"/>
<rect x="136.5" y="424.5" width="19" height="9" fill="#FF9999"/>
<rect x="136.5" y="424.5" width="19" height="9" stroke="black"/>
<rect x="202.5" y="424.656" width="19" height="9" fill="#FF9999"/>
<rect x="202.5" y="424.656" width="19" height="9" stroke="black"/>
<rect x="107.5" y="424.5" width="19" height="9" fill="#FF9999"/>
<rect x="107.5" y="424.5" width="19" height="9" stroke="black"/>
<rect x="658.5" y="399.656" width="19" height="9" fill="#FF9999"/>
<rect x="658.5" y="399.656" width="19" height="9" stroke="black"/>
<rect x="845.5" y="424.656" width="19" height="9" fill="#FF9999"/>
<rect x="845.5" y="424.656" width="19" height="9" stroke="black"/>
<rect x="889.5" y="427.5" width="19" height="9" fill="#FF9999"/>
<rect x="889.5" y="427.5" width="19" height="9" stroke="black"/>
<rect x="53.5" y="10.5" width="9" height="19" fill="#FF9999"/>
<rect x="53.5" y="10.5" width="9" height="19" stroke="black"/>
<rect x="53.5" y="234.5" width="9" height="19" fill="#FF9999"/>
<rect x="53.5" y="234.5" width="9" height="19" stroke="black"/>
<rect x="76.5" y="234.5" width="9" height="19" fill="#FF9999"/>
<rect x="76.5" y="234.5" width="9" height="19" stroke="black"/>
<rect x="53.5" y="295.5" width="9" height="19" fill="#FF9999"/>
<rect x="53.5" y="295.5" width="9" height="19" stroke="black"/>
<rect x="77.5" y="295.5" width="9" height="19" fill="#FF9999"/>
<rect x="77.5" y="295.5" width="9" height="19" stroke="black"/>
<rect x="76.5" y="265.5" width="9" height="19" fill="#FF9999"/>
<rect x="76.5" y="265.5" width="9" height="19" stroke="black"/>
<rect x="76.5" y="108.5" width="9" height="19" fill="#FF9999"/>
<rect x="76.5" y="108.5" width="9" height="19" stroke="black"/>
<rect x="53.5" y="44.5" width="9" height="19" fill="#FF9999"/>
<rect x="53.5" y="44.5" width="9" height="19" stroke="black"/>
<rect x="53.5" y="206.5" width="9" height="19" fill="#FF9999"/>
<rect x="53.5" y="206.5" width="9" height="19" stroke="black"/>
<line x1="443.5" y1="344" x2="443.5" y2="362" stroke="black"/>
<line x1="443.5" y1="369" x2="443.5" y2="387" stroke="black"/>
<line x1="198.5" y1="464" x2="198.5" y2="489" stroke="black"/>
<line x1="537.5" y1="427" x2="537.5" y2="452" stroke="black"/>
<line x1="225.5" y1="464" x2="225.5" y2="489" stroke="black"/>
<line x1="225.5" y1="427" x2="225.5" y2="452" stroke="black"/>
<line x1="225.5" y1="427" x2="225.5" y2="452" stroke="black"/>
<rect width="136" height="3" transform="translate(3)" fill="black"/>
<rect width="290" height="3" transform="matrix(0 -1 1 0 136 293)" fill="black"/>
<rect width="34" height="3" transform="translate(102 290)" fill="black"/>
<rect width="216" height="3" transform="translate(468 341)" fill="black"/>
<rect width="282" height="3" transform="matrix(0 -1 1 0 801 285)" fill="black"/>
<rect width="5" height="3" transform="translate(796 282)" fill="black"/>
<rect width="59" height="3" transform="matrix(0 -1 1 0 796 344)" fill="black"/>
<rect width="130" height="3" transform="translate(799 341)" fill="black"/>
<rect width="65" height="3" transform="matrix(0 -1 1 0 926 409)" fill="black"/>
<rect width="59" height="3" transform="matrix(0 -1 1 0 681 341)" fill="black"/>
<rect width="283" height="3" transform="matrix(0 -1 1 0 642 283)" fill="black"/>
<rect width="39" height="3" transform="translate(642 282)" fill="black"/>
<rect width="51" height="3" transform="matrix(0 -1 1 0 102 344)" fill="black"/>
<rect width="222" height="3" transform="translate(105 341)" fill="black"/>
<rect width="233" height="3" transform="matrix(0 -1 1 0 324 341)" fill="black"/>
<rect width="141" height="3" transform="translate(327 108)" fill="black"/>
<rect width="234" height="3" transform="matrix(0 -1 1 0 465 344)" fill="black"/>
<line x1="537.5" y1="464" x2="537.5" y2="489" stroke="black"/>
<rect width="12" height="3" transform="translate(914 406)" fill="black"/>
<rect width="21" height="3" transform="matrix(0 -1 1 0 914 430)" fill="black"/>
<rect width="9" height="3" transform="translate(917 427)" fill="black"/>
<rect width="57" height="3" transform="matrix(0 -1 1 0 926 484)" fill="black"/>
<rect width="55" height="3" transform="translate(871 481)" fill="black"/>
<rect width="5" height="3" transform="matrix(0 -1 1 0 871 489)" fill="black"/>
<rect width="871" height="3" transform="translate(3 489)" fill="black"/>
<rect width="492" height="3" transform="matrix(0 -1 1 0 0 492)" fill="black"/>
<rect width="159" height="3" transform="translate(645)" fill="black"/>
<line x1="198.5" y1="426" x2="198.5" y2="451" stroke="black"/>
<defs>
<clipPath id="clip0_75_325">
<rect width="223" height="102" fill="white" transform="translate(284 388)"/>
</clipPath>
</defs>
</svg>
