<svg width="534" height="605" viewBox="0 0 534 605" fill="none" xmlns="http://www.w3.org/2000/svg">
<rect width="107" height="380" transform="translate(250 112)" fill="white"/>
<rect width="80" height="80" transform="translate(170 112)" fill="white"/>
<rect width="340" height="70" transform="translate(42 492)" fill="white"/>
<rect width="220" height="40" transform="translate(162 562)" fill="white"/>
<mask id="path-1-inside-1_87_11" fill="white">
<path d="M2 562H162V602H2V562Z"/>
</mask>
<path d="M2 562H162V602H2V562Z" fill="white"/>
<path d="M162 562H163V561H162V562ZM2 563H162V561H2V563ZM161 562V602H163V562H161Z" fill="black" mask="url(#path-1-inside-1_87_11)"/>
<mask id="path-3-inside-2_87_11" fill="white">
<path d="M2 402H43V562H2V402Z"/>
</mask>
<path d="M2 402H43V562H2V402Z" fill="white"/>
<path d="M42 402V562H44V402H42Z" fill="black" mask="url(#path-3-inside-2_87_11)"/>
<rect width="51" height="110" transform="translate(249 2)" fill="#99FF99"/>
<rect x="210.5" y="72.5" width="39" height="39" fill="#FF66FF"/>
<rect x="210.5" y="72.5" width="39" height="39" stroke="black"/>
<rect x="171.5" y="72.5" width="39" height="39" fill="#FF66FF"/>
<rect x="171.5" y="72.5" width="39" height="39" stroke="black"/>
<rect x="42.5" y="192.5" width="207" height="299" fill="#66CCFF"/>
<rect x="42.5" y="192.5" width="207" height="299" stroke="black"/>
<rect x="2.5" y="72.5" width="169" height="120" fill="#66CCFF"/>
<rect x="2.5" y="72.5" width="169" height="120" stroke="black"/>
<rect x="357.5" y="152.5" width="105" height="236" fill="#66CCFF"/>
<rect x="357.5" y="152.5" width="105" height="236" stroke="black"/>
<rect x="462.5" y="112.5" width="69" height="109" fill="#66CCFF"/>
<rect x="462.5" y="112.5" width="69" height="109" stroke="black"/>
<rect x="462.5" y="279.5" width="69" height="109" fill="#66CCFF"/>
<rect x="462.5" y="279.5" width="69" height="109" stroke="black"/>
<rect x="462.5" y="221.5" width="69" height="58" fill="#66CCFF"/>
<rect x="462.5" y="221.5" width="69" height="58" stroke="black"/>
<rect x="355.5" y="241.5" width="9" height="19" fill="#FF9999"/>
<rect x="355.5" y="241.5" width="9" height="19" stroke="black"/>
<rect x="182.5" y="104.5" width="19" height="9" fill="#FF9999"/>
<rect x="182.5" y="104.5" width="19" height="9" stroke="black"/>
<rect x="220.5" y="104.5" width="19" height="9" fill="#FF9999"/>
<rect x="220.5" y="104.5" width="19" height="9" stroke="black"/>
<rect x="242.5" y="241.5" width="9" height="19" fill="#FF9999"/>
<rect x="242.5" y="241.5" width="9" height="19" stroke="black"/>
<rect x="487.5" y="214.5" width="19" height="9" fill="#FF9999"/>
<rect x="487.5" y="214.5" width="19" height="9" stroke="black"/>
<rect x="487.5" y="277.5" width="19" height="9" fill="#FF9999"/>
<rect x="487.5" y="277.5" width="19" height="9" stroke="black"/>
<rect x="460.5" y="241.5" width="9" height="19" fill="#FF9999"/>
<rect x="460.5" y="241.5" width="9" height="19" stroke="black"/>
<rect x="35.5" y="517.5" width="9" height="19" fill="#FF9999"/>
<rect x="35.5" y="517.5" width="9" height="19" stroke="black"/>
<rect x="154.5" y="572.5" width="9" height="19" fill="#FF9999"/>
<rect x="154.5" y="572.5" width="9" height="19" stroke="black"/>
<rect x="164.5" y="164.5" width="9" height="19" fill="#FF9999"/>
<rect x="164.5" y="164.5" width="9" height="19" stroke="black"/>
<rect width="3" height="109" transform="translate(299 3)" fill="black"/>
<rect width="3" height="43" transform="matrix(0 -1 1 0 0 403)" fill="black"/>
<rect width="3" height="247" transform="matrix(0 -1 1 0 3 73)" fill="black"/>
<rect width="3" height="58" transform="matrix(0 -1 1 0 302 112)" fill="black"/>
<rect width="3" height="70" transform="translate(247)" fill="black"/>
<rect width="3" height="52" transform="matrix(0 -1 1 0 250 3)" fill="black"/>
<rect width="3" height="112" transform="translate(381 490)" fill="black"/>
<rect width="3" height="382" transform="matrix(0 -1 1 0 2 605)" fill="black"/>
<rect width="3" height="208" transform="translate(40 192)" fill="black"/>
<rect width="3" height="99" transform="translate(357 391)" fill="black"/>
<rect width="3" height="71" transform="matrix(0 -1 1 0 463 113)" fill="black"/>
<rect width="3" height="275" transform="translate(531 113)" fill="black"/>
<rect width="3" height="177" transform="matrix(0 -1 1 0 357 391)" fill="black"/>
<rect width="3" height="40" transform="translate(460 110)" fill="black"/>
<rect width="3" height="103" transform="matrix(0 -1 1 0 360 153)" fill="black"/>
<rect width="3" height="41" transform="translate(357 112)" fill="black"/>
<rect width="3" height="122" transform="translate(0 70)" fill="black"/>
<rect width="3" height="40" transform="matrix(0 -1 1 0 0 195)" fill="black"/>
<rect width="3" height="203" transform="translate(0 402)" fill="black"/>
<rect width="3" height="24" transform="matrix(0 -1 1 0 357 493)" fill="black"/>
</svg>
