<svg width="929" height="492" viewBox="0 0 929 492" fill="none" xmlns="http://www.w3.org/2000/svg">
<rect width="223" height="102" transform="translate(284 388)" fill="white"/>
<rect width="401" height="19" transform="translate(506 407)" fill="white"/>
<rect width="285" height="19" transform="translate(2 407)" fill="white"/>
<rect width="19" height="405" transform="translate(60 2)" fill="white"/>
<rect width="23" height="31" transform="translate(79 376)" fill="white"/>
<rect width="58" height="48" transform="translate(684 359)" fill="white"/>
<rect width="19" height="77" transform="translate(723 282)" fill="white"/>
<rect width="42" height="23" transform="matrix(-1 0 0 1 914 407)" fill="white"/>
<rect x="79.5" y="336.5" width="23" height="39" fill="#99FF99"/>
<rect x="79.5" y="336.5" width="23" height="39" stroke="black"/>
<rect x="683.5" y="301.5" width="39" height="58" fill="#99FF99"/>
<rect x="683.5" y="301.5" width="39" height="58" stroke="black"/>
<rect x="445.5" y="343.5" width="62" height="44" fill="#99FF99"/>
<rect x="445.5" y="343.5" width="62" height="44" stroke="black"/>
<rect x="644.5" y="2.5" width="83" height="32" fill="#99FF99"/>
<rect x="644.5" y="2.5" width="83" height="32" stroke="black"/>
<rect x="79.5" y="2.5" width="57" height="34" fill="#99FF99"/>
<rect x="79.5" y="2.5" width="57" height="34" stroke="black"/>
<rect x="893.5" y="343.5" width="33.0885" height="63" fill="#99FF99"/>
<rect x="893.5" y="343.5" width="33.0885" height="63" stroke="black"/>
<rect x="283.5" y="343.5" width="62" height="44" fill="#99FF99"/>
<rect x="283.5" y="343.5" width="62" height="44" stroke="black"/>
<rect x="742.5" y="282.5" width="54" height="47" fill="#66CCFF"/>
<rect x="742.5" y="282.5" width="54" height="47" stroke="black"/>
<rect x="727.5" y="2.5" width="62" height="32" fill="#66CCFF"/>
<rect x="727.5" y="2.5" width="62" height="32" stroke="black"/>
<rect x="644.5" y="34.5" width="157" height="248" fill="#66CCFF"/>
<rect x="644.5" y="34.5" width="157" height="248" stroke="black"/>
<rect x="742.5" y="369.5" width="54" height="37" fill="#66CCFF"/>
<rect x="742.5" y="369.5" width="54" height="37" stroke="black"/>
<rect x="742.5" y="329.5" width="54" height="40" fill="#66CCFF"/>
<rect x="742.5" y="329.5" width="54" height="40" stroke="black"/>
<rect x="683.5" y="282.5" width="39" height="19" fill="#66CCFF"/>
<rect x="683.5" y="282.5" width="39" height="19" stroke="black"/>
<mask id="path-14-inside-1_2_305" fill="white">
<path d="M839 343H869V407H839V343Z"/>
</mask>
<path d="M839 343H869V407H839V343Z" fill="#66CCFF"/>
<path d="M869 343H870V342H869V343ZM869 407V408H870V407H869ZM839 344H869V342H839V344ZM868 343V407H870V343H868ZM869 406H839V408H869V406Z" fill="black" mask="url(#path-14-inside-1_2_305)"/>
<rect x="326.5" y="110.5" width="139" height="233" fill="#66CCFF" stroke="black"/>
<rect x="507.5" y="426.5" width="30" height="63" fill="#66CCFF"/>
<rect x="507.5" y="426.5" width="30" height="63" stroke="black"/>
<mask id="path-18-inside-2_2_305" fill="white">
<path d="M537 426H570V490H537V426Z"/>
</mask>
<path d="M537 426H570V490H537V426Z" fill="#66CCFF"/>
<path d="M570 426H571V425H570V426ZM570 490V491H571V490H570ZM537 427H570V425H537V427ZM569 426V490H571V426H569ZM570 489H537V491H570V489Z" fill="black" mask="url(#path-18-inside-2_2_305)"/>
<rect x="569.5" y="426.5" width="59" height="63" fill="#66CCFF"/>
<rect x="569.5" y="426.5" width="59" height="63" stroke="black"/>
<rect x="537.5" y="343.5" width="32" height="63" fill="#66CCFF"/>
<rect x="537.5" y="343.5" width="32" height="63" stroke="black"/>
<rect x="507.5" y="343.5" width="30" height="63" fill="#66CCFF"/>
<rect x="507.5" y="343.5" width="30" height="63" stroke="black"/>
<rect x="654.5" y="426.5" width="59" height="63" fill="#66CCFF"/>
<rect x="654.5" y="426.5" width="59" height="63" stroke="black"/>
<rect x="713.5" y="426.5" width="30" height="63" fill="#66CCFF"/>
<rect x="713.5" y="426.5" width="30" height="63" stroke="black"/>
<rect x="743.5" y="426.5" width="51" height="63" fill="#66CCFF"/>
<rect x="743.5" y="426.5" width="51" height="63" stroke="black"/>
<rect x="794.5" y="426.5" width="45" height="63" fill="#66CCFF"/>
<rect x="794.5" y="426.5" width="45" height="63" stroke="black"/>
<rect x="628.5" y="426.5" width="26" height="63" fill="#66CCFF"/>
<rect x="628.5" y="426.5" width="26" height="63" stroke="black"/>
<rect x="254.5" y="426.5" width="29" height="63" fill="#66CCFF"/>
<rect x="254.5" y="426.5" width="29" height="63" stroke="black"/>
<rect x="254.5" y="343.5" width="29" height="63" fill="#66CCFF"/>
<rect x="254.5" y="343.5" width="29" height="63" stroke="black"/>
<rect x="160.5" y="426.5" width="65" height="63" fill="#66CCFF"/>
<rect x="160.5" y="426.5" width="65" height="63" stroke="black"/>
<rect x="130.5" y="426.5" width="30" height="63" fill="#66CCFF"/>
<rect x="130.5" y="426.5" width="30" height="63" stroke="black"/>
<mask id="path-32-inside-3_2_305" fill="white">
<path d="M225 426H255V490H225V426Z"/>
</mask>
<path d="M225 426H255V490H225V426Z" fill="#66CCFF"/>
<path d="M225 427H255V425H225V427ZM255 489H225V491H255V489Z" fill="black" mask="url(#path-32-inside-3_2_305)"/>
<rect x="225.5" y="343.5" width="29" height="63" fill="#66CCFF"/>
<rect x="225.5" y="343.5" width="29" height="63" stroke="black"/>
<rect x="839.5" y="426.5" width="32" height="63" fill="#66CCFF"/>
<rect x="839.5" y="426.5" width="32" height="63" stroke="black"/>
<rect x="197.5" y="343.5" width="28" height="63" fill="#66CCFF"/>
<rect x="197.5" y="343.5" width="28" height="63" stroke="black"/>
<rect x="102.5" y="343.5" width="95" height="63" fill="#66CCFF"/>
<rect x="102.5" y="343.5" width="95" height="63" stroke="black"/>
<rect x="628.5" y="343.5" width="19" height="63" fill="#66CCFF"/>
<rect x="628.5" y="343.5" width="19" height="63" stroke="black"/>
<rect x="868.5" y="343.5" width="25" height="63" fill="#66CCFF"/>
<rect x="868.5" y="343.5" width="25" height="63" stroke="black"/>
<mask id="path-40-inside-4_2_305" fill="white">
<path d="M796 343H839V407H796V343Z"/>
</mask>
<path d="M796 343H839V407H796V343Z" fill="#66CCFF"/>
<path d="M796 343V342H795V343H796ZM796 407H795V408H796V407ZM796 344H839V342H796V344ZM839 406H796V408H839V406ZM797 407V343H795V407H797Z" fill="black" mask="url(#path-40-inside-4_2_305)"/>
<rect x="647.5" y="343.5" width="36" height="33" fill="#66CCFF"/>
<rect x="647.5" y="343.5" width="36" height="33" stroke="black"/>
<rect x="647.5" y="376.5" width="36" height="30" fill="#66CCFF"/>
<rect x="647.5" y="376.5" width="36" height="30" stroke="black"/>
<rect x="789.5" y="2.5" width="12" height="32" fill="#66CCFF"/>
<rect x="789.5" y="2.5" width="12" height="32" stroke="black"/>
<rect x="871.5" y="429.5" width="55" height="52" fill="#66CCFF"/>
<rect x="871.5" y="429.5" width="55" height="52" stroke="black"/>
<rect x="2.5" y="426.5" width="54" height="63" fill="#66CCFF"/>
<rect x="2.5" y="426.5" width="54" height="63" stroke="black"/>
<rect x="56.5" y="426.5" width="74" height="63" fill="#66CCFF"/>
<rect x="56.5" y="426.5" width="74" height="63" stroke="black"/>
<rect x="345.5" y="343.5" width="100" height="44" fill="#66CCFF"/>
<rect x="345.5" y="343.5" width="100" height="44" stroke="black"/>
<rect x="79.5" y="170.5" width="57" height="89" fill="#66CCFF"/>
<rect x="79.5" y="170.5" width="57" height="89" stroke="black"/>
<rect x="79.5" y="36.5" width="57" height="134" fill="#66CCFF"/>
<rect x="79.5" y="36.5" width="57" height="134" stroke="black"/>
<rect x="79.5" y="259.5" width="57" height="32" fill="#66CCFF"/>
<rect x="79.5" y="259.5" width="57" height="32" stroke="black"/>
<rect x="2.5" y="259.5" width="57" height="29" fill="#66CCFF"/>
<rect x="2.5" y="259.5" width="57" height="29" stroke="black"/>
<rect x="2.5" y="170.5" width="57" height="89" fill="#66CCFF"/>
<rect x="2.5" y="170.5" width="57" height="89" stroke="black"/>
<rect x="2.5" y="36.5" width="57" height="134" fill="#66CCFF"/>
<rect x="2.5" y="36.5" width="57" height="134" stroke="black"/>
<rect x="2.5" y="2.5" width="57" height="34" fill="#66CCFF"/>
<rect x="2.5" y="2.5" width="57" height="34" stroke="black"/>
<rect x="569.5" y="343.5" width="59" height="63" fill="#66CCFF"/>
<rect x="569.5" y="343.5" width="59" height="63" stroke="black"/>
<rect x="79.5" y="291.5" width="23" height="45" fill="#66CCFF"/>
<rect x="79.5" y="291.5" width="23" height="45" stroke="black"/>
<rect x="2.5" y="288.5" width="57" height="118" fill="#66CCFF"/>
<rect x="2.5" y="288.5" width="57" height="118" stroke="black"/>
<rect x="259.5" y="399.5" width="19" height="9" fill="#FF9999"/>
<rect x="259.5" y="399.5" width="19" height="9" stroke="black"/>
<rect x="60.5" y="424.5" width="20" height="9" fill="#FF9999"/>
<rect x="60.5" y="424.5" width="20" height="9" stroke="black"/>
<rect x="6.5" y="424.5" width="20" height="9" fill="#FF9999"/>
<rect x="6.5" y="424.5" width="20" height="9" stroke="black"/>
<rect x="845.5" y="399.5" width="19" height="9" fill="#FF9999"/>
<rect x="845.5" y="399.5" width="19" height="9" stroke="black"/>
<rect x="871.5" y="399.5" width="19" height="9" fill="#FF9999"/>
<rect x="871.5" y="399.5" width="19" height="9" stroke="black"/>
<rect x="740.5" y="379.5" width="9" height="19" fill="#FF9999"/>
<rect x="740.5" y="379.5" width="9" height="19" stroke="black"/>
<rect x="412.5" y="380.5" width="29" height="9" fill="#FF9999"/>
<rect x="412.5" y="380.5" width="29" height="9" stroke="black"/>
<rect x="634.5" y="399.656" width="9" height="9" fill="#FF9999"/>
<rect x="634.5" y="399.656" width="9" height="9" stroke="black"/>
<rect x="740.5" y="293.5" width="9" height="19" fill="#FF9999"/>
<rect x="740.5" y="293.5" width="9" height="19" stroke="black"/>
<rect x="723.5" y="271.5" width="18" height="13" fill="#FF9999"/>
<rect x="723.5" y="271.5" width="18" height="13" stroke="black"/>
<rect x="718.5" y="424.656" width="19" height="9" fill="#FF9999"/>
<rect x="718.5" y="424.656" width="19" height="9" stroke="black"/>
<rect x="740.5" y="339.5" width="9" height="19" fill="#FF9999"/>
<rect x="740.5" y="339.5" width="9" height="19" stroke="black"/>
<rect x="632.5" y="424.656" width="19" height="9" fill="#FF9999"/>
<rect x="632.5" y="424.656" width="19" height="9" stroke="black"/>
<rect x="688.5" y="424.656" width="19" height="9" fill="#FF9999"/>
<rect x="688.5" y="424.656" width="19" height="9" stroke="black"/>
<rect x="543.5" y="424.656" width="19" height="9" fill="#FF9999"/>
<rect x="543.5" y="424.656" width="19" height="9" stroke="black"/>
<rect x="511.5" y="399.656" width="19" height="9" fill="#FF9999"/>
<rect x="511.5" y="399.656" width="19" height="9" stroke="black"/>
<rect x="751.5" y="424.656" width="19" height="9" fill="#FF9999"/>
<rect x="751.5" y="424.656" width="19" height="9" stroke="black"/>
<rect x="812.5" y="424.656" width="19" height="9" fill="#FF9999"/>
<rect x="812.5" y="424.656" width="19" height="9" stroke="black"/>
<rect x="605.5" y="424.5" width="19" height="9" fill="#FF9999"/>
<rect x="605.5" y="424.5" width="19" height="9" stroke="black"/>
<rect x="543.5" y="399.656" width="19" height="9" fill="#FF9999"/>
<rect x="543.5" y="399.656" width="19" height="9" stroke="black"/>
<rect x="349.5" y="380.5" width="29" height="9" fill="#FF9999"/>
<rect x="349.5" y="380.5" width="29" height="9" stroke="black"/>
<rect x="230.5" y="399.5" width="19" height="9" fill="#FF9999"/>
<rect x="230.5" y="399.5" width="19" height="9" stroke="black"/>
<rect x="605.5" y="399.656" width="19" height="9" fill="#FF9999"/>
<rect x="605.5" y="399.656" width="19" height="9" stroke="black"/>
<rect x="169.5" y="399.5" width="19" height="9" fill="#FF9999"/>
<rect x="169.5" y="399.5" width="19" height="9" stroke="black"/>
<rect x="136.5" y="399.5" width="19" height="9" fill="#FF9999"/>
<rect x="136.5" y="399.5" width="19" height="9" stroke="black"/>
<rect x="117.5" y="399.5" width="9" height="9" fill="#FF9999"/>
<rect x="117.5" y="399.5" width="9" height="9" stroke="black"/>
<rect x="136.5" y="424.5" width="19" height="9" fill="#FF9999"/>
<rect x="136.5" y="424.5" width="19" height="9" stroke="black"/>
<rect x="202.5" y="424.656" width="19" height="9" fill="#FF9999"/>
<rect x="202.5" y="424.656" width="19" height="9" stroke="black"/>
<rect x="230.5" y="424.5" width="19" height="9" fill="#FF9999"/>
<rect x="230.5" y="424.5" width="19" height="9" stroke="black"/>
<rect x="259.5" y="424.5" width="19" height="9" fill="#FF9999"/>
<rect x="259.5" y="424.5" width="19" height="9" stroke="black"/>
<rect x="107.5" y="424.5" width="19" height="9" fill="#FF9999"/>
<rect x="107.5" y="424.5" width="19" height="9" stroke="black"/>
<rect x="658.5" y="399.656" width="19" height="9" fill="#FF9999"/>
<rect x="658.5" y="399.656" width="19" height="9" stroke="black"/>
<rect x="845.5" y="424.656" width="19" height="9" fill="#FF9999"/>
<rect x="845.5" y="424.656" width="19" height="9" stroke="black"/>
<rect x="716.5" y="287.5" width="9" height="9" fill="#FF9999"/>
<rect x="716.5" y="287.5" width="9" height="9" stroke="black"/>
<rect x="889.5" y="427.5" width="19" height="9" fill="#FF9999"/>
<rect x="889.5" y="427.5" width="19" height="9" stroke="black"/>
<rect x="747.5" y="27.5" width="19" height="9" fill="#FF9999"/>
<rect x="747.5" y="27.5" width="19" height="9" stroke="black"/>
<rect x="52.5" y="9.5" width="9" height="19" fill="#FF9999"/>
<rect x="52.5" y="9.5" width="9" height="19" stroke="black"/>
<rect x="52.5" y="40.5" width="9" height="19" fill="#FF9999"/>
<rect x="52.5" y="40.5" width="9" height="19" stroke="black"/>
<rect x="52.5" y="147.5" width="9" height="19" fill="#FF9999"/>
<rect x="52.5" y="147.5" width="9" height="19" stroke="black"/>
<rect x="77.5" y="113.5" width="9" height="19" fill="#FF9999"/>
<rect x="77.5" y="113.5" width="9" height="19" stroke="black"/>
<rect x="53.5" y="230.5" width="9" height="19" fill="#FF9999"/>
<rect x="53.5" y="230.5" width="9" height="19" stroke="black"/>
<rect x="77.5" y="215.5" width="9" height="19" fill="#FF9999"/>
<rect x="77.5" y="215.5" width="9" height="19" stroke="black"/>
<rect x="53.5" y="379.5" width="9" height="19" fill="#FF9999"/>
<rect x="53.5" y="379.5" width="9" height="19" stroke="black"/>
<rect x="53.5" y="323.5" width="9" height="19" fill="#FF9999"/>
<rect x="53.5" y="323.5" width="9" height="19" stroke="black"/>
<rect x="53.5" y="351.5" width="9" height="19" fill="#FF9999"/>
<rect x="53.5" y="351.5" width="9" height="19" stroke="black"/>
<rect x="53.5" y="295.5" width="9" height="19" fill="#FF9999"/>
<rect x="53.5" y="295.5" width="9" height="19" stroke="black"/>
<line x1="839.5" y1="381" x2="839.5" y2="406" stroke="black"/>
<line x1="839.5" y1="344" x2="839.5" y2="369" stroke="black"/>
<line x1="537.5" y1="427" x2="537.5" y2="452" stroke="black"/>
<line x1="225.5" y1="464" x2="225.5" y2="489" stroke="black"/>
<line x1="225.5" y1="427" x2="225.5" y2="452" stroke="black"/>
<line x1="254.5" y1="426" x2="254.5" y2="451" stroke="black"/>
<path d="M255 464V489" stroke="black"/>
<rect width="136" height="3" transform="translate(3)" fill="black"/>
<rect width="291" height="3" transform="matrix(0 -1 1 0 136 294)" fill="black"/>
<rect width="34" height="3" transform="translate(102 291)" fill="black"/>
<rect width="216" height="3" transform="translate(468 341)" fill="black"/>
<rect width="282" height="3" transform="matrix(0 -1 1 0 801 285)" fill="black"/>
<rect width="5" height="3" transform="translate(796 282)" fill="black"/>
<rect width="59" height="3" transform="matrix(0 -1 1 0 796 344)" fill="black"/>
<rect width="130" height="3" transform="translate(799 341)" fill="black"/>
<rect width="65" height="3" transform="matrix(0 -1 1 0 926 409)" fill="black"/>
<rect width="59" height="3" transform="matrix(0 -1 1 0 681 341)" fill="black"/>
<rect width="283" height="3" transform="matrix(0 -1 1 0 642 283)" fill="black"/>
<rect width="39" height="3" transform="translate(642 282)" fill="black"/>
<rect width="50" height="3" transform="matrix(0 -1 1 0 102 344)" fill="black"/>
<rect width="222" height="3" transform="translate(105 341)" fill="black"/>
<rect width="233" height="3" transform="matrix(0 -1 1 0 324 341)" fill="black"/>
<rect width="141" height="3" transform="translate(327 108)" fill="black"/>
<rect width="234" height="3" transform="matrix(0 -1 1 0 465 344)" fill="black"/>
<line x1="537.5" y1="464" x2="537.5" y2="489" stroke="black"/>
<rect width="12" height="3" transform="translate(914 406)" fill="black"/>
<rect width="21" height="3" transform="matrix(0 -1 1 0 914 430)" fill="black"/>
<rect width="9" height="3" transform="translate(917 427)" fill="black"/>
<rect width="57" height="3" transform="matrix(0 -1 1 0 926 484)" fill="black"/>
<rect width="55" height="3" transform="translate(871 481)" fill="black"/>
<rect width="5" height="3" transform="matrix(0 -1 1 0 871 489)" fill="black"/>
<rect width="871" height="3" transform="translate(3 489)" fill="black"/>
<rect width="492" height="3" transform="matrix(0 -1 1 0 0 492)" fill="black"/>
<rect width="159" height="3" transform="translate(645)" fill="black"/>
</svg>
