<svg width="534" height="605" viewBox="0 0 534 605" fill="none" xmlns="http://www.w3.org/2000/svg">
<mask id="path-1-inside-1_92_181" fill="white">
<path d="M250 289H280V493H250V289Z"/>
</mask>
<path d="M250 289H280V493H250V289Z" fill="#66CCFF"/>
<path d="M250 290H280V288H250V290Z" fill="black" mask="url(#path-1-inside-1_92_181)"/>
<rect width="70" height="80" transform="translate(172 112)" fill="white"/>
<mask id="path-3-inside-2_92_181" fill="white">
<path d="M42 492H162V562H42V492Z"/>
</mask>
<path d="M42 492H162V562H42V492Z" fill="#99FF99"/>
<path d="M42 492V491H41V492H42ZM42 562H41V563H42V562ZM42 493H162V491H42V493ZM162 561H42V563H162V561ZM43 562V492H41V562H43Z" fill="black" mask="url(#path-3-inside-2_92_181)"/>
<mask id="path-5-inside-3_92_181" fill="white">
<path d="M2 562H162V602H2V562Z"/>
</mask>
<path d="M2 562H162V602H2V562Z" fill="white"/>
<path d="M161 562V602H163V562H161Z" fill="black" mask="url(#path-5-inside-3_92_181)"/>
<rect width="129" height="30" transform="translate(43 162)" fill="white"/>
<rect width="174" height="37" transform="translate(357 252)" fill="white"/>
<rect width="115" height="177" transform="translate(242 112)" fill="white"/>
<mask id="path-7-inside-4_92_181" fill="white">
<path d="M2 402H43V562H2V402Z"/>
</mask>
<path d="M2 402H43V562H2V402Z" fill="white"/>
<path d="M42 402V562H44V402H42Z" fill="black" mask="url(#path-7-inside-4_92_181)"/>
<rect width="51" height="110" transform="translate(249 2)" fill="#99FF99"/>
<rect x="210.5" y="72.5" width="39" height="39" fill="#FF66FF"/>
<rect x="210.5" y="72.5" width="39" height="39" stroke="black"/>
<rect x="171.5" y="72.5" width="39" height="39" fill="#FF66FF"/>
<rect x="171.5" y="72.5" width="39" height="39" stroke="black"/>
<rect x="42.5" y="192.5" width="207" height="300" fill="#66CCFF"/>
<rect x="42.5" y="192.5" width="207" height="300" stroke="black"/>
<path d="M42.5 177.5V192.5H2.5V72.5H82.5V161.5H57H56.7779L56.6289 161.665L42.6289 177.165L42.5 177.308V177.5Z" fill="#66CCFF" stroke="black"/>
<rect x="60.5" y="163.5" width="9" height="19" transform="rotate(-90 60.5 163.5)" fill="#FF9999"/>
<rect x="60.5" y="163.5" width="9" height="19" transform="rotate(-90 60.5 163.5)" stroke="black"/>
<rect width="75" height="110" transform="translate(307 493)" fill="#66CCFF"/>
<rect x="457.5" y="289.5" width="74" height="99" fill="#66CCFF"/>
<rect x="457.5" y="289.5" width="74" height="99" stroke="black"/>
<rect width="65" height="110" transform="translate(242 493)" fill="#66CCFF"/>
<line x1="306.5" y1="602" x2="306.5" y2="561" stroke="black"/>
<rect width="80" height="110" transform="translate(162 493)" fill="#66CCFF"/>
<line x1="241.5" y1="602" x2="241.5" y2="561" stroke="black"/>
<rect x="357.5" y="152.5" width="50" height="99" fill="#66CCFF"/>
<rect x="357.5" y="152.5" width="50" height="99" stroke="black"/>
<rect x="407.5" y="152.5" width="50" height="99" fill="#66CCFF"/>
<rect x="407.5" y="152.5" width="50" height="99" stroke="black"/>
<rect x="280.5" y="388.5" width="77" height="104" fill="#66CCFF"/>
<rect x="280.5" y="388.5" width="77" height="104" stroke="black"/>
<rect x="457.5" y="152.5" width="74" height="99" fill="#66CCFF"/>
<rect x="457.5" y="152.5" width="74" height="99" stroke="black"/>
<rect x="280.5" y="289.5" width="177" height="99" fill="#66CCFF"/>
<rect x="280.5" y="289.5" width="177" height="99" stroke="black"/>
<rect width="40" height="20" transform="translate(209 472)" fill="#99FF99"/>
<rect width="40" height="20" transform="translate(43 193)" fill="#99FF99"/>
<rect x="182.5" y="104.5" width="19" height="9" fill="#FF9999"/>
<rect x="182.5" y="104.5" width="19" height="9" stroke="black"/>
<rect x="82.5" y="72.5" width="89" height="89" fill="#66CCFF"/>
<rect x="82.5" y="72.5" width="89" height="89" stroke="black"/>
<rect x="294.5" y="494.5" width="9" height="19" transform="rotate(-90 294.5 494.5)" fill="#FF9999"/>
<rect x="294.5" y="494.5" width="9" height="19" transform="rotate(-90 294.5 494.5)" stroke="black"/>
<rect x="47.5" y="200.5" width="10" height="19" transform="rotate(-90 47.5 200.5)" fill="#FF9999"/>
<rect x="47.5" y="200.5" width="10" height="19" transform="rotate(-90 47.5 200.5)" stroke="black"/>
<rect x="489.5" y="287.5" width="19" height="9" fill="#FF9999"/>
<rect x="489.5" y="287.5" width="19" height="9" stroke="black"/>
<rect x="489.5" y="244.5" width="19" height="9" fill="#FF9999"/>
<rect x="489.5" y="244.5" width="19" height="9" stroke="black"/>
<rect x="423.5" y="287.5" width="19" height="9" fill="#FF9999"/>
<rect x="423.5" y="287.5" width="19" height="9" stroke="black"/>
<rect x="239.5" y="472.5" width="10" height="20" fill="#FF9999"/>
<rect x="239.5" y="472.5" width="10" height="20" stroke="black"/>
<rect x="373.5" y="244.5" width="19" height="9" fill="#FF9999"/>
<rect x="373.5" y="244.5" width="19" height="9" stroke="black"/>
<rect x="114.5" y="163.5" width="9" height="19" transform="rotate(-90 114.5 163.5)" fill="#FF9999"/>
<rect x="114.5" y="163.5" width="9" height="19" transform="rotate(-90 114.5 163.5)" stroke="black"/>
<rect x="423.5" y="244.5" width="19" height="9" fill="#FF9999"/>
<rect x="423.5" y="244.5" width="19" height="9" stroke="black"/>
<rect x="220.5" y="104.5" width="19" height="9" fill="#FF9999"/>
<rect x="220.5" y="104.5" width="19" height="9" stroke="black"/>
<rect x="524.5" y="259.5" width="9" height="19" fill="#FF9999"/>
<rect x="524.5" y="259.5" width="9" height="19" stroke="black"/>
<rect width="3" height="109" transform="translate(299 3)" fill="black"/>
<rect width="3" height="43" transform="matrix(0 -1 1 0 0 403)" fill="black"/>
<rect width="3" height="247" transform="matrix(0 -1 1 0 3 73)" fill="black"/>
<rect width="3" height="58" transform="matrix(0 -1 1 0 302 112)" fill="black"/>
<rect width="3" height="70" transform="translate(247)" fill="black"/>
<rect width="3" height="52" transform="matrix(0 -1 1 0 250 3)" fill="black"/>
<rect width="3" height="112" transform="translate(381 490)" fill="black"/>
<rect width="3" height="382" transform="matrix(0 -1 1 0 2 605)" fill="black"/>
<rect width="3" height="208" transform="translate(40 192)" fill="black"/>
<rect width="3" height="99" transform="translate(357 391)" fill="black"/>
<rect width="3" height="238" transform="translate(531 150)" fill="black"/>
<rect width="3" height="177" transform="matrix(0 -1 1 0 357 391)" fill="black"/>
<rect width="3" height="171" transform="matrix(0 -1 1 0 360 153)" fill="black"/>
<rect width="3" height="41" transform="translate(357 112)" fill="black"/>
<rect width="3" height="122" transform="translate(0 70)" fill="black"/>
<rect width="3" height="40" transform="matrix(0 -1 1 0 0 195)" fill="black"/>
<rect width="3" height="203" transform="translate(0 402)" fill="black"/>
<rect width="3" height="24" transform="matrix(0 -1 1 0 357 493)" fill="black"/>
</svg>
