<svg width="601" height="414" viewBox="0 0 601 414" fill="none" xmlns="http://www.w3.org/2000/svg">
<rect width="119" height="71" transform="matrix(-1 0 0 1 412 246)" fill="white"/>
<rect width="146" height="72" transform="matrix(-1 0 0 1 439 246)" fill="white"/>
<mask id="path-1-inside-1_156_191" fill="white">
<path d="M293 246H245V318H293V246Z"/>
</mask>
<path d="M293 246H245V318H293V246Z" fill="white"/>
<path d="M246 246V318H244V246H246ZM292 318V246H294V318H292Z" fill="black" mask="url(#path-1-inside-1_156_191)"/>
<g clip-path="url(#clip0_156_191)">
<rect width="201" height="88" transform="matrix(-1 0 0 1 597 252)" fill="white"/>
<path d="M579.5 340.5H588.5H597.5V310.5H579.5V340.5Z" fill="#66CCFF" stroke="black"/>
</g>
<rect width="207" height="218" transform="matrix(-1 0 0 1 412 28)" fill="white"/>
<rect width="169" height="67" transform="matrix(-1 0 0 1 209 278)" fill="white"/>
<line x1="108.5" y1="344" x2="108.5" y2="311" stroke="black"/>
<rect x="73" y="303" width="36" height="18" fill="black"/>
<rect width="40" height="72" transform="matrix(-1 0 0 1 245 246)" fill="white"/>
<mask id="path-6-inside-2_156_191" fill="white">
<path d="M412 204H440V252H412V204Z"/>
</mask>
<path d="M412 204H440V252H412V204Z" fill="#99FF99"/>
<path d="M412 204V203H411V204H412ZM440 204H441V203H440V204ZM412 205H440V203H412V205ZM439 204V252H441V204H439ZM413 252V204H411V252H413Z" fill="black" mask="url(#path-6-inside-2_156_191)"/>
<mask id="path-8-inside-3_156_191" fill="white">
<path d="M176 208H206V279H176V208Z"/>
</mask>
<path d="M176 208H206V279H176V208Z" fill="#99FF99"/>
<path d="M176 208V207H175V208H176ZM206 208H207V207H206V208ZM176 209H206V207H176V209ZM205 208V279H207V208H205ZM177 279V208H175V279H177Z" fill="black" mask="url(#path-8-inside-3_156_191)"/>
<path d="M2.5 208.5H45H87.5V278.5H2.5V208.5Z" fill="#66CCFF" stroke="black"/>
<path d="M140.5 208.5H158.5H176.5V278.5H140.5V208.5Z" fill="#66CCFF" stroke="black"/>
<path d="M156 239H150C149.735 239 149.48 239.105 149.293 239.293C149.105 239.48 149 239.735 149 240V247H151V254H155V247H157V240C157 239.735 156.895 239.48 156.707 239.293C156.52 239.105 156.265 239 156 239Z" fill="black"/>
<path d="M153 237C154.105 237 155 236.105 155 235C155 233.895 154.105 233 153 233C151.895 233 151 233.895 151 235C151 236.105 151.895 237 153 237Z" fill="black"/>
<path d="M169.21 239.731C169.15 239.514 169.018 239.325 168.837 239.192C168.655 239.06 168.434 238.992 168.21 239.001H163.71C163.486 238.992 163.265 239.06 163.083 239.192C162.902 239.325 162.77 239.514 162.71 239.731L161 246.001H163L162 250.001H164V254.001H168V250.001H170L169 246.001H171L169.21 239.731Z" fill="black"/>
<path d="M166 237C167.105 237 168 236.105 168 235C168 233.895 167.105 233 166 233C164.895 233 164 233.895 164 235C164 236.105 164.895 237 166 237Z" fill="black"/>
<path d="M86.5 208.5H113.5H140.5V278.5H86.5V208.5Z" fill="#66CCFF" stroke="black"/>
<path d="M2.5 278.5H22H41.5V343.5H2.5V278.5Z" fill="#66CCFF" stroke="black"/>
<path d="M2.5 343.5H38H73.5V411.5H2.5V343.5Z" fill="#66CCFF" stroke="black"/>
<path d="M73.5 343.5H91H108.5V411.5H73.5V343.5Z" fill="#66CCFF" stroke="black"/>
<path d="M108.5 343.5H158.5H208.5V411.5H108.5V343.5Z" fill="#66CCFF" stroke="black"/>
<path d="M161 376H159V369H157V376H155V369H153V377C153 378.654 154.346 380 156 380H157V387H159V380H160C161.654 380 163 378.654 163 377V369H161V376ZM168 369H167C165.841 369 165 370.262 165 372V380H167V387H169V370C169 369.735 168.895 369.48 168.707 369.293C168.52 369.105 168.265 369 168 369Z" fill="black"/>
<path d="M396.5 318.5H432H467.5V409.5H396.5V318.5Z" fill="#66CCFF" stroke="black"/>
<path d="M467.5 340.5H483.5H499.5V409.5H467.5V340.5Z" fill="#66CCFF" stroke="black"/>
<path d="M499.5 340.5H514.5H529.5V409.5H499.5V340.5Z" fill="#66CCFF" stroke="black"/>
<path d="M529.5 340.5H563.5H597.5V409.5H529.5V340.5Z" fill="#66CCFF" stroke="black"/>
<path d="M555.5 277.5H576.5H597.5V310.5H555.5V277.5Z" fill="#66CCFF" stroke="black"/>
<path d="M555.5 277.5H540.5H525.5V310.5H555.5V277.5Z" fill="#66CCFF" stroke="black"/>
<path d="M513.5 204.5H535.5H557.5V251.5H513.5V204.5Z" fill="#66CCFF" stroke="black"/>
<path d="M597.5 204.5H577.5H557.5V251.5H597.5V204.5Z" fill="#66CCFF" stroke="black"/>
<path d="M471.5 204.5H493H514.5V251.5H471.5V204.5Z" fill="#66CCFF" stroke="black"/>
<path d="M439.5 204.5H455.5H471.5V251.5H439.5V204.5Z" fill="#66CCFF" stroke="black"/>
<path d="M205.5 170.5H248H290.5V213.5H205.5V170.5Z" fill="#66CCFF" stroke="black"/>
<path d="M205.5 111.5H248H290.5V170.5H205.5V111.5Z" fill="#66CCFF" stroke="black"/>
<path d="M205.5 40.5H248H290.5V111.5H205.5V40.5Z" fill="#66CCFF" stroke="black"/>
<path d="M326.5 40.5H369.5H412.5V213.5H326.5V40.5Z" fill="#66CCFF" stroke="black"/>
<path d="M327.5 2.5H343.5H359.5V40.5H327.5V2.5Z" fill="#66CCFF" stroke="black"/>
<path d="M359.5 2.5H386H412.5V40.5H359.5V2.5Z" fill="#66CCFF" stroke="black"/>
<path d="M205.5 2.5H266.5H327.5V40.5H205.5V2.5Z" fill="#66CCFF" stroke="black"/>
<rect x="48.5" y="273.5" width="19" height="9" fill="#FF9999"/>
<rect x="48.5" y="273.5" width="19" height="9" stroke="black"/>
<rect x="48.5" y="339.5" width="19" height="9" fill="#FF9999"/>
<rect x="48.5" y="339.5" width="19" height="9" stroke="black"/>
<rect x="81.5" y="339.5" width="19" height="9" fill="#FF9999"/>
<rect x="81.5" y="339.5" width="19" height="9" stroke="black"/>
<rect x="117.5" y="339.5" width="19" height="9" fill="#FF9999"/>
<rect x="117.5" y="339.5" width="19" height="9" stroke="black"/>
<rect x="149.5" y="339.5" width="19" height="9" fill="#FF9999"/>
<rect x="149.5" y="339.5" width="19" height="9" stroke="black"/>
<rect x="108.5" y="272.5" width="19" height="9" fill="#FF9999"/>
<rect x="108.5" y="272.5" width="19" height="9" stroke="black"/>
<rect x="153.5" y="272.5" width="19" height="9" fill="#FF9999"/>
<rect x="153.5" y="272.5" width="19" height="9" stroke="black"/>
<rect x="344.5" y="208.5" width="19" height="9" fill="#FF9999"/>
<rect x="344.5" y="208.5" width="19" height="9" stroke="black"/>
<rect x="447.5" y="248.5" width="19" height="9" fill="#FF9999"/>
<rect x="447.5" y="248.5" width="19" height="9" stroke="black"/>
<rect x="476.5" y="248.5" width="19" height="9" fill="#FF9999"/>
<rect x="476.5" y="248.5" width="19" height="9" stroke="black"/>
<rect x="523.5" y="248.5" width="19" height="9" fill="#FF9999"/>
<rect x="523.5" y="248.5" width="19" height="9" stroke="black"/>
<rect x="-0.5" y="0.5" width="19" height="9" transform="matrix(-1 0 0 1 580 248)" fill="#FF9999"/>
<rect x="-0.5" y="0.5" width="19" height="9" transform="matrix(-1 0 0 1 580 248)" stroke="black"/>
<rect x="536.5" y="336.5" width="19" height="9" fill="#FF9999"/>
<rect x="536.5" y="336.5" width="19" height="9" stroke="black"/>
<rect x="570.5" y="335.5" width="19" height="9" transform="rotate(-90 570.5 335.5)" fill="#FF9999"/>
<rect x="570.5" y="335.5" width="19" height="9" transform="rotate(-90 570.5 335.5)" stroke="black"/>
<rect x="576.5" y="305.5" width="9" height="19" transform="rotate(90 576.5 305.5)" fill="#FF9999"/>
<rect x="576.5" y="305.5" width="9" height="19" transform="rotate(90 576.5 305.5)" stroke="black"/>
<rect x="529.5" y="283.5" width="19" height="9" transform="rotate(90 529.5 283.5)" fill="#FF9999"/>
<rect x="529.5" y="283.5" width="19" height="9" transform="rotate(90 529.5 283.5)" stroke="black"/>
<rect x="505.5" y="336.5" width="19" height="9" fill="#FF9999"/>
<rect x="505.5" y="336.5" width="19" height="9" stroke="black"/>
<rect x="474.5" y="336.5" width="19" height="9" fill="#FF9999"/>
<rect x="474.5" y="336.5" width="19" height="9" stroke="black"/>
<rect x="441.5" y="315.5" width="19" height="9" fill="#FF9999"/>
<rect x="441.5" y="315.5" width="19" height="9" stroke="black"/>
<rect x="35.5" y="307.5" width="19" height="9" transform="rotate(-90 35.5 307.5)" fill="#FF9999"/>
<rect x="35.5" y="307.5" width="19" height="9" transform="rotate(-90 35.5 307.5)" stroke="black"/>
<rect x="285.5" y="209.5" width="19" height="9" transform="rotate(-90 285.5 209.5)" fill="#FF9999"/>
<rect x="285.5" y="209.5" width="19" height="9" transform="rotate(-90 285.5 209.5)" stroke="black"/>
<rect x="286.5" y="147.5" width="19" height="9" transform="rotate(-90 286.5 147.5)" fill="#FF9999"/>
<rect x="286.5" y="147.5" width="19" height="9" transform="rotate(-90 286.5 147.5)" stroke="black"/>
<rect x="286.5" y="104.5" width="19" height="9" transform="rotate(-90 286.5 104.5)" fill="#FF9999"/>
<rect x="286.5" y="104.5" width="19" height="9" transform="rotate(-90 286.5 104.5)" stroke="black"/>
<rect x="323.5" y="36.5" width="19" height="8" transform="rotate(-90 323.5 36.5)" fill="#FF9999"/>
<rect x="323.5" y="36.5" width="19" height="8" transform="rotate(-90 323.5 36.5)" stroke="black"/>
<rect x="356.5" y="35.5" width="14" height="6" transform="rotate(-90 356.5 35.5)" fill="#FF9999"/>
<rect x="356.5" y="35.5" width="14" height="6" transform="rotate(-90 356.5 35.5)" stroke="black"/>
<rect x="362.5" y="37.5" width="14" height="6" fill="#FF9999"/>
<rect x="362.5" y="37.5" width="14" height="6" stroke="black"/>
<rect x="302.5" y="37.5" width="14" height="6" fill="#FF9999"/>
<rect x="302.5" y="37.5" width="14" height="6" stroke="black"/>
<rect width="1" height="8" transform="matrix(0 -1 1 0 258 248)" fill="black"/>
<rect width="3" height="202" transform="matrix(0 -1 1 0 396 412)" fill="black"/>
<rect width="3" height="208" transform="translate(597 204)" fill="black"/>
<rect width="3" height="188" transform="matrix(0 -1 1 0 412 205)" fill="black"/>
<rect width="3" height="203" transform="translate(412 2)" fill="black"/>
<rect width="3" height="210" transform="matrix(0 -1 1 0 205 3)" fill="black"/>
<rect width="3" height="209" transform="translate(203)" fill="black"/>
<rect width="3" height="204" transform="matrix(0 -1 1 0 2 209)" fill="black"/>
<rect width="3" height="208" transform="translate(0 206)" fill="black"/>
<rect width="3" height="207" transform="matrix(0 -1 1 0 2 414)" fill="black"/>
<rect width="3" height="96" transform="translate(208 318)" fill="black"/>
<rect width="3" height="67" transform="matrix(0 -1 1 0 209 321)" fill="black"/>
<rect width="3" height="94" transform="translate(394 318)" fill="black"/>
<rect width="3" height="109" transform="matrix(0 -1 1 0 288 321)" fill="black"/>
<rect width="1" height="8" transform="matrix(0 -1 1 0 245 248)" fill="black"/>
<rect width="1" height="8" transform="matrix(0 -1 1 0 285 248)" fill="black"/>
<rect width="1" height="9" transform="matrix(0 -1 1 0 271 248)" fill="black"/>
<path d="M230.419 198.204C229.592 198.204 228.77 198.096 227.954 197.881C227.149 197.654 226.458 197.337 225.88 196.929L226.968 194.821C227.421 195.15 227.943 195.41 228.532 195.603C229.133 195.796 229.739 195.892 230.351 195.892C231.042 195.892 231.586 195.756 231.983 195.484C232.38 195.212 232.578 194.832 232.578 194.345C232.578 194.039 232.499 193.767 232.34 193.529C232.181 193.291 231.898 193.11 231.49 192.985C231.093 192.86 230.532 192.798 229.807 192.798H226.764L227.376 186.1H234.635V188.31H228.362L229.79 187.052L229.365 191.829L227.937 190.571H230.453C231.632 190.571 232.578 190.735 233.292 191.064C234.017 191.381 234.544 191.818 234.873 192.373C235.202 192.928 235.366 193.557 235.366 194.26C235.366 194.963 235.19 195.614 234.839 196.215C234.488 196.804 233.944 197.286 233.207 197.66C232.482 198.023 231.552 198.204 230.419 198.204ZM238.319 198V187.12L239.509 188.31H235.939V186.1H241.073V198H238.319ZM244.977 198V187.12L246.167 188.31H242.597V186.1H247.731V198H244.977ZM254.728 198.204C253.73 198.204 252.858 198.057 252.11 197.762C251.362 197.456 250.778 197.031 250.359 196.487C249.939 195.932 249.73 195.286 249.73 194.549C249.73 193.812 249.934 193.189 250.342 192.679C250.761 192.158 251.345 191.767 252.093 191.506C252.841 191.234 253.719 191.098 254.728 191.098C255.748 191.098 256.632 191.234 257.38 191.506C258.139 191.767 258.723 192.158 259.131 192.679C259.55 193.189 259.76 193.812 259.76 194.549C259.76 195.286 259.55 195.932 259.131 196.487C258.711 197.031 258.122 197.456 257.363 197.762C256.615 198.057 255.736 198.204 254.728 198.204ZM254.728 196.181C255.419 196.181 255.963 196.028 256.36 195.722C256.768 195.416 256.972 194.997 256.972 194.464C256.972 193.931 256.768 193.518 256.36 193.223C255.963 192.917 255.419 192.764 254.728 192.764C254.048 192.764 253.509 192.917 253.113 193.223C252.716 193.518 252.518 193.931 252.518 194.464C252.518 194.997 252.716 195.416 253.113 195.722C253.509 196.028 254.048 196.181 254.728 196.181ZM254.728 192.492C253.81 192.492 253.005 192.367 252.314 192.118C251.634 191.869 251.101 191.506 250.716 191.03C250.342 190.543 250.155 189.965 250.155 189.296C250.155 188.593 250.347 187.993 250.733 187.494C251.118 186.984 251.656 186.593 252.348 186.321C253.039 186.038 253.832 185.896 254.728 185.896C255.646 185.896 256.445 186.038 257.125 186.321C257.816 186.593 258.354 186.984 258.74 187.494C259.136 187.993 259.335 188.593 259.335 189.296C259.335 189.965 259.142 190.543 258.757 191.03C258.383 191.506 257.85 191.869 257.159 192.118C256.467 192.367 255.657 192.492 254.728 192.492ZM254.728 190.877C255.306 190.877 255.759 190.747 256.088 190.486C256.428 190.225 256.598 189.868 256.598 189.415C256.598 188.939 256.422 188.571 256.071 188.31C255.731 188.049 255.283 187.919 254.728 187.919C254.184 187.919 253.742 188.049 253.402 188.31C253.062 188.571 252.892 188.939 252.892 189.415C252.892 189.868 253.056 190.225 253.385 190.486C253.713 190.747 254.161 190.877 254.728 190.877ZM260.121 198L265.425 186.1H268.145L273.466 198H270.576L266.224 187.494H267.312L262.943 198H260.121ZM262.773 195.45L263.504 193.359H269.624L270.372 195.45H262.773Z" fill="black"/>
<path d="M236.084 152.204C235.257 152.204 234.435 152.096 233.619 151.881C232.815 151.654 232.123 151.337 231.545 150.929L232.633 148.821C233.087 149.15 233.608 149.41 234.197 149.603C234.798 149.796 235.404 149.892 236.016 149.892C236.708 149.892 237.252 149.756 237.648 149.484C238.045 149.212 238.243 148.832 238.243 148.345C238.243 148.039 238.164 147.767 238.005 147.529C237.847 147.291 237.563 147.11 237.155 146.985C236.759 146.86 236.198 146.798 235.472 146.798H232.429L233.041 140.1H240.3V142.31H234.027L235.455 141.052L235.03 145.829L233.602 144.571H236.118C237.297 144.571 238.243 144.735 238.957 145.064C239.683 145.381 240.21 145.818 240.538 146.373C240.867 146.928 241.031 147.557 241.031 148.26C241.031 148.963 240.856 149.614 240.504 150.215C240.153 150.804 239.609 151.286 238.872 151.66C238.147 152.023 237.218 152.204 236.084 152.204ZM243.985 152V141.12L245.175 142.31H241.605V140.1H246.739V152H243.985ZM250.642 152V141.12L251.832 142.31H248.262V140.1H253.396V152H250.642ZM259.645 139.896C260.745 139.896 261.691 140.123 262.484 140.576C263.278 141.029 263.89 141.692 264.32 142.565C264.751 143.426 264.966 144.503 264.966 145.795C264.966 147.166 264.706 148.328 264.184 149.28C263.674 150.232 262.966 150.957 262.059 151.456C261.153 151.955 260.099 152.204 258.897 152.204C258.274 152.204 257.673 152.136 257.095 152C256.517 151.864 256.019 151.66 255.599 151.388L256.619 149.365C256.948 149.592 257.299 149.75 257.673 149.841C258.047 149.92 258.438 149.96 258.846 149.96C259.866 149.96 260.677 149.648 261.277 149.025C261.889 148.402 262.195 147.478 262.195 146.254C262.195 146.05 262.19 145.823 262.178 145.574C262.167 145.325 262.139 145.075 262.093 144.826L262.841 145.54C262.649 145.982 262.377 146.356 262.025 146.662C261.674 146.957 261.266 147.183 260.801 147.342C260.337 147.489 259.815 147.563 259.237 147.563C258.478 147.563 257.787 147.41 257.163 147.104C256.551 146.798 256.058 146.367 255.684 145.812C255.322 145.257 255.14 144.605 255.14 143.857C255.14 143.041 255.339 142.338 255.735 141.749C256.143 141.16 256.687 140.706 257.367 140.389C258.059 140.06 258.818 139.896 259.645 139.896ZM259.815 141.953C259.419 141.953 259.073 142.027 258.778 142.174C258.484 142.31 258.251 142.514 258.081 142.786C257.911 143.047 257.826 143.358 257.826 143.721C257.826 144.265 258.008 144.701 258.37 145.03C258.744 145.347 259.237 145.506 259.849 145.506C260.246 145.506 260.597 145.432 260.903 145.285C261.221 145.126 261.464 144.911 261.634 144.639C261.804 144.367 261.889 144.061 261.889 143.721C261.889 143.381 261.804 143.081 261.634 142.82C261.476 142.548 261.243 142.338 260.937 142.191C260.631 142.032 260.257 141.953 259.815 141.953Z" fill="black"/>
<path d="M336.097 121V111.32L336.689 111.912H332.529V109.8H342.241V111.912H338.081L338.657 111.32V121H336.097ZM343.489 121V112.392H347.889C348.966 112.392 349.809 112.589 350.417 112.984C351.025 113.368 351.329 113.912 351.329 114.616C351.329 115.32 351.041 115.875 350.465 116.28C349.9 116.675 349.148 116.872 348.209 116.872L348.465 116.296C349.51 116.296 350.289 116.488 350.801 116.872C351.324 117.256 351.585 117.816 351.585 118.552C351.585 119.309 351.297 119.907 350.721 120.344C350.145 120.781 349.265 121 348.081 121H343.489ZM345.777 119.304H347.873C348.332 119.304 348.673 119.229 348.897 119.08C349.132 118.92 349.249 118.68 349.249 118.36C349.249 118.029 349.142 117.789 348.929 117.64C348.716 117.48 348.38 117.4 347.921 117.4H345.777V119.304ZM345.777 115.928H347.665C348.102 115.928 348.428 115.848 348.641 115.688C348.865 115.528 348.977 115.299 348.977 115C348.977 114.691 348.865 114.461 348.641 114.312C348.428 114.163 348.102 114.088 347.665 114.088H345.777V115.928ZM357.474 121.128C356.557 121.128 355.741 120.936 355.026 120.552C354.322 120.168 353.762 119.645 353.346 118.984C352.941 118.312 352.738 117.549 352.738 116.696C352.738 115.832 352.941 115.069 353.346 114.408C353.762 113.736 354.322 113.213 355.026 112.84C355.741 112.456 356.557 112.264 357.474 112.264C358.381 112.264 359.192 112.456 359.906 112.84C360.621 113.213 361.181 113.731 361.586 114.392C361.992 115.053 362.194 115.821 362.194 116.696C362.194 117.549 361.992 118.312 361.586 118.984C361.181 119.645 360.621 120.168 359.906 120.552C359.192 120.936 358.381 121.128 357.474 121.128ZM357.474 119.08C357.89 119.08 358.264 118.984 358.594 118.792C358.925 118.6 359.186 118.328 359.378 117.976C359.57 117.613 359.666 117.187 359.666 116.696C359.666 116.195 359.57 115.768 359.378 115.416C359.186 115.064 358.925 114.792 358.594 114.6C358.264 114.408 357.89 114.312 357.474 114.312C357.058 114.312 356.685 114.408 356.354 114.6C356.024 114.792 355.757 115.064 355.554 115.416C355.362 115.768 355.266 116.195 355.266 116.696C355.266 117.187 355.362 117.613 355.554 117.976C355.757 118.328 356.024 118.6 356.354 118.792C356.685 118.984 357.058 119.08 357.474 119.08ZM368.983 121.128C368.258 121.128 367.623 120.968 367.079 120.648C366.535 120.328 366.108 119.843 365.799 119.192C365.5 118.531 365.351 117.699 365.351 116.696C365.351 115.683 365.495 114.851 365.783 114.2C366.071 113.549 366.487 113.064 367.031 112.744C367.575 112.424 368.226 112.264 368.983 112.264C369.794 112.264 370.519 112.451 371.159 112.824C371.81 113.187 372.322 113.699 372.695 114.36C373.079 115.021 373.271 115.8 373.271 116.696C373.271 117.603 373.079 118.387 372.695 119.048C372.322 119.709 371.81 120.221 371.159 120.584C370.519 120.947 369.794 121.128 368.983 121.128ZM363.895 124.104V112.392H366.279V114.152L366.231 116.712L366.391 119.256V124.104H363.895ZM368.551 119.08C368.967 119.08 369.335 118.984 369.655 118.792C369.986 118.6 370.247 118.328 370.439 117.976C370.642 117.613 370.743 117.187 370.743 116.696C370.743 116.195 370.642 115.768 370.439 115.416C370.247 115.064 369.986 114.792 369.655 114.6C369.335 114.408 368.967 114.312 368.551 114.312C368.135 114.312 367.762 114.408 367.431 114.6C367.1 114.792 366.839 115.064 366.647 115.416C366.455 115.768 366.359 116.195 366.359 116.696C366.359 117.187 366.455 117.613 366.647 117.976C366.839 118.328 367.1 118.6 367.431 118.792C367.762 118.984 368.135 119.08 368.551 119.08ZM380.444 117.704C380.092 117.896 379.703 118.051 379.276 118.168C378.85 118.285 378.38 118.344 377.868 118.344C376.738 118.344 375.868 118.088 375.26 117.576C374.652 117.053 374.348 116.227 374.348 115.096V112.392H376.844V114.936C376.844 115.469 376.983 115.853 377.26 116.088C377.538 116.312 377.927 116.424 378.428 116.424C378.791 116.424 379.138 116.381 379.468 116.296C379.81 116.211 380.135 116.088 380.444 115.928V117.704ZM380.268 121V112.392H382.764V121H380.268ZM389.369 121.128C388.388 121.128 387.524 120.936 386.777 120.552C386.041 120.168 385.47 119.645 385.065 118.984C384.66 118.312 384.457 117.549 384.457 116.696C384.457 115.832 384.654 115.069 385.049 114.408C385.454 113.736 386.004 113.213 386.697 112.84C387.39 112.456 388.174 112.264 389.049 112.264C389.892 112.264 390.649 112.445 391.321 112.808C392.004 113.16 392.542 113.672 392.937 114.344C393.332 115.005 393.529 115.8 393.529 116.728C393.529 116.824 393.524 116.936 393.513 117.064C393.502 117.181 393.492 117.293 393.481 117.4H386.489V115.944H392.169L391.209 116.376C391.209 115.928 391.118 115.539 390.937 115.208C390.756 114.877 390.505 114.621 390.185 114.44C389.865 114.248 389.492 114.152 389.065 114.152C388.638 114.152 388.26 114.248 387.929 114.44C387.609 114.621 387.358 114.883 387.177 115.224C386.996 115.555 386.905 115.949 386.905 116.408V116.792C386.905 117.261 387.006 117.677 387.209 118.04C387.422 118.392 387.716 118.664 388.089 118.856C388.473 119.037 388.921 119.128 389.433 119.128C389.892 119.128 390.292 119.059 390.633 118.92C390.985 118.781 391.305 118.573 391.593 118.296L392.921 119.736C392.526 120.184 392.03 120.531 391.433 120.776C390.836 121.011 390.148 121.128 389.369 121.128ZM399.538 121.128C398.61 121.128 397.784 120.941 397.058 120.568C396.333 120.184 395.762 119.656 395.346 118.984C394.941 118.312 394.738 117.549 394.738 116.696C394.738 115.832 394.941 115.069 395.346 114.408C395.762 113.736 396.333 113.213 397.058 112.84C397.784 112.456 398.61 112.264 399.538 112.264C400.445 112.264 401.234 112.456 401.906 112.84C402.578 113.213 403.074 113.752 403.394 114.456L401.458 115.496C401.234 115.091 400.952 114.792 400.61 114.6C400.28 114.408 399.917 114.312 399.522 114.312C399.096 114.312 398.712 114.408 398.37 114.6C398.029 114.792 397.757 115.064 397.554 115.416C397.362 115.768 397.266 116.195 397.266 116.696C397.266 117.197 397.362 117.624 397.554 117.976C397.757 118.328 398.029 118.6 398.37 118.792C398.712 118.984 399.096 119.08 399.522 119.08C399.917 119.08 400.28 118.989 400.61 118.808C400.952 118.616 401.234 118.312 401.458 117.896L403.394 118.952C403.074 119.645 402.578 120.184 401.906 120.568C401.234 120.941 400.445 121.128 399.538 121.128ZM358.804 134L355.924 129.92L357.956 128.72L361.748 134H358.804ZM352.708 134V125.392H355.204V134H352.708ZM354.468 130.736V128.736H357.476V130.736H354.468ZM358.196 129.984L355.86 129.728L358.884 125.392H361.54L358.196 129.984ZM362.973 134V125.392H365.453V130.512L369.645 125.392H371.933V134H369.453V128.88L365.277 134H362.973ZM374.333 134V125.392H376.813V130.512L381.005 125.392H383.293V134H380.813V128.88L376.637 134H374.333ZM378.653 124.464C377.714 124.464 377.01 124.261 376.541 123.856C376.071 123.44 375.831 122.816 375.821 121.984H377.453C377.463 122.347 377.565 122.635 377.757 122.848C377.949 123.061 378.242 123.168 378.637 123.168C379.021 123.168 379.314 123.061 379.517 122.848C379.73 122.635 379.837 122.347 379.837 121.984H381.501C381.501 122.816 381.261 123.44 380.781 123.856C380.301 124.261 379.591 124.464 378.653 124.464ZM333.333 147V138.392H340.229V140.44H335.253L335.813 139.896V147H333.333ZM345.224 147.128C344.307 147.128 343.491 146.936 342.776 146.552C342.072 146.168 341.512 145.645 341.096 144.984C340.691 144.312 340.488 143.549 340.488 142.696C340.488 141.832 340.691 141.069 341.096 140.408C341.512 139.736 342.072 139.213 342.776 138.84C343.491 138.456 344.307 138.264 345.224 138.264C346.131 138.264 346.942 138.456 347.656 138.84C348.371 139.213 348.931 139.731 349.336 140.392C349.742 141.053 349.944 141.821 349.944 142.696C349.944 143.549 349.742 144.312 349.336 144.984C348.931 145.645 348.371 146.168 347.656 146.552C346.942 146.936 346.131 147.128 345.224 147.128ZM345.224 145.08C345.64 145.08 346.014 144.984 346.344 144.792C346.675 144.6 346.936 144.328 347.128 143.976C347.32 143.613 347.416 143.187 347.416 142.696C347.416 142.195 347.32 141.768 347.128 141.416C346.936 141.064 346.675 140.792 346.344 140.6C346.014 140.408 345.64 140.312 345.224 140.312C344.808 140.312 344.435 140.408 344.104 140.6C343.774 140.792 343.507 141.064 343.304 141.416C343.112 141.768 343.016 142.195 343.016 142.696C343.016 143.187 343.112 143.613 343.304 143.976C343.507 144.328 343.774 144.6 344.104 144.792C344.435 144.984 344.808 145.08 345.224 145.08ZM356.733 147.128C356.008 147.128 355.373 146.968 354.829 146.648C354.285 146.328 353.858 145.843 353.549 145.192C353.25 144.531 353.101 143.699 353.101 142.696C353.101 141.683 353.245 140.851 353.533 140.2C353.821 139.549 354.237 139.064 354.781 138.744C355.325 138.424 355.976 138.264 356.733 138.264C357.544 138.264 358.269 138.451 358.909 138.824C359.56 139.187 360.072 139.699 360.445 140.36C360.829 141.021 361.021 141.8 361.021 142.696C361.021 143.603 360.829 144.387 360.445 145.048C360.072 145.709 359.56 146.221 358.909 146.584C358.269 146.947 357.544 147.128 356.733 147.128ZM351.645 150.104V138.392H354.029V140.152L353.981 142.712L354.141 145.256V150.104H351.645ZM356.301 145.08C356.717 145.08 357.085 144.984 357.405 144.792C357.736 144.6 357.997 144.328 358.189 143.976C358.392 143.613 358.493 143.187 358.493 142.696C358.493 142.195 358.392 141.768 358.189 141.416C357.997 141.064 357.736 140.792 357.405 140.6C357.085 140.408 356.717 140.312 356.301 140.312C355.885 140.312 355.512 140.408 355.181 140.6C354.85 140.792 354.589 141.064 354.397 141.416C354.205 141.768 354.109 142.195 354.109 142.696C354.109 143.187 354.205 143.613 354.397 143.976C354.589 144.328 354.85 144.6 355.181 144.792C355.512 144.984 355.885 145.08 356.301 145.08ZM366.802 147.128C365.885 147.128 365.069 146.936 364.354 146.552C363.65 146.168 363.09 145.645 362.674 144.984C362.269 144.312 362.066 143.549 362.066 142.696C362.066 141.832 362.269 141.069 362.674 140.408C363.09 139.736 363.65 139.213 364.354 138.84C365.069 138.456 365.885 138.264 366.802 138.264C367.709 138.264 368.52 138.456 369.234 138.84C369.949 139.213 370.509 139.731 370.914 140.392C371.32 141.053 371.522 141.821 371.522 142.696C371.522 143.549 371.32 144.312 370.914 144.984C370.509 145.645 369.949 146.168 369.234 146.552C368.52 146.936 367.709 147.128 366.802 147.128ZM366.802 145.08C367.218 145.08 367.592 144.984 367.922 144.792C368.253 144.6 368.514 144.328 368.706 143.976C368.898 143.613 368.994 143.187 368.994 142.696C368.994 142.195 368.898 141.768 368.706 141.416C368.514 141.064 368.253 140.792 367.922 140.6C367.592 140.408 367.218 140.312 366.802 140.312C366.386 140.312 366.013 140.408 365.682 140.6C365.352 140.792 365.085 141.064 364.882 141.416C364.69 141.768 364.594 142.195 364.594 142.696C364.594 143.187 364.69 143.613 364.882 143.976C365.085 144.328 365.352 144.6 365.682 144.792C366.013 144.984 366.386 145.08 366.802 145.08ZM379.034 145.88V140.44H376.218L376.17 141.544C376.149 142.003 376.122 142.44 376.09 142.856C376.058 143.272 375.994 143.651 375.898 143.992C375.813 144.323 375.685 144.605 375.514 144.84C375.343 145.064 375.114 145.219 374.826 145.304L372.362 144.952C372.671 144.952 372.922 144.861 373.114 144.68C373.306 144.488 373.455 144.227 373.562 143.896C373.669 143.555 373.749 143.171 373.802 142.744C373.855 142.307 373.893 141.848 373.914 141.368L374.026 138.392H381.53V145.88H379.034ZM372.074 148.856V144.952H382.762V148.856H380.442V147H374.394V148.856H372.074ZM388.365 147.128C387.447 147.128 386.631 146.936 385.917 146.552C385.213 146.168 384.653 145.645 384.237 144.984C383.831 144.312 383.629 143.549 383.629 142.696C383.629 141.832 383.831 141.069 384.237 140.408C384.653 139.736 385.213 139.213 385.917 138.84C386.631 138.456 387.447 138.264 388.365 138.264C389.271 138.264 390.082 138.456 390.797 138.84C391.511 139.213 392.071 139.731 392.477 140.392C392.882 141.053 393.085 141.821 393.085 142.696C393.085 143.549 392.882 144.312 392.477 144.984C392.071 145.645 391.511 146.168 390.797 146.552C390.082 146.936 389.271 147.128 388.365 147.128ZM388.365 145.08C388.781 145.08 389.154 144.984 389.485 144.792C389.815 144.6 390.077 144.328 390.269 143.976C390.461 143.613 390.557 143.187 390.557 142.696C390.557 142.195 390.461 141.768 390.269 141.416C390.077 141.064 389.815 140.792 389.485 140.6C389.154 140.408 388.781 140.312 388.365 140.312C387.949 140.312 387.575 140.408 387.245 140.6C386.914 140.792 386.647 141.064 386.445 141.416C386.253 141.768 386.157 142.195 386.157 142.696C386.157 143.187 386.253 143.613 386.445 143.976C386.647 144.328 386.914 144.6 387.245 144.792C387.575 144.984 387.949 145.08 388.365 145.08ZM400.898 147L398.018 142.92L400.05 141.72L403.842 147H400.898ZM394.802 147V138.392H397.298V147H394.802ZM396.562 143.736V141.736H399.57V143.736H396.562ZM400.29 142.984L397.954 142.728L400.978 138.392H403.634L400.29 142.984Z" fill="black"/>
<path d="M233.042 82.204C232.215 82.204 231.393 82.0963 230.577 81.881C229.773 81.6543 229.081 81.337 228.503 80.929L229.591 78.821C230.045 79.1497 230.566 79.4103 231.155 79.603C231.756 79.7957 232.362 79.892 232.974 79.892C233.666 79.892 234.21 79.756 234.606 79.484C235.003 79.212 235.201 78.8323 235.201 78.345C235.201 78.039 235.122 77.767 234.963 77.529C234.805 77.291 234.521 77.1097 234.113 76.985C233.717 76.8603 233.156 76.798 232.43 76.798H229.387L229.999 70.1H237.258V72.31H230.985L232.413 71.052L231.988 75.829L230.56 74.571H233.076C234.255 74.571 235.201 74.7353 235.915 75.064C236.641 75.3813 237.168 75.8177 237.496 76.373C237.825 76.9283 237.989 77.5573 237.989 78.26C237.989 78.9627 237.814 79.6143 237.462 80.215C237.111 80.8043 236.567 81.286 235.83 81.66C235.105 82.0227 234.176 82.204 233.042 82.204ZM240.943 82V71.12L242.133 72.31H238.563V70.1H243.697V82H240.943ZM245.662 82V80.215L250.252 75.88C250.615 75.5513 250.881 75.2567 251.051 74.996C251.221 74.7353 251.334 74.4973 251.391 74.282C251.459 74.0667 251.493 73.8683 251.493 73.687C251.493 73.211 251.329 72.8483 251 72.599C250.683 72.3383 250.212 72.208 249.589 72.208C249.09 72.208 248.626 72.3043 248.195 72.497C247.776 72.6897 247.419 72.99 247.124 73.398L245.118 72.106C245.571 71.426 246.206 70.8877 247.022 70.491C247.838 70.0943 248.779 69.896 249.844 69.896C250.728 69.896 251.499 70.0433 252.156 70.338C252.825 70.6213 253.34 71.0237 253.703 71.545C254.077 72.0663 254.264 72.6897 254.264 73.415C254.264 73.8003 254.213 74.1857 254.111 74.571C254.02 74.945 253.828 75.3417 253.533 75.761C253.25 76.1803 252.83 76.6507 252.275 77.172L248.467 80.759L247.94 79.756H254.655V82H245.662ZM260.891 82.204C259.917 82.204 259.044 81.966 258.273 81.49C257.503 81.0027 256.896 80.3 256.454 79.382C256.012 78.464 255.791 77.3533 255.791 76.05C255.791 74.7467 256.012 73.636 256.454 72.718C256.896 71.8 257.503 71.103 258.273 70.627C259.044 70.1397 259.917 69.896 260.891 69.896C261.877 69.896 262.75 70.1397 263.509 70.627C264.28 71.103 264.886 71.8 265.328 72.718C265.77 73.636 265.991 74.7467 265.991 76.05C265.991 77.3533 265.77 78.464 265.328 79.382C264.886 80.3 264.28 81.0027 263.509 81.49C262.75 81.966 261.877 82.204 260.891 82.204ZM260.891 79.875C261.356 79.875 261.758 79.7447 262.098 79.484C262.45 79.2233 262.722 78.8097 262.914 78.243C263.118 77.6763 263.22 76.9453 263.22 76.05C263.22 75.1547 263.118 74.4237 262.914 73.857C262.722 73.2903 262.45 72.8767 262.098 72.616C261.758 72.3553 261.356 72.225 260.891 72.225C260.438 72.225 260.036 72.3553 259.684 72.616C259.344 72.8767 259.072 73.2903 258.868 73.857C258.676 74.4237 258.579 75.1547 258.579 76.05C258.579 76.9453 258.676 77.6763 258.868 78.243C259.072 78.8097 259.344 79.2233 259.684 79.484C260.036 79.7447 260.438 79.875 260.891 79.875Z" fill="black"/>
<path d="M561.609 291.204C560.782 291.204 559.96 291.096 559.144 290.881C558.339 290.654 557.648 290.337 557.07 289.929L558.158 287.821C558.611 288.15 559.133 288.41 559.722 288.603C560.323 288.796 560.929 288.892 561.541 288.892C562.232 288.892 562.776 288.756 563.173 288.484C563.57 288.212 563.768 287.832 563.768 287.345C563.768 287.039 563.689 286.767 563.53 286.529C563.371 286.291 563.088 286.11 562.68 285.985C562.283 285.86 561.722 285.798 560.997 285.798H557.954L558.566 279.1H565.825V281.31H559.552L560.98 280.052L560.555 284.829L559.127 283.571H561.643C562.822 283.571 563.768 283.735 564.482 284.064C565.207 284.381 565.734 284.818 566.063 285.373C566.392 285.928 566.556 286.557 566.556 287.26C566.556 287.963 566.38 288.614 566.029 289.215C565.678 289.804 565.134 290.286 564.397 290.66C563.672 291.023 562.742 291.204 561.609 291.204ZM569.509 291V280.12L570.699 281.31H567.129V279.1H572.263V291H569.509ZM579.43 291.204C578.456 291.204 577.583 290.966 576.812 290.49C576.042 290.003 575.435 289.3 574.993 288.382C574.551 287.464 574.33 286.353 574.33 285.05C574.33 283.747 574.551 282.636 574.993 281.718C575.435 280.8 576.042 280.103 576.812 279.627C577.583 279.14 578.456 278.896 579.43 278.896C580.416 278.896 581.289 279.14 582.048 279.627C582.819 280.103 583.425 280.8 583.867 281.718C584.309 282.636 584.53 283.747 584.53 285.05C584.53 286.353 584.309 287.464 583.867 288.382C583.425 289.3 582.819 290.003 582.048 290.49C581.289 290.966 580.416 291.204 579.43 291.204ZM579.43 288.875C579.895 288.875 580.297 288.745 580.637 288.484C580.989 288.223 581.261 287.81 581.453 287.243C581.657 286.676 581.759 285.945 581.759 285.05C581.759 284.155 581.657 283.424 581.453 282.857C581.261 282.29 580.989 281.877 580.637 281.616C580.297 281.355 579.895 281.225 579.43 281.225C578.977 281.225 578.575 281.355 578.223 281.616C577.883 281.877 577.611 282.29 577.407 282.857C577.215 283.424 577.118 284.155 577.118 285.05C577.118 285.945 577.215 286.676 577.407 287.243C577.611 287.81 577.883 288.223 578.223 288.484C578.575 288.745 578.977 288.875 579.43 288.875ZM589.562 291.204C588.734 291.204 587.913 291.096 587.097 290.881C586.281 290.654 585.589 290.337 585.023 289.929L586.094 287.821C586.547 288.15 587.074 288.41 587.675 288.603C588.275 288.796 588.882 288.892 589.494 288.892C590.185 288.892 590.729 288.756 591.126 288.484C591.522 288.212 591.721 287.838 591.721 287.362C591.721 286.909 591.545 286.552 591.194 286.291C590.842 286.03 590.276 285.9 589.494 285.9H588.236V284.081L591.551 280.324L591.857 281.31H585.618V279.1H593.948V280.885L590.65 284.642L589.256 283.843H590.055C591.517 283.843 592.622 284.172 593.37 284.829C594.118 285.486 594.492 286.331 594.492 287.362C594.492 288.031 594.316 288.66 593.965 289.249C593.613 289.827 593.075 290.297 592.35 290.66C591.624 291.023 590.695 291.204 589.562 291.204ZM569.339 304L574.643 292.1H577.363L582.684 304H579.794L575.442 293.494H576.53L572.161 304H569.339ZM571.991 301.45L572.722 299.359H578.842L579.59 301.45H571.991Z" fill="black"/>
<path d="M584.825 325.204C583.998 325.204 583.176 325.096 582.36 324.881C581.556 324.654 580.864 324.337 580.286 323.929L581.374 321.821C581.828 322.15 582.349 322.41 582.938 322.603C583.539 322.796 584.145 322.892 584.757 322.892C585.449 322.892 585.993 322.756 586.389 322.484C586.786 322.212 586.984 321.832 586.984 321.345C586.984 321.039 586.905 320.767 586.746 320.529C586.588 320.291 586.304 320.11 585.896 319.985C585.5 319.86 584.939 319.798 584.213 319.798H581.17L581.782 313.1H589.041V315.31H582.768L584.196 314.052L583.771 318.829L582.343 317.571H584.859C586.038 317.571 586.984 317.735 587.698 318.064C588.424 318.381 588.951 318.818 589.279 319.373C589.608 319.928 589.772 320.557 589.772 321.26C589.772 321.963 589.597 322.614 589.245 323.215C588.894 323.804 588.35 324.286 587.613 324.66C586.888 325.023 585.959 325.204 584.825 325.204ZM592.726 325V314.12L593.916 315.31H590.346V313.1H595.48V325H592.726ZM582.64 338V327.12L583.83 328.31H580.26V326.1H585.394V338H582.64ZM591.32 338.204C590.493 338.204 589.671 338.096 588.855 337.881C588.039 337.654 587.348 337.337 586.781 336.929L587.852 334.821C588.306 335.15 588.833 335.41 589.433 335.603C590.034 335.796 590.64 335.892 591.252 335.892C591.944 335.892 592.488 335.756 592.884 335.484C593.281 335.212 593.479 334.838 593.479 334.362C593.479 333.909 593.304 333.552 592.952 333.291C592.601 333.03 592.034 332.9 591.252 332.9H589.994V331.081L593.309 327.324L593.615 328.31H587.376V326.1H595.706V327.885L592.408 331.642L591.014 330.843H591.813C593.275 330.843 594.38 331.172 595.128 331.829C595.876 332.486 596.25 333.331 596.25 334.362C596.25 335.031 596.075 335.66 595.723 336.249C595.372 336.827 594.834 337.297 594.108 337.66C593.383 338.023 592.454 338.204 591.32 338.204Z" fill="black"/>
<path d="M565.983 234.204C565.156 234.204 564.334 234.096 563.518 233.881C562.713 233.654 562.022 233.337 561.444 232.929L562.532 230.821C562.985 231.15 563.507 231.41 564.096 231.603C564.697 231.796 565.303 231.892 565.915 231.892C566.606 231.892 567.15 231.756 567.547 231.484C567.944 231.212 568.142 230.832 568.142 230.345C568.142 230.039 568.063 229.767 567.904 229.529C567.745 229.291 567.462 229.11 567.054 228.985C566.657 228.86 566.096 228.798 565.371 228.798H562.328L562.94 222.1H570.199V224.31H563.926L565.354 223.052L564.929 227.829L563.501 226.571H566.017C567.196 226.571 568.142 226.735 568.856 227.064C569.581 227.381 570.108 227.818 570.437 228.373C570.766 228.928 570.93 229.557 570.93 230.26C570.93 230.963 570.754 231.614 570.403 232.215C570.052 232.804 569.508 233.286 568.771 233.66C568.046 234.023 567.116 234.204 565.983 234.204ZM573.883 234V223.12L575.073 224.31H571.503V222.1H576.637V234H573.883ZM580.541 234V223.12L581.731 224.31H578.161V222.1H583.295V234H580.541ZM585.26 234V232.215L589.85 227.88C590.212 227.551 590.479 227.257 590.649 226.996C590.819 226.735 590.932 226.497 590.989 226.282C591.057 226.067 591.091 225.868 591.091 225.687C591.091 225.211 590.926 224.848 590.598 224.599C590.28 224.338 589.81 224.208 589.187 224.208C588.688 224.208 588.223 224.304 587.793 224.497C587.373 224.69 587.016 224.99 586.722 225.398L584.716 224.106C585.169 223.426 585.804 222.888 586.62 222.491C587.436 222.094 588.376 221.896 589.442 221.896C590.326 221.896 591.096 222.043 591.754 222.338C592.422 222.621 592.938 223.024 593.301 223.545C593.675 224.066 593.862 224.69 593.862 225.415C593.862 225.8 593.811 226.186 593.709 226.571C593.618 226.945 593.425 227.342 593.131 227.761C592.847 228.18 592.428 228.651 591.873 229.172L588.065 232.759L587.538 231.756H594.253V234H585.26Z" fill="black"/>
<path d="M481.228 234.204C480.4 234.204 479.579 234.096 478.763 233.881C477.958 233.654 477.267 233.337 476.689 232.929L477.777 230.821C478.23 231.15 478.751 231.41 479.341 231.603C479.941 231.796 480.548 231.892 481.16 231.892C481.851 231.892 482.395 231.756 482.792 231.484C483.188 231.212 483.387 230.832 483.387 230.345C483.387 230.039 483.307 229.767 483.149 229.529C482.99 229.291 482.707 229.11 482.299 228.985C481.902 228.86 481.341 228.798 480.616 228.798H477.573L478.185 222.1H485.444V224.31H479.171L480.599 223.052L480.174 227.829L478.746 226.571H481.262C482.44 226.571 483.387 226.735 484.101 227.064C484.826 227.381 485.353 227.818 485.682 228.373C486.01 228.928 486.175 229.557 486.175 230.26C486.175 230.963 485.999 231.614 485.648 232.215C485.296 232.804 484.752 233.286 484.016 233.66C483.29 234.023 482.361 234.204 481.228 234.204ZM489.128 234V223.12L490.318 224.31H486.748V222.1H491.882V234H489.128ZM495.785 234V223.12L496.975 224.31H493.405V222.1H498.539V234H495.785ZM505.706 234.204C504.732 234.204 503.859 233.966 503.088 233.49C502.318 233.003 501.711 232.3 501.269 231.382C500.827 230.464 500.606 229.353 500.606 228.05C500.606 226.747 500.827 225.636 501.269 224.718C501.711 223.8 502.318 223.103 503.088 222.627C503.859 222.14 504.732 221.896 505.706 221.896C506.692 221.896 507.565 222.14 508.324 222.627C509.095 223.103 509.701 223.8 510.143 224.718C510.585 225.636 510.806 226.747 510.806 228.05C510.806 229.353 510.585 230.464 510.143 231.382C509.701 232.3 509.095 233.003 508.324 233.49C507.565 233.966 506.692 234.204 505.706 234.204ZM505.706 231.875C506.171 231.875 506.573 231.745 506.913 231.484C507.265 231.223 507.537 230.81 507.729 230.243C507.933 229.676 508.035 228.945 508.035 228.05C508.035 227.155 507.933 226.424 507.729 225.857C507.537 225.29 507.265 224.877 506.913 224.616C506.573 224.355 506.171 224.225 505.706 224.225C505.253 224.225 504.851 224.355 504.499 224.616C504.159 224.877 503.887 225.29 503.683 225.857C503.491 226.424 503.394 227.155 503.394 228.05C503.394 228.945 503.491 229.676 503.683 230.243C503.887 230.81 504.159 231.223 504.499 231.484C504.851 231.745 505.253 231.875 505.706 231.875Z" fill="black"/>
<path d="M452.325 225.204C451.498 225.204 450.676 225.096 449.86 224.881C449.056 224.654 448.364 224.337 447.786 223.929L448.874 221.821C449.328 222.15 449.849 222.41 450.438 222.603C451.039 222.796 451.645 222.892 452.257 222.892C452.949 222.892 453.493 222.756 453.889 222.484C454.286 222.212 454.484 221.832 454.484 221.345C454.484 221.039 454.405 220.767 454.246 220.529C454.088 220.291 453.804 220.11 453.396 219.985C453 219.86 452.439 219.798 451.713 219.798H448.67L449.282 213.1H456.541V215.31H450.268L451.696 214.052L451.271 218.829L449.843 217.571H452.359C453.538 217.571 454.484 217.735 455.198 218.064C455.924 218.381 456.451 218.818 456.779 219.373C457.108 219.928 457.272 220.557 457.272 221.26C457.272 221.963 457.097 222.614 456.745 223.215C456.394 223.804 455.85 224.286 455.113 224.66C454.388 225.023 453.459 225.204 452.325 225.204ZM460.226 225V214.12L461.416 215.31H457.846V213.1H462.98V225H460.226ZM450.582 238.204C449.607 238.204 448.735 237.966 447.964 237.49C447.193 237.003 446.587 236.3 446.145 235.382C445.703 234.464 445.482 233.353 445.482 232.05C445.482 230.747 445.703 229.636 446.145 228.718C446.587 227.8 447.193 227.103 447.964 226.627C448.735 226.14 449.607 225.896 450.582 225.896C451.568 225.896 452.441 226.14 453.2 226.627C453.971 227.103 454.577 227.8 455.019 228.718C455.461 229.636 455.682 230.747 455.682 232.05C455.682 233.353 455.461 234.464 455.019 235.382C454.577 236.3 453.971 237.003 453.2 237.49C452.441 237.966 451.568 238.204 450.582 238.204ZM450.582 235.875C451.047 235.875 451.449 235.745 451.789 235.484C452.14 235.223 452.412 234.81 452.605 234.243C452.809 233.676 452.911 232.945 452.911 232.05C452.911 231.155 452.809 230.424 452.605 229.857C452.412 229.29 452.14 228.877 451.789 228.616C451.449 228.355 451.047 228.225 450.582 228.225C450.129 228.225 449.726 228.355 449.375 228.616C449.035 228.877 448.763 229.29 448.559 229.857C448.366 230.424 448.27 231.155 448.27 232.05C448.27 232.945 448.366 233.676 448.559 234.243C448.763 234.81 449.035 235.223 449.375 235.484C449.726 235.745 450.129 235.875 450.582 235.875ZM461.202 225.896C462.301 225.896 463.248 226.123 464.041 226.576C464.834 227.029 465.446 227.692 465.877 228.565C466.308 229.426 466.523 230.503 466.523 231.795C466.523 233.166 466.262 234.328 465.741 235.28C465.231 236.232 464.523 236.957 463.616 237.456C462.709 237.955 461.655 238.204 460.454 238.204C459.831 238.204 459.23 238.136 458.652 238C458.074 237.864 457.575 237.66 457.156 237.388L458.176 235.365C458.505 235.592 458.856 235.75 459.23 235.841C459.604 235.92 459.995 235.96 460.403 235.96C461.423 235.96 462.233 235.648 462.834 235.025C463.446 234.402 463.752 233.478 463.752 232.254C463.752 232.05 463.746 231.823 463.735 231.574C463.724 231.325 463.695 231.075 463.65 230.826L464.398 231.54C464.205 231.982 463.933 232.356 463.582 232.662C463.231 232.957 462.823 233.183 462.358 233.342C461.893 233.489 461.372 233.563 460.794 233.563C460.035 233.563 459.343 233.41 458.72 233.104C458.108 232.798 457.615 232.367 457.241 231.812C456.878 231.257 456.697 230.605 456.697 229.857C456.697 229.041 456.895 228.338 457.292 227.749C457.7 227.16 458.244 226.706 458.924 226.389C459.615 226.06 460.375 225.896 461.202 225.896ZM461.372 227.953C460.975 227.953 460.63 228.027 460.335 228.174C460.04 228.31 459.808 228.514 459.638 228.786C459.468 229.047 459.383 229.358 459.383 229.721C459.383 230.265 459.564 230.701 459.927 231.03C460.301 231.347 460.794 231.506 461.406 231.506C461.803 231.506 462.154 231.432 462.46 231.285C462.777 231.126 463.021 230.911 463.191 230.639C463.361 230.367 463.446 230.061 463.446 229.721C463.446 229.381 463.361 229.081 463.191 228.82C463.032 228.548 462.8 228.338 462.494 228.191C462.188 228.032 461.814 227.953 461.372 227.953Z" fill="black"/>
<path d="M419.385 372.204C418.558 372.204 417.736 372.096 416.92 371.881C416.116 371.654 415.424 371.337 414.846 370.929L415.934 368.821C416.388 369.15 416.909 369.41 417.498 369.603C418.099 369.796 418.705 369.892 419.317 369.892C420.009 369.892 420.553 369.756 420.949 369.484C421.346 369.212 421.544 368.832 421.544 368.345C421.544 368.039 421.465 367.767 421.306 367.529C421.148 367.291 420.864 367.11 420.456 366.985C420.06 366.86 419.499 366.798 418.773 366.798H415.73L416.342 360.1H423.601V362.31H417.328L418.756 361.052L418.331 365.829L416.903 364.571H419.419C420.598 364.571 421.544 364.735 422.258 365.064C422.984 365.381 423.511 365.818 423.839 366.373C424.168 366.928 424.332 367.557 424.332 368.26C424.332 368.963 424.157 369.614 423.805 370.215C423.454 370.804 422.91 371.286 422.173 371.66C421.448 372.023 420.519 372.204 419.385 372.204ZM427.286 372V361.12L428.476 362.31H424.906V360.1H430.04V372H427.286ZM433.943 372V361.12L435.133 362.31H431.563V360.1H436.697V372H433.943ZM443.694 372.204C442.697 372.204 441.824 372.057 441.076 371.762C440.328 371.456 439.744 371.031 439.325 370.487C438.906 369.932 438.696 369.286 438.696 368.549C438.696 367.812 438.9 367.189 439.308 366.679C439.727 366.158 440.311 365.767 441.059 365.506C441.807 365.234 442.685 365.098 443.694 365.098C444.714 365.098 445.598 365.234 446.346 365.506C447.105 365.767 447.689 366.158 448.097 366.679C448.516 367.189 448.726 367.812 448.726 368.549C448.726 369.286 448.516 369.932 448.097 370.487C447.678 371.031 447.088 371.456 446.329 371.762C445.581 372.057 444.703 372.204 443.694 372.204ZM443.694 370.181C444.385 370.181 444.929 370.028 445.326 369.722C445.734 369.416 445.938 368.997 445.938 368.464C445.938 367.931 445.734 367.518 445.326 367.223C444.929 366.917 444.385 366.764 443.694 366.764C443.014 366.764 442.476 366.917 442.079 367.223C441.682 367.518 441.484 367.931 441.484 368.464C441.484 368.997 441.682 369.416 442.079 369.722C442.476 370.028 443.014 370.181 443.694 370.181ZM443.694 366.492C442.776 366.492 441.971 366.367 441.28 366.118C440.6 365.869 440.067 365.506 439.682 365.03C439.308 364.543 439.121 363.965 439.121 363.296C439.121 362.593 439.314 361.993 439.699 361.494C440.084 360.984 440.623 360.593 441.314 360.321C442.005 360.038 442.799 359.896 443.694 359.896C444.612 359.896 445.411 360.038 446.091 360.321C446.782 360.593 447.321 360.984 447.706 361.494C448.103 361.993 448.301 362.593 448.301 363.296C448.301 363.965 448.108 364.543 447.723 365.03C447.349 365.506 446.816 365.869 446.125 366.118C445.434 366.367 444.623 366.492 443.694 366.492ZM443.694 364.877C444.272 364.877 444.725 364.747 445.054 364.486C445.394 364.225 445.564 363.868 445.564 363.415C445.564 362.939 445.388 362.571 445.037 362.31C444.697 362.049 444.249 361.919 443.694 361.919C443.15 361.919 442.708 362.049 442.368 362.31C442.028 362.571 441.858 362.939 441.858 363.415C441.858 363.868 442.022 364.225 442.351 364.486C442.68 364.747 443.127 364.877 443.694 364.877Z" fill="black"/>
<path d="M483.654 363.204C482.826 363.204 482.005 363.096 481.189 362.881C480.384 362.654 479.693 362.337 479.115 361.929L480.203 359.821C480.656 360.15 481.177 360.41 481.767 360.603C482.367 360.796 482.974 360.892 483.586 360.892C484.277 360.892 484.821 360.756 485.218 360.484C485.614 360.212 485.813 359.832 485.813 359.345C485.813 359.039 485.733 358.767 485.575 358.529C485.416 358.291 485.133 358.11 484.725 357.985C484.328 357.86 483.767 357.798 483.042 357.798H479.999L480.611 351.1H487.87V353.31H481.597L483.025 352.052L482.6 356.829L481.172 355.571H483.688C484.866 355.571 485.813 355.735 486.527 356.064C487.252 356.381 487.779 356.818 488.108 357.373C488.436 357.928 488.601 358.557 488.601 359.26C488.601 359.963 488.425 360.614 488.074 361.215C487.722 361.804 487.178 362.286 486.442 362.66C485.716 363.023 484.787 363.204 483.654 363.204ZM483.17 376V365.12L484.36 366.31H480.79V364.1H485.924V376H483.17ZM483.17 389V378.12L484.36 379.31H480.79V377.1H485.924V389H483.17ZM481.296 402L486.09 391.154L486.804 392.344H480.395L481.619 391.052V394.282H479.171V390.1H488.708V391.885L484.288 402H481.296Z" fill="black"/>
<path d="M513.654 363.204C512.826 363.204 512.005 363.096 511.189 362.881C510.384 362.654 509.693 362.337 509.115 361.929L510.203 359.821C510.656 360.15 511.177 360.41 511.767 360.603C512.367 360.796 512.974 360.892 513.586 360.892C514.277 360.892 514.821 360.756 515.218 360.484C515.614 360.212 515.813 359.832 515.813 359.345C515.813 359.039 515.733 358.767 515.575 358.529C515.416 358.291 515.133 358.11 514.725 357.985C514.328 357.86 513.767 357.798 513.042 357.798H509.999L510.611 351.1H517.87V353.31H511.597L513.025 352.052L512.6 356.829L511.172 355.571H513.688C514.866 355.571 515.813 355.735 516.527 356.064C517.252 356.381 517.779 356.818 518.108 357.373C518.436 357.928 518.601 358.557 518.601 359.26C518.601 359.963 518.425 360.614 518.074 361.215C517.722 361.804 517.178 362.286 516.442 362.66C515.716 363.023 514.787 363.204 513.654 363.204ZM513.17 376V365.12L514.36 366.31H510.79V364.1H515.924V376H513.17ZM513.17 389V378.12L514.36 379.31H510.79V377.1H515.924V389H513.17ZM513.654 402.204C512.826 402.204 512.005 402.096 511.189 401.881C510.384 401.654 509.693 401.337 509.115 400.929L510.203 398.821C510.656 399.15 511.177 399.41 511.767 399.603C512.367 399.796 512.974 399.892 513.586 399.892C514.277 399.892 514.821 399.756 515.218 399.484C515.614 399.212 515.813 398.832 515.813 398.345C515.813 398.039 515.733 397.767 515.575 397.529C515.416 397.291 515.133 397.11 514.725 396.985C514.328 396.86 513.767 396.798 513.042 396.798H509.999L510.611 390.1H517.87V392.31H511.597L513.025 391.052L512.6 395.829L511.172 394.571H513.688C514.866 394.571 515.813 394.735 516.527 395.064C517.252 395.381 517.779 395.818 518.108 396.373C518.436 396.928 518.601 397.557 518.601 398.26C518.601 398.963 518.425 399.614 518.074 400.215C517.722 400.804 517.178 401.286 516.442 401.66C515.716 402.023 514.787 402.204 513.654 402.204Z" fill="black"/>
<path d="M90.6538 364.204C89.8265 364.204 89.0048 364.096 88.1888 363.881C87.3842 363.654 86.6928 363.337 86.1148 362.929L87.2028 360.821C87.6562 361.15 88.1775 361.41 88.7668 361.603C89.3675 361.796 89.9738 361.892 90.5858 361.892C91.2772 361.892 91.8212 361.756 92.2178 361.484C92.6145 361.212 92.8128 360.832 92.8128 360.345C92.8128 360.039 92.7335 359.767 92.5748 359.529C92.4162 359.291 92.1328 359.11 91.7248 358.985C91.3282 358.86 90.7672 358.798 90.0418 358.798H86.9988L87.6108 352.1H94.8698V354.31H88.5968L90.0248 353.052L89.5998 357.829L88.1718 356.571H90.6878C91.8665 356.571 92.8128 356.735 93.5268 357.064C94.2522 357.381 94.7792 357.818 95.1078 358.373C95.4365 358.928 95.6008 359.557 95.6008 360.26C95.6008 360.963 95.4252 361.614 95.0738 362.215C94.7225 362.804 94.1785 363.286 93.4418 363.66C92.7165 364.023 91.7872 364.204 90.6538 364.204ZM90.1704 377V366.12L91.3604 367.31H87.7904V365.1H92.9244V377H90.1704ZM91.0272 390.204C90.0525 390.204 89.1798 389.966 88.4092 389.49C87.6385 389.003 87.0322 388.3 86.5902 387.382C86.1482 386.464 85.9272 385.353 85.9272 384.05C85.9272 382.747 86.1482 381.636 86.5902 380.718C87.0322 379.8 87.6385 379.103 88.4092 378.627C89.1798 378.14 90.0525 377.896 91.0272 377.896C92.0132 377.896 92.8858 378.14 93.6452 378.627C94.4158 379.103 95.0222 379.8 95.4642 380.718C95.9062 381.636 96.1272 382.747 96.1272 384.05C96.1272 385.353 95.9062 386.464 95.4642 387.382C95.0222 388.3 94.4158 389.003 93.6452 389.49C92.8858 389.966 92.0132 390.204 91.0272 390.204ZM91.0272 387.875C91.4918 387.875 91.8942 387.745 92.2342 387.484C92.5855 387.223 92.8575 386.81 93.0502 386.243C93.2542 385.676 93.3562 384.945 93.3562 384.05C93.3562 383.155 93.2542 382.424 93.0502 381.857C92.8575 381.29 92.5855 380.877 92.2342 380.616C91.8942 380.355 91.4918 380.225 91.0272 380.225C90.5738 380.225 90.1715 380.355 89.8202 380.616C89.4802 380.877 89.2082 381.29 89.0042 381.857C88.8115 382.424 88.7152 383.155 88.7152 384.05C88.7152 384.945 88.8115 385.676 89.0042 386.243C89.2082 386.81 89.4802 387.223 89.8202 387.484C90.1715 387.745 90.5738 387.875 91.0272 387.875ZM86.5473 403V401.215L91.1373 396.88C91.5 396.551 91.7663 396.257 91.9363 395.996C92.1063 395.735 92.2197 395.497 92.2763 395.282C92.3443 395.067 92.3783 394.868 92.3783 394.687C92.3783 394.211 92.214 393.848 91.8853 393.599C91.568 393.338 91.0977 393.208 90.4743 393.208C89.9757 393.208 89.511 393.304 89.0803 393.497C88.661 393.69 88.304 393.99 88.0093 394.398L86.0033 393.106C86.4567 392.426 87.0913 391.888 87.9073 391.491C88.7233 391.094 89.664 390.896 90.7293 390.896C91.6133 390.896 92.384 391.043 93.0413 391.338C93.71 391.621 94.2257 392.024 94.5883 392.545C94.9623 393.066 95.1493 393.69 95.1493 394.415C95.1493 394.8 95.0983 395.186 94.9963 395.571C94.9057 395.945 94.713 396.342 94.4183 396.761C94.135 397.18 93.7157 397.651 93.1603 398.172L89.3523 401.759L88.8253 400.756H95.5403V403H86.5473Z" fill="black"/>
<path d="M22.1958 384.204C21.3685 384.204 20.5468 384.096 19.7308 383.881C18.9261 383.654 18.2348 383.337 17.6568 382.929L18.7448 380.821C19.1981 381.15 19.7195 381.41 20.3088 381.603C20.9095 381.796 21.5158 381.892 22.1278 381.892C22.8191 381.892 23.3632 381.756 23.7598 381.484C24.1565 381.212 24.3548 380.832 24.3548 380.345C24.3548 380.039 24.2755 379.767 24.1168 379.529C23.9582 379.291 23.6748 379.11 23.2668 378.985C22.8701 378.86 22.3091 378.798 21.5838 378.798H18.5408L19.1528 372.1H26.4118V374.31H20.1388L21.5668 373.052L21.1418 377.829L19.7138 376.571H22.2298C23.4085 376.571 24.3548 376.735 25.0688 377.064C25.7942 377.381 26.3212 377.818 26.6498 378.373C26.9785 378.928 27.1428 379.557 27.1428 380.26C27.1428 380.963 26.9671 381.614 26.6158 382.215C26.2645 382.804 25.7205 383.286 24.9838 383.66C24.2585 384.023 23.3291 384.204 22.1958 384.204ZM30.0962 384V373.12L31.2862 374.31H27.7162V372.1H32.8502V384H30.0962ZM40.0174 384.204C39.0427 384.204 38.1701 383.966 37.3994 383.49C36.6287 383.003 36.0224 382.3 35.5804 381.382C35.1384 380.464 34.9174 379.353 34.9174 378.05C34.9174 376.747 35.1384 375.636 35.5804 374.718C36.0224 373.8 36.6287 373.103 37.3994 372.627C38.1701 372.14 39.0427 371.896 40.0174 371.896C41.0034 371.896 41.8761 372.14 42.6354 372.627C43.4061 373.103 44.0124 373.8 44.4544 374.718C44.8964 375.636 45.1174 376.747 45.1174 378.05C45.1174 379.353 44.8964 380.464 44.4544 381.382C44.0124 382.3 43.4061 383.003 42.6354 383.49C41.8761 383.966 41.0034 384.204 40.0174 384.204ZM40.0174 381.875C40.4821 381.875 40.8844 381.745 41.2244 381.484C41.5757 381.223 41.8477 380.81 42.0404 380.243C42.2444 379.676 42.3464 378.945 42.3464 378.05C42.3464 377.155 42.2444 376.424 42.0404 375.857C41.8477 375.29 41.5757 374.877 41.2244 374.616C40.8844 374.355 40.4821 374.225 40.0174 374.225C39.5641 374.225 39.1617 374.355 38.8104 374.616C38.4704 374.877 38.1984 375.29 37.9944 375.857C37.8017 376.424 37.7054 377.155 37.7054 378.05C37.7054 378.945 37.8017 379.676 37.9944 380.243C38.1984 380.81 38.4704 381.223 38.8104 381.484C39.1617 381.745 39.5641 381.875 40.0174 381.875ZM46.3195 381.501V379.648L51.9295 372.1H54.8195L49.3285 379.648L47.9855 379.257H57.3525V381.501H46.3195ZM52.7285 384V381.501L52.8135 379.257V377.03H55.4145V384H52.7285Z" fill="black"/>
<path d="M31.6441 251.204C30.8167 251.204 29.9951 251.096 29.1791 250.881C28.3744 250.654 27.6831 250.337 27.1051 249.929L28.1931 247.821C28.6464 248.15 29.1677 248.41 29.7571 248.603C30.3577 248.796 30.9641 248.892 31.5761 248.892C32.2674 248.892 32.8114 248.756 33.2081 248.484C33.6047 248.212 33.8031 247.832 33.8031 247.345C33.8031 247.039 33.7237 246.767 33.5651 246.529C33.4064 246.291 33.1231 246.11 32.7151 245.985C32.3184 245.86 31.7574 245.798 31.0321 245.798H27.9891L28.6011 239.1H35.8601V241.31H29.5871L31.0151 240.052L30.5901 244.829L29.1621 243.571H31.6781C32.8567 243.571 33.8031 243.735 34.5171 244.064C35.2424 244.381 35.7694 244.818 36.0981 245.373C36.4267 245.928 36.5911 246.557 36.5911 247.26C36.5911 247.963 36.4154 248.614 36.0641 249.215C35.7127 249.804 35.1687 250.286 34.4321 250.66C33.7067 251.023 32.7774 251.204 31.6441 251.204ZM39.5444 251V240.12L40.7344 241.31H37.1644V239.1H42.2984V251H39.5444ZM49.4656 251.204C48.491 251.204 47.6183 250.966 46.8476 250.49C46.077 250.003 45.4706 249.3 45.0286 248.382C44.5866 247.464 44.3656 246.353 44.3656 245.05C44.3656 243.747 44.5866 242.636 45.0286 241.718C45.4706 240.8 46.077 240.103 46.8476 239.627C47.6183 239.14 48.491 238.896 49.4656 238.896C50.4516 238.896 51.3243 239.14 52.0836 239.627C52.8543 240.103 53.4606 240.8 53.9026 241.718C54.3446 242.636 54.5656 243.747 54.5656 245.05C54.5656 246.353 54.3446 247.464 53.9026 248.382C53.4606 249.3 52.8543 250.003 52.0836 250.49C51.3243 250.966 50.4516 251.204 49.4656 251.204ZM49.4656 248.875C49.9303 248.875 50.3326 248.745 50.6726 248.484C51.024 248.223 51.296 247.81 51.4886 247.243C51.6926 246.676 51.7946 245.945 51.7946 245.05C51.7946 244.155 51.6926 243.424 51.4886 242.857C51.296 242.29 51.024 241.877 50.6726 241.616C50.3326 241.355 49.9303 241.225 49.4656 241.225C49.0123 241.225 48.61 241.355 48.2586 241.616C47.9186 241.877 47.6466 242.29 47.4426 242.857C47.25 243.424 47.1536 244.155 47.1536 245.05C47.1536 245.945 47.25 246.676 47.4426 247.243C47.6466 247.81 47.9186 248.223 48.2586 248.484C48.61 248.745 49.0123 248.875 49.4656 248.875ZM61.2247 251.204C60.1367 251.204 59.1904 250.977 58.3857 250.524C57.5924 250.071 56.9804 249.408 56.5497 248.535C56.1191 247.662 55.9037 246.586 55.9037 245.305C55.9037 243.934 56.1587 242.772 56.6687 241.82C57.1901 240.868 57.9041 240.143 58.8107 239.644C59.7287 239.145 60.7827 238.896 61.9727 238.896C62.6074 238.896 63.2137 238.964 63.7917 239.1C64.3697 239.236 64.8684 239.44 65.2877 239.712L64.2677 241.735C63.9391 241.508 63.5877 241.355 63.2137 241.276C62.8397 241.185 62.4487 241.14 62.0407 241.14C61.0094 241.14 60.1934 241.452 59.5927 242.075C58.9921 242.698 58.6917 243.622 58.6917 244.846C58.6917 245.05 58.6917 245.277 58.6917 245.526C58.7031 245.775 58.7371 246.025 58.7937 246.274L58.0287 245.56C58.2441 245.118 58.5217 244.75 58.8617 244.455C59.2017 244.149 59.6041 243.922 60.0687 243.775C60.5447 243.616 61.0661 243.537 61.6327 243.537C62.4034 243.537 63.0947 243.69 63.7067 243.996C64.3187 244.302 64.8061 244.733 65.1687 245.288C65.5427 245.843 65.7297 246.495 65.7297 247.243C65.7297 248.048 65.5257 248.75 65.1177 249.351C64.7211 249.94 64.1827 250.399 63.5027 250.728C62.8341 251.045 62.0747 251.204 61.2247 251.204ZM61.0717 249.147C61.4571 249.147 61.7971 249.079 62.0917 248.943C62.3977 248.796 62.6357 248.586 62.8057 248.314C62.9757 248.042 63.0607 247.73 63.0607 247.379C63.0607 246.835 62.8737 246.404 62.4997 246.087C62.1371 245.758 61.6497 245.594 61.0377 245.594C60.6297 245.594 60.2727 245.673 59.9667 245.832C59.6607 245.979 59.4171 246.189 59.2357 246.461C59.0657 246.722 58.9807 247.028 58.9807 247.379C58.9807 247.719 59.0657 248.025 59.2357 248.297C59.4057 248.558 59.6437 248.767 59.9497 248.926C60.2557 249.073 60.6297 249.147 61.0717 249.147Z" fill="black"/>
<path d="M526.668 234.204C525.841 234.204 525.019 234.096 524.203 233.881C523.398 233.654 522.707 233.337 522.129 232.929L523.217 230.821C523.67 231.15 524.192 231.41 524.781 231.603C525.382 231.796 525.988 231.892 526.6 231.892C527.291 231.892 527.835 231.756 528.232 231.484C528.629 231.212 528.827 230.832 528.827 230.345C528.827 230.039 528.748 229.767 528.589 229.529C528.43 229.291 528.147 229.11 527.739 228.985C527.342 228.86 526.781 228.798 526.056 228.798H523.013L523.625 222.1H530.884V224.31H524.611L526.039 223.052L525.614 227.829L524.186 226.571H526.702C527.881 226.571 528.827 226.735 529.541 227.064C530.266 227.381 530.793 227.818 531.122 228.373C531.451 228.928 531.615 229.557 531.615 230.26C531.615 230.963 531.439 231.614 531.088 232.215C530.737 232.804 530.193 233.286 529.456 233.66C528.731 234.023 527.801 234.204 526.668 234.204ZM534.568 234V223.12L535.758 224.31H532.188V222.1H537.322V234H534.568ZM541.226 234V223.12L542.416 224.31H538.846V222.1H543.98V234H541.226ZM547.883 234V223.12L549.073 224.31H545.503V222.1H550.637V234H547.883Z" fill="black"/>
<path d="M256.483 29.204C255.656 29.204 254.834 29.0963 254.018 28.881C253.213 28.6543 252.522 28.337 251.944 27.929L253.032 25.821C253.485 26.1497 254.007 26.4103 254.596 26.603C255.197 26.7957 255.803 26.892 256.415 26.892C257.106 26.892 257.65 26.756 258.047 26.484C258.444 26.212 258.642 25.8323 258.642 25.345C258.642 25.039 258.563 24.767 258.404 24.529C258.245 24.291 257.962 24.1097 257.554 23.985C257.157 23.8603 256.596 23.798 255.871 23.798H252.828L253.44 17.1H260.699V19.31H254.426L255.854 18.052L255.429 22.829L254.001 21.571H256.517C257.696 21.571 258.642 21.7353 259.356 22.064C260.081 22.3813 260.608 22.8177 260.937 23.373C261.266 23.9283 261.43 24.5573 261.43 25.26C261.43 25.9627 261.254 26.6143 260.903 27.215C260.552 27.8043 260.008 28.286 259.271 28.66C258.546 29.0227 257.616 29.204 256.483 29.204ZM264.383 29V18.12L265.573 19.31H262.003V17.1H267.137V29H264.383ZM269.103 29V27.215L273.693 22.88C274.055 22.5513 274.322 22.2567 274.492 21.996C274.662 21.7353 274.775 21.4973 274.832 21.282C274.9 21.0667 274.934 20.8683 274.934 20.687C274.934 20.211 274.769 19.8483 274.441 19.599C274.123 19.3383 273.653 19.208 273.03 19.208C272.531 19.208 272.066 19.3043 271.636 19.497C271.216 19.6897 270.859 19.99 270.565 20.398L268.559 19.106C269.012 18.426 269.647 17.8877 270.463 17.491C271.279 17.0943 272.219 16.896 273.285 16.896C274.169 16.896 274.939 17.0433 275.597 17.338C276.265 17.6213 276.781 18.0237 277.144 18.545C277.518 19.0663 277.705 19.6897 277.705 20.415C277.705 20.8003 277.654 21.1857 277.552 21.571C277.461 21.945 277.268 22.3417 276.974 22.761C276.69 23.1803 276.271 23.6507 275.716 24.172L271.908 27.759L271.381 26.756H278.096V29H269.103ZM281.068 29V18.12L282.258 19.31H278.688V17.1H283.822V29H281.068Z" fill="black"/>
<path d="M551.136 377.204C550.309 377.204 549.487 377.096 548.671 376.881C547.867 376.654 547.175 376.337 546.597 375.929L547.685 373.821C548.139 374.15 548.66 374.41 549.249 374.603C549.85 374.796 550.456 374.892 551.068 374.892C551.76 374.892 552.304 374.756 552.7 374.484C553.097 374.212 553.295 373.832 553.295 373.345C553.295 373.039 553.216 372.767 553.057 372.529C552.899 372.291 552.615 372.11 552.207 371.985C551.811 371.86 551.25 371.798 550.524 371.798H547.481L548.093 365.1H555.352V367.31H549.079L550.507 366.052L550.082 370.829L548.654 369.571H551.17C552.349 369.571 553.295 369.735 554.009 370.064C554.735 370.381 555.262 370.818 555.59 371.373C555.919 371.928 556.083 372.557 556.083 373.26C556.083 373.963 555.908 374.614 555.556 375.215C555.205 375.804 554.661 376.286 553.924 376.66C553.199 377.023 552.27 377.204 551.136 377.204ZM559.037 377V366.12L560.227 367.31H556.657V365.1H561.791V377H559.037ZM565.694 377V366.12L566.884 367.31H563.314V365.1H568.448V377H565.694ZM570.379 374.501V372.648L575.989 365.1H578.879L573.388 372.648L572.045 372.257H581.412V374.501H570.379ZM576.788 377V374.501L576.873 372.257V370.03H579.474V377H576.788Z" fill="black"/>
<defs>
<clipPath id="clip0_156_191">
<rect width="201" height="88" fill="white" transform="matrix(-1 0 0 1 597 252)"/>
</clipPath>
</defs>
</svg>
