<svg width="929" height="492" viewBox="0 0 929 492" fill="none" xmlns="http://www.w3.org/2000/svg">
<g clip-path="url(#clip0_80_4)">
<rect width="223" height="102" transform="translate(284 388)" fill="white"/>
<mask id="path-1-inside-1_80_4" fill="white">
<path d="M283 444H350V490H283V444Z"/>
</mask>
<path d="M283 444H350V490H283V444Z" fill="#66CCFF"/>
<path d="M283 444V443H282V444H283ZM350 444H351V443H350V444ZM350 490V491H351V490H350ZM283 490H282V491H283V490ZM283 445H350V443H283V445ZM349 444V490H351V444H349ZM350 489H283V491H350V489ZM284 490V444H282V490H284Z" fill="black" mask="url(#path-1-inside-1_80_4)"/>
<mask id="path-3-inside-2_80_4" fill="white">
<path d="M348 444H452V490H348V444Z"/>
</mask>
<path d="M348 444H452V490H348V444Z" fill="#66CCFF"/>
<path d="M348 444V443H347V444H348ZM452 444H453V443H452V444ZM452 490V491H453V490H452ZM348 490H347V491H348V490ZM348 445H452V443H348V445ZM451 444V490H453V444H451ZM452 489H348V491H452V489ZM349 490V444H347V490H349Z" fill="black" mask="url(#path-3-inside-2_80_4)"/>
<mask id="path-5-inside-3_80_4" fill="white">
<path d="M480 444H509V490H480V444Z"/>
</mask>
<path d="M480 444H509V490H480V444Z" fill="#66CCFF"/>
<path d="M480 444V443H479V444H480ZM509 444H510V443H509V444ZM509 490V491H510V490H509ZM480 490H479V491H480V490ZM480 445H509V443H480V445ZM508 444V490H510V444H508ZM509 489H480V491H509V489ZM481 490V444H479V490H481Z" fill="black" mask="url(#path-5-inside-3_80_4)"/>
<mask id="path-7-inside-4_80_4" fill="white">
<path d="M449 444H481V490H449V444Z"/>
</mask>
<path d="M449 444H481V490H449V444Z" fill="#66CCFF"/>
<path d="M449 444V443H448V444H449ZM481 444H482V443H481V444ZM481 490V491H482V490H481ZM449 490H448V491H449V490ZM449 445H481V443H449V445ZM480 444V490H482V444H480ZM481 489H449V491H481V489ZM450 490V444H448V490H450Z" fill="black" mask="url(#path-7-inside-4_80_4)"/>
</g>
<rect width="401" height="19" transform="translate(506 407)" fill="white"/>
<rect width="285" height="19" transform="translate(2 407)" fill="white"/>
<rect width="19" height="206" transform="translate(60 201)" fill="white"/>
<rect width="9" height="44" transform="translate(434 344)" fill="white"/>
<rect width="9" height="44" transform="translate(346 344)" fill="white"/>
<rect width="23" height="31" transform="translate(79 376)" fill="white"/>
<rect width="58" height="48" transform="translate(684 359)" fill="white"/>
<rect width="19" height="77" transform="translate(723 282)" fill="white"/>
<rect width="42" height="23" transform="matrix(-1 0 0 1 914 407)" fill="white"/>
<rect x="79.5" y="336.5" width="23" height="39" fill="#99FF99"/>
<rect x="79.5" y="336.5" width="23" height="39" stroke="black"/>
<rect x="683.5" y="282.5" width="39" height="77" fill="#99FF99"/>
<rect x="683.5" y="282.5" width="39" height="77" stroke="black"/>
<rect x="89.5" y="2.5" width="47" height="34" fill="#99FF99"/>
<rect x="89.5" y="2.5" width="47" height="34" stroke="black"/>
<rect x="893.5" y="343.5" width="33.0885" height="63" fill="#99FF99"/>
<rect x="893.5" y="343.5" width="33.0885" height="63" stroke="black"/>
<rect x="283.5" y="343.5" width="62" height="44" fill="#99FF99"/>
<rect x="283.5" y="343.5" width="62" height="44" stroke="black"/>
<rect x="742.5" y="369.5" width="54" height="37" fill="#66CCFF"/>
<rect x="742.5" y="369.5" width="54" height="37" stroke="black"/>
<rect x="742.5" y="282.5" width="54" height="87" fill="#66CCFF"/>
<rect x="742.5" y="282.5" width="54" height="87" stroke="black"/>
<rect x="326.5" y="110.5" width="139" height="233" fill="#66CCFF" stroke="black"/>
<rect x="507.5" y="426.5" width="62" height="63" fill="#66CCFF"/>
<rect x="507.5" y="426.5" width="62" height="63" stroke="black"/>
<rect x="569.5" y="426.5" width="59" height="63" fill="#66CCFF"/>
<rect x="569.5" y="426.5" width="59" height="63" stroke="black"/>
<rect x="507.5" y="343.5" width="62" height="63" fill="#66CCFF"/>
<rect x="507.5" y="343.5" width="62" height="63" stroke="black"/>
<rect x="654.5" y="426.5" width="59" height="63" fill="#66CCFF"/>
<rect x="654.5" y="426.5" width="59" height="63" stroke="black"/>
<rect x="713.5" y="426.5" width="30" height="63" fill="#66CCFF"/>
<rect x="713.5" y="426.5" width="30" height="63" stroke="black"/>
<rect x="743.5" y="426.5" width="51" height="63" fill="#66CCFF"/>
<rect x="743.5" y="426.5" width="51" height="63" stroke="black"/>
<rect x="794.5" y="426.5" width="45" height="63" fill="#66CCFF"/>
<rect x="794.5" y="426.5" width="45" height="63" stroke="black"/>
<rect x="628.5" y="426.5" width="26" height="63" fill="#66CCFF"/>
<rect x="628.5" y="426.5" width="26" height="63" stroke="black"/>
<rect x="254.5" y="343.5" width="29" height="63" fill="#66CCFF"/>
<rect x="254.5" y="343.5" width="29" height="63" stroke="black"/>
<rect x="198.5" y="426.5" width="27" height="63" fill="#66CCFF"/>
<rect x="198.5" y="426.5" width="27" height="63" stroke="black"/>
<mask id="path-27-inside-5_80_4" fill="white">
<path d="M171 426H199V490H171V426Z"/>
</mask>
<path d="M171 426H199V490H171V426Z" fill="#66CCFF"/>
<path d="M171 426V425H170V426H171ZM199 426H200V425H199V426ZM199 490V491H200V490H199ZM171 490H170V491H171V490ZM171 427H199V425H171V427ZM198 426V490H200V426H198ZM199 489H171V491H199V489ZM172 490V426H170V490H172Z" fill="black" mask="url(#path-27-inside-5_80_4)"/>
<mask id="path-29-inside-6_80_4" fill="white">
<path d="M225 426H284V490H225V426Z"/>
</mask>
<path d="M225 426H284V490H225V426Z" fill="#66CCFF"/>
<path d="M225 426V425H224V426H225ZM284 426H285V425H284V426ZM284 490V491H285V490H284ZM225 490H224V491H225V490ZM225 427H284V425H225V427ZM283 426V490H285V426H283ZM284 489H225V491H284V489ZM226 490V426H224V490H226Z" fill="black" mask="url(#path-29-inside-6_80_4)"/>
<rect x="839.5" y="426.5" width="32" height="34" fill="#66CCFF"/>
<rect x="839.5" y="426.5" width="32" height="34" stroke="black"/>
<rect x="102.5" y="343.5" width="152" height="63" fill="#66CCFF"/>
<rect x="102.5" y="343.5" width="152" height="63" stroke="black"/>
<rect x="831.5" y="343.5" width="62" height="63" fill="#66CCFF"/>
<rect x="831.5" y="343.5" width="62" height="63" stroke="black"/>
<mask id="path-34-inside-7_80_4" fill="white">
<path d="M796 343H832V407H796V343Z"/>
</mask>
<path d="M796 343H832V407H796V343Z" fill="#66CCFF"/>
<path d="M796 343V342H795V343H796ZM832 343H833V342H832V343ZM832 407V408H833V407H832ZM796 407H795V408H796V407ZM796 344H832V342H796V344ZM831 343V407H833V343H831ZM832 406H796V408H832V406ZM797 407V343H795V407H797Z" fill="black" mask="url(#path-34-inside-7_80_4)"/>
<g clip-path="url(#clip1_80_4)">
<rect x="649" y="374" width="35" height="33" fill="#66CCFF"/>
<line x1="668" y1="375.5" x2="688" y2="375.5" stroke="black"/>
<line x1="650" y1="375.5" x2="660" y2="375.5" stroke="black"/>
</g>
<rect x="649.5" y="374.5" width="34" height="32" stroke="black"/>
<mask id="path-40-inside-8_80_4" fill="white">
<path d="M649 343H684V375H649V343Z"/>
</mask>
<path d="M649 343H684V375H649V343Z" fill="#66CCFF"/>
<path d="M649 343V342H648V343H649ZM684 343H685V342H684V343ZM649 344H684V342H649V344ZM683 343V375H685V343H683ZM650 375V343H648V375H650Z" fill="black" mask="url(#path-40-inside-8_80_4)"/>
<rect x="628.5" y="343.5" width="21" height="63" fill="#66CCFF"/>
<rect x="628.5" y="343.5" width="21" height="63" stroke="black"/>
<g clip-path="url(#clip2_80_4)">
<rect x="871" y="429" width="56" height="53" fill="#66CCFF"/>
<mask id="path-45-inside-9_80_4" fill="white">
<path d="M893 428H927V454H893V428Z"/>
</mask>
<path d="M893 428H927V454H893V428Z" fill="#66CCFF"/>
<path d="M893 428V427H892V428H893ZM927 428H928V427H927V428ZM893 429H927V427H893V429ZM926 428V454H928V428H926ZM894 454V428H892V454H894Z" fill="black" mask="url(#path-45-inside-9_80_4)"/>
<line x1="894" y1="453.5" x2="899" y2="453.5" stroke="black"/>
<line x1="906" y1="453.5" x2="927" y2="453.5" stroke="black"/>
</g>
<rect x="871.5" y="429.5" width="55" height="52" stroke="black"/>
<mask id="path-49-inside-10_80_4" fill="white">
<path d="M2 426H23V490H2V426Z"/>
</mask>
<path d="M2 426H23V490H2V426Z" fill="#66CCFF"/>
<path d="M23 490V491H24V490H23ZM2 490H1V491H2V490ZM22 426V490H24V426H22ZM23 489H2V491H23V489ZM3 490V426H1V490H3Z" fill="black" mask="url(#path-49-inside-10_80_4)"/>
<line x1="22" y1="426.5" x2="15" y2="426.5" stroke="black"/>
<line x1="9" y1="426.5" x2="2" y2="426.5" stroke="black"/>
<rect x="103.5" y="426.5" width="68" height="63" fill="#66CCFF"/>
<rect x="103.5" y="426.5" width="68" height="63" stroke="black"/>
<rect x="355.5" y="343.5" width="39" height="44" fill="#66CCFF"/>
<rect x="355.5" y="343.5" width="39" height="44" stroke="black"/>
<rect x="79.5" y="229.5" width="57" height="30" fill="#66CCFF"/>
<rect x="79.5" y="229.5" width="57" height="30" stroke="black"/>
<rect x="59.5" y="36.5" width="77" height="164" fill="#66CCFF"/>
<rect x="59.5" y="36.5" width="77" height="164" stroke="black"/>
<rect x="79.5" y="259.5" width="57" height="30" fill="#66CCFF"/>
<rect x="79.5" y="259.5" width="57" height="30" stroke="black"/>
<rect x="2.5" y="289.5" width="57" height="29" fill="#66CCFF"/>
<rect x="2.5" y="289.5" width="57" height="29" stroke="black"/>
<mask id="path-59-inside-11_80_4" fill="white">
<path d="M2 37H60V202H2V37Z"/>
</mask>
<path d="M2 37H60V202H2V37Z" fill="#66CCFF"/>
<path d="M60 202V203H61V202H60ZM2 202H1V203H2V202ZM59 37V202H61V37H59ZM60 201H2V203H60V201ZM3 202V37H1V202H3Z" fill="black" mask="url(#path-59-inside-11_80_4)"/>
<mask id="path-61-inside-12_80_4" fill="white">
<path d="M2 2H60V37H2V2Z"/>
</mask>
<path d="M2 2H60V37H2V2Z" fill="#66CCFF"/>
<path d="M2 2V1H1V2H2ZM60 2H61V1H60V2ZM2 3H60V1H2V3ZM59 2V37H61V2H59ZM3 37V2H1V37H3Z" fill="black" mask="url(#path-61-inside-12_80_4)"/>
<line x1="59" y1="36.5" x2="35" y2="36.5" stroke="black"/>
<line x1="29" y1="36.5" x2="3" y2="36.5" stroke="black"/>
<mask id="path-65-inside-13_80_4" fill="white">
<path d="M2 2H60V37H2V2Z"/>
</mask>
<path d="M2 2H60V37H2V2Z" fill="#66CCFF"/>
<path d="M2 2V1H1V2H2ZM60 2H61V1H60V2ZM2 3H60V1H2V3ZM59 2V37H61V2H59ZM3 37V2H1V37H3Z" fill="black" mask="url(#path-65-inside-13_80_4)"/>
<line x1="59" y1="36.5" x2="35" y2="36.5" stroke="black"/>
<line x1="29" y1="36.5" x2="3" y2="36.5" stroke="black"/>
<rect x="569.5" y="343.5" width="59" height="63" fill="#66CCFF"/>
<rect x="569.5" y="343.5" width="59" height="63" stroke="black"/>
<rect x="79.5" y="289.5" width="23" height="47" fill="#66CCFF"/>
<rect x="79.5" y="289.5" width="23" height="47" stroke="black"/>
<rect x="2.5" y="347.5" width="57" height="56" fill="#66CCFF"/>
<rect x="2.5" y="347.5" width="57" height="56" stroke="black"/>
<mask id="path-72-inside-14_80_4" fill="white">
<path d="M443 343H508V388H443V343Z"/>
</mask>
<path d="M443 343H508V388H443V343Z" fill="#66CCFF"/>
<path d="M443 343V342H442V343H443ZM508 343H509V342H508V343ZM508 388V389H509V388H508ZM443 388H442V389H443V388ZM443 344H508V342H443V344ZM507 343V388H509V343H507ZM508 387H443V389H508V387ZM444 388V343H442V388H444Z" fill="black" mask="url(#path-72-inside-14_80_4)"/>
<mask id="path-74-inside-15_80_4" fill="white">
<path d="M394 343H434V388H394V343Z"/>
</mask>
<path d="M394 343H434V388H394V343Z" fill="#66CCFF"/>
<path d="M394 343V342H393V343H394ZM434 343H435V342H434V343ZM434 388V389H435V388H434ZM394 388H393V389H394V388ZM394 344H434V342H394V344ZM433 343V388H435V343H433ZM434 387H394V389H434V387ZM395 388V343H393V388H395Z" fill="black" mask="url(#path-74-inside-15_80_4)"/>
<rect x="22.5" y="426.5" width="81" height="63" fill="#66CCFF"/>
<rect x="22.5" y="426.5" width="81" height="63" stroke="black"/>
<rect x="2.5" y="230.5" width="57" height="29" fill="#66CCFF"/>
<rect x="2.5" y="230.5" width="57" height="29" stroke="black"/>
<mask id="path-78-inside-16_80_4" fill="white">
<path d="M2 201H34V231H2V201Z"/>
</mask>
<path d="M2 201H34V231H2V201Z" fill="#66CCFF"/>
<path d="M2 201V200H1V201H2ZM34 201H35V200H34V201ZM2 202H34V200H2V202ZM33 201V231H35V201H33ZM3 231V201H1V231H3Z" fill="black" mask="url(#path-78-inside-16_80_4)"/>
<rect x="79.5" y="200.5" width="57" height="29" fill="#66CCFF"/>
<rect x="79.5" y="200.5" width="57" height="29" stroke="black"/>
<mask id="path-81-inside-17_80_4" fill="white">
<path d="M33 201H60V231H33V201Z"/>
</mask>
<path d="M33 201H60V231H33V201Z" fill="#66CCFF"/>
<path d="M60 231V232H61V231H60ZM33 231H32V232H33V231ZM59 201V231H61V201H59ZM60 230H33V232H60V230ZM34 231V201H32V231H34Z" fill="black" mask="url(#path-81-inside-17_80_4)"/>
<rect x="2.5" y="318.5" width="57" height="29" fill="#66CCFF"/>
<rect x="2.5" y="318.5" width="57" height="29" stroke="black"/>
<rect x="2.5" y="259.5" width="57" height="30" fill="#66CCFF"/>
<rect x="2.5" y="259.5" width="57" height="30" stroke="black"/>
<g clip-path="url(#clip3_80_4)">
<mask id="path-85-inside-18_80_4" fill="white">
<path d="M59 2H90V37H59V2Z"/>
</mask>
<path d="M59 2H90V37H59V2Z" fill="#66CCFF"/>
<line x1="59.5" y1="36" x2="59.5" y2="22" stroke="black"/>
<line x1="59.5" y1="15" x2="59.5" y2="1" stroke="black"/>
<line x1="89.5" y1="15" x2="89.5" y2="1" stroke="black"/>
<line x1="89.5" y1="36" x2="89.5" y2="22" stroke="black"/>
</g>
<path d="M59 3H90V1H59V3ZM90 36H59V38H90V36Z" fill="black" mask="url(#path-85-inside-18_80_4)"/>
<mask id="path-91-inside-19_80_4" fill="white">
<path d="M839 460H872V490H839V460Z"/>
</mask>
<path d="M839 460H872V490H839V460Z" fill="#66CCFF"/>
<path d="M872 490V491H873V490H872ZM839 490H838V491H839V490ZM871 460V490H873V460H871ZM872 489H839V491H872V489ZM840 490V460H838V490H840Z" fill="black" mask="url(#path-91-inside-19_80_4)"/>
<line x1="839" y1="460.5" x2="855" y2="460.5" stroke="black"/>
<line x1="871" y1="460.5" x2="862" y2="460.5" stroke="black"/>
<mask id="path-95-inside-20_80_4" fill="white">
<path d="M2 403H60V426H2V403Z"/>
</mask>
<path d="M2 403H60V426H2V403Z" fill="#66CCFF"/>
<path d="M2 403V402H1V403H2ZM60 403H61V402H60V403ZM2 404H60V402H2V404ZM59 403V426H61V403H59ZM3 426V403H1V426H3Z" fill="black" mask="url(#path-95-inside-20_80_4)"/>
<rect x="433.5" y="343.5" width="10" height="9" fill="#FF9999"/>
<rect x="433.5" y="343.5" width="10" height="9" stroke="black"/>
<rect x="345.5" y="343.5" width="10" height="9" fill="#FF9999"/>
<rect x="345.5" y="343.5" width="10" height="9" stroke="black"/>
<rect x="259.5" y="399.5" width="19" height="9" fill="#FF9999"/>
<rect x="259.5" y="399.5" width="19" height="9" stroke="black"/>
<rect x="53.5" y="381.5" width="9" height="19" fill="#FF9999"/>
<rect x="53.5" y="381.5" width="9" height="19" stroke="black"/>
<rect x="185.5" y="399.5" width="19" height="9" fill="#FF9999"/>
<rect x="185.5" y="399.5" width="19" height="9" stroke="black"/>
<rect x="574.5" y="424.5" width="19" height="9" fill="#FF9999"/>
<rect x="574.5" y="424.5" width="19" height="9" stroke="black"/>
<rect x="869.5" y="399.5" width="19" height="9" fill="#FF9999"/>
<rect x="869.5" y="399.5" width="19" height="9" stroke="black"/>
<rect x="740.5" y="379.5" width="9" height="19" fill="#FF9999"/>
<rect x="740.5" y="379.5" width="9" height="19" stroke="black"/>
<rect x="53.5" y="323.5" width="9" height="19" fill="#FF9999"/>
<rect x="53.5" y="323.5" width="9" height="19" stroke="black"/>
<rect x="53.5" y="294.5" width="9" height="19" fill="#FF9999"/>
<rect x="53.5" y="294.5" width="9" height="19" stroke="black"/>
<rect x="53.5" y="264.5" width="9" height="19" fill="#FF9999"/>
<rect x="53.5" y="264.5" width="9" height="19" stroke="black"/>
<rect x="804.5" y="399.5" width="19" height="9" fill="#FF9999"/>
<rect x="804.5" y="399.5" width="19" height="9" stroke="black"/>
<rect x="718.5" y="424.656" width="19" height="9" fill="#FF9999"/>
<rect x="718.5" y="424.656" width="19" height="9" stroke="black"/>
<rect x="632.5" y="424.656" width="19" height="9" fill="#FF9999"/>
<rect x="632.5" y="424.656" width="19" height="9" stroke="black"/>
<rect x="688.5" y="424.656" width="19" height="9" fill="#FF9999"/>
<rect x="688.5" y="424.656" width="19" height="9" stroke="black"/>
<rect x="545.5" y="424.5" width="19" height="9" fill="#FF9999"/>
<rect x="545.5" y="424.5" width="19" height="9" stroke="black"/>
<rect x="517.5" y="399.5" width="19" height="9" fill="#FF9999"/>
<rect x="517.5" y="399.5" width="19" height="9" stroke="black"/>
<rect x="751.5" y="424.656" width="19" height="9" fill="#FF9999"/>
<rect x="751.5" y="424.656" width="19" height="9" stroke="black"/>
<rect x="812.5" y="424.656" width="19" height="9" fill="#FF9999"/>
<rect x="812.5" y="424.656" width="19" height="9" stroke="black"/>
<rect x="230.5" y="399.5" width="19" height="9" fill="#FF9999"/>
<rect x="230.5" y="399.5" width="19" height="9" stroke="black"/>
<rect x="605.5" y="399.5" width="19" height="9" fill="#FF9999"/>
<rect x="605.5" y="399.5" width="19" height="9" stroke="black"/>
<rect x="629.5" y="399.5" width="19" height="9" fill="#FF9999"/>
<rect x="629.5" y="399.5" width="19" height="9" stroke="black"/>
<rect x="146.5" y="399.5" width="19" height="9" fill="#FF9999"/>
<rect x="146.5" y="399.5" width="19" height="9" stroke="black"/>
<rect x="107.5" y="399.5" width="19" height="9" fill="#FF9999"/>
<rect x="107.5" y="399.5" width="19" height="9" stroke="black"/>
<rect x="175.5" y="424.5" width="19" height="9" fill="#FF9999"/>
<rect x="175.5" y="424.5" width="19" height="9" stroke="black"/>
<rect x="202.5" y="424.656" width="19" height="9" fill="#FF9999"/>
<rect x="202.5" y="424.656" width="19" height="9" stroke="black"/>
<rect x="231.5" y="424.5" width="19" height="9" fill="#FF9999"/>
<rect x="231.5" y="424.5" width="19" height="9" stroke="black"/>
<rect x="325.5" y="442.5" width="19" height="9" fill="#FF9999"/>
<rect x="325.5" y="442.5" width="19" height="9" stroke="black"/>
<rect x="484.5" y="442.5" width="19" height="9" fill="#FF9999"/>
<rect x="484.5" y="442.5" width="19" height="9" stroke="black"/>
<rect x="107.5" y="424.5" width="19" height="9" fill="#FF9999"/>
<rect x="107.5" y="424.5" width="19" height="9" stroke="black"/>
<rect x="658.5" y="399.656" width="19" height="9" fill="#FF9999"/>
<rect x="658.5" y="399.656" width="19" height="9" stroke="black"/>
<rect x="845.5" y="424.656" width="19" height="9" fill="#FF9999"/>
<rect x="845.5" y="424.656" width="19" height="9" stroke="black"/>
<rect x="894.5" y="427.5" width="19" height="9" fill="#FF9999"/>
<rect x="894.5" y="427.5" width="19" height="9" stroke="black"/>
<rect x="53.5" y="234.5" width="9" height="19" fill="#FF9999"/>
<rect x="53.5" y="234.5" width="9" height="19" stroke="black"/>
<rect x="76.5" y="234.5" width="9" height="19" fill="#FF9999"/>
<rect x="76.5" y="234.5" width="9" height="19" stroke="black"/>
<rect x="77.5" y="295.5" width="9" height="19" fill="#FF9999"/>
<rect x="77.5" y="295.5" width="9" height="19" stroke="black"/>
<rect x="76.5" y="265.5" width="9" height="19" fill="#FF9999"/>
<rect x="76.5" y="265.5" width="9" height="19" stroke="black"/>
<rect x="76.5" y="206.5" width="9" height="19" fill="#FF9999"/>
<rect x="76.5" y="206.5" width="9" height="19" stroke="black"/>
<rect x="359.5" y="442.5" width="19" height="9" fill="#FF9999"/>
<rect x="359.5" y="442.5" width="19" height="9" stroke="black"/>
<rect x="53.5" y="206.5" width="9" height="19" fill="#FF9999"/>
<rect x="53.5" y="206.5" width="9" height="19" stroke="black"/>
<rect x="53.5" y="352.5" width="9" height="19" fill="#FF9999"/>
<rect x="53.5" y="352.5" width="9" height="19" stroke="black"/>
<rect x="59.5" y="193.5" width="19" height="9" fill="#FF9999"/>
<rect x="59.5" y="193.5" width="19" height="9" stroke="black"/>
<rect x="66.5" y="424.5" width="19" height="9" fill="#FF9999"/>
<rect x="66.5" y="424.5" width="19" height="9" stroke="black"/>
<rect x="53.5" y="405.5" width="9" height="19" fill="#FF9999"/>
<rect x="53.5" y="405.5" width="9" height="19" stroke="black"/>
<rect width="136" height="3" transform="translate(3)" fill="black"/>
<rect width="290" height="3" transform="matrix(0 -1 1 0 136 293)" fill="black"/>
<rect width="34" height="3" transform="translate(102 290)" fill="black"/>
<rect width="216" height="3" transform="translate(468 341)" fill="black"/>
<rect width="61" height="3" transform="matrix(0 -1 1 0 796 344)" fill="black"/>
<rect width="130" height="3" transform="translate(799 341)" fill="black"/>
<rect width="65" height="3" transform="matrix(0 -1 1 0 926 409)" fill="black"/>
<rect width="61" height="3" transform="matrix(0 -1 1 0 681 341)" fill="black"/>
<rect width="51" height="3" transform="matrix(0 -1 1 0 102 344)" fill="black"/>
<rect width="222" height="3" transform="translate(105 341)" fill="black"/>
<rect width="233" height="3" transform="matrix(0 -1 1 0 324 341)" fill="black"/>
<rect width="141" height="3" transform="translate(327 108)" fill="black"/>
<rect width="234" height="3" transform="matrix(0 -1 1 0 465 344)" fill="black"/>
<rect width="12" height="3" transform="translate(914 406)" fill="black"/>
<rect width="21" height="3" transform="matrix(0 -1 1 0 914 430)" fill="black"/>
<rect width="9" height="3" transform="translate(917 427)" fill="black"/>
<rect width="57" height="3" transform="matrix(0 -1 1 0 926 484)" fill="black"/>
<rect width="55" height="3" transform="translate(871 481)" fill="black"/>
<rect width="5" height="3" transform="matrix(0 -1 1 0 871 489)" fill="black"/>
<rect width="871" height="3" transform="translate(3 489)" fill="black"/>
<rect width="492" height="3" transform="matrix(0 -1 1 0 0 492)" fill="black"/>
<rect width="115" height="3" transform="translate(684 280)" fill="black"/>
<defs>
<clipPath id="clip0_80_4">
<rect width="223" height="102" fill="white" transform="translate(284 388)"/>
</clipPath>
<clipPath id="clip1_80_4">
<rect x="649" y="374" width="35" height="33" fill="white"/>
</clipPath>
<clipPath id="clip2_80_4">
<rect x="871" y="429" width="56" height="53" fill="white"/>
</clipPath>
<clipPath id="clip3_80_4">
<path d="M59 2H90V37H59V2Z" fill="white"/>
</clipPath>
</defs>
</svg>
