<svg width="1668" height="1002" viewBox="0 0 1668 1002" fill="none" xmlns="http://www.w3.org/2000/svg">
<rect width="307" height="30" transform="translate(485 670)" fill="white"/>
<rect width="50" height="30" transform="translate(822 591)" fill="white"/>
<rect width="30" height="300" transform="translate(792 400)" fill="white"/>
<rect width="30" height="140" transform="translate(792 700)" fill="white"/>
<rect width="100" height="480" transform="translate(550 248)" fill="#7F2C8C"/>
<path d="M618.6 616.843C618.6 620.41 617.833 623.643 616.3 626.543C614.733 629.41 612.583 631.676 609.85 633.343C607.083 634.976 603.967 635.793 600.5 635.793C597.033 635.793 593.933 634.976 591.2 633.343C588.433 631.676 586.283 629.41 584.75 626.543C583.183 623.643 582.4 620.393 582.4 616.793C582.4 613.76 582.933 611.026 584 608.593C585.067 606.126 586.6 604.06 588.6 602.393L593.4 607.593C590.667 609.96 589.3 612.893 589.3 616.393C589.3 618.56 589.783 620.493 590.75 622.193C591.683 623.893 593 625.226 594.7 626.193C596.4 627.126 598.333 627.593 600.5 627.593C602.667 627.593 604.6 627.126 606.3 626.193C608 625.226 609.333 623.893 610.3 622.193C611.233 620.493 611.7 618.56 611.7 616.393C611.7 612.893 610.317 609.96 607.55 607.593L612.35 602.393C614.383 604.06 615.933 606.126 617 608.593C618.067 611.06 618.6 613.81 618.6 616.843ZM583 565.214H618V573.264H589.6V589.064H618V597.114H583V565.214ZM618.6 539.838C618.6 543.471 617.817 546.754 616.25 549.688C614.683 552.588 612.533 554.871 609.8 556.538C607.033 558.171 603.933 558.988 600.5 558.988C597.067 558.988 593.983 558.171 591.25 556.538C588.483 554.871 586.317 552.588 584.75 549.688C583.183 546.754 582.4 543.471 582.4 539.838C582.4 536.204 583.183 532.938 584.75 530.038C586.317 527.138 588.483 524.854 591.25 523.188C593.983 521.521 597.067 520.688 600.5 520.688C603.933 520.688 607.033 521.521 609.8 523.188C612.533 524.854 614.683 527.138 616.25 530.038C617.817 532.938 618.6 536.204 618.6 539.838ZM611.7 539.838C611.7 537.771 611.233 535.904 610.3 534.238C609.333 532.571 608 531.271 606.3 530.338C604.6 529.371 602.667 528.888 600.5 528.888C598.333 528.888 596.4 529.371 594.7 530.338C593 531.271 591.683 532.571 590.75 534.238C589.783 535.904 589.3 537.771 589.3 539.838C589.3 541.904 589.783 543.771 590.75 545.438C591.683 547.104 593 548.421 594.7 549.388C596.4 550.321 598.333 550.788 600.5 550.788C602.667 550.788 604.6 550.321 606.3 549.388C608 548.421 609.333 547.104 610.3 545.438C611.233 543.771 611.7 541.904 611.7 539.838ZM583 499.298C583 496.198 583.517 493.515 584.55 491.248C585.583 488.948 587.05 487.181 588.95 485.948C590.85 484.715 593.1 484.098 595.7 484.098C598.267 484.098 600.517 484.715 602.45 485.948C604.35 487.181 605.817 488.948 606.85 491.248C607.85 493.515 608.35 496.198 608.35 499.298V506.348H618V514.448H583V499.298ZM601.75 499.748C601.75 497.315 601.233 495.465 600.2 494.198C599.133 492.931 597.633 492.298 595.7 492.298C593.733 492.298 592.233 492.931 591.2 494.198C590.133 495.465 589.6 497.315 589.6 499.748V506.348H601.75V499.748ZM589.6 452.981V464.181H618V472.181H589.6V483.331H583V452.981H589.6ZM599.75 427.995C600.45 425.962 601.55 424.378 603.05 423.245C604.517 422.078 606.233 421.495 608.2 421.495C610.333 421.495 612.183 422.195 613.75 423.595C615.317 424.995 616.517 426.895 617.35 429.295C618.183 431.662 618.6 434.262 618.6 437.095C618.6 439.495 618.3 441.895 617.7 444.295C617.1 446.662 616.183 448.912 614.95 451.045L609.15 448.545C610.083 447.012 610.8 445.328 611.3 443.495C611.767 441.628 612 439.812 612 438.045C612 435.645 611.567 433.662 610.7 432.095C609.833 430.495 608.617 429.695 607.05 429.695C605.75 429.695 604.767 430.245 604.1 431.345C603.433 432.412 603.1 433.878 603.1 435.745V444.295H597V436.345C597 434.712 596.667 433.445 596 432.545C595.333 431.612 594.417 431.145 593.25 431.145C591.883 431.145 590.817 431.812 590.05 433.145C589.283 434.445 588.9 436.128 588.9 438.195C588.9 439.728 589.117 441.312 589.55 442.945C589.95 444.578 590.567 446.128 591.4 447.595L585.1 450.045C583.2 446.345 582.25 442.345 582.25 438.045C582.25 435.312 582.65 432.795 583.45 430.495C584.25 428.195 585.417 426.362 586.95 424.995C588.483 423.628 590.267 422.945 592.3 422.945C593.967 422.945 595.45 423.395 596.75 424.295C598.05 425.195 599.05 426.428 599.75 427.995ZM610.5 391.383V407.633L618 410.733V419.033L583 403.433V395.433L618 379.783V388.283L610.5 391.383ZM604.35 393.933L590.95 399.483L604.35 405.033V393.933ZM583 343.648H618V351.648H589.6V363.648L596.9 363.898C601.867 364.065 605.9 364.465 609 365.098C612.067 365.732 614.433 366.798 616.1 368.298C617.733 369.765 618.55 371.832 618.55 374.498C618.55 375.598 618.367 376.932 618 378.498L611.15 377.998C611.283 377.565 611.35 377.082 611.35 376.548C611.35 374.615 610.217 373.265 607.95 372.498C605.65 371.732 602.067 371.248 597.2 371.048L583 370.548V343.648Z" fill="white"/>
<rect width="245" height="190" transform="translate(240 569)" fill="#B93030"/>
<path d="M280.881 635H297.831V638.87H285.711V643.19H291.531C294.071 643.19 296.001 643.72 297.321 644.78C298.661 645.84 299.331 647.37 299.331 649.37C299.331 651.47 298.591 653.1 297.111 654.26C295.631 655.42 293.541 656 290.841 656H280.881V635ZM290.571 652.4C291.811 652.4 292.761 652.16 293.421 651.68C294.081 651.18 294.411 650.46 294.411 649.52C294.411 647.68 293.131 646.76 290.571 646.76H285.711V652.4H290.571ZM321.252 635V656H316.452V638.96H309.252L309.102 643.34C309.002 646.32 308.762 648.74 308.382 650.6C308.002 652.44 307.362 653.86 306.462 654.86C305.582 655.84 304.342 656.33 302.742 656.33C302.082 656.33 301.282 656.22 300.342 656L300.642 651.89C300.902 651.97 301.192 652.01 301.512 652.01C302.672 652.01 303.482 651.33 303.942 649.97C304.402 648.59 304.692 646.44 304.812 643.52L305.112 635H321.252ZM336.517 656.36C334.337 656.36 332.367 655.89 330.607 654.95C328.867 654.01 327.497 652.72 326.497 651.08C325.517 649.42 325.027 647.56 325.027 645.5C325.027 643.44 325.517 641.59 326.497 639.95C327.497 638.29 328.867 636.99 330.607 636.05C332.367 635.11 334.337 634.64 336.517 634.64C338.697 634.64 340.657 635.11 342.397 636.05C344.137 636.99 345.507 638.29 346.507 639.95C347.507 641.59 348.007 643.44 348.007 645.5C348.007 647.56 347.507 649.42 346.507 651.08C345.507 652.72 344.137 654.01 342.397 654.95C340.657 655.89 338.697 656.36 336.517 656.36ZM336.517 652.22C337.757 652.22 338.877 651.94 339.877 651.38C340.877 650.8 341.657 650 342.217 648.98C342.797 647.96 343.087 646.8 343.087 645.5C343.087 644.2 342.797 643.04 342.217 642.02C341.657 641 340.877 640.21 339.877 639.65C338.877 639.07 337.757 638.78 336.517 638.78C335.277 638.78 334.157 639.07 333.157 639.65C332.157 640.21 331.367 641 330.787 642.02C330.227 643.04 329.947 644.2 329.947 645.5C329.947 646.8 330.227 647.96 330.787 648.98C331.367 650 332.157 650.8 333.157 651.38C334.157 651.94 335.277 652.22 336.517 652.22ZM368.561 635V656H363.761V648.44C361.941 649.1 360.251 649.43 358.691 649.43C355.871 649.43 353.711 648.76 352.211 647.42C350.711 646.06 349.961 644.11 349.961 641.57V635H354.761V641.03C354.761 642.47 355.141 643.56 355.901 644.3C356.681 645.02 357.801 645.38 359.261 645.38C360.861 645.38 362.361 645.07 363.761 644.45V635H368.561ZM393.042 635V656H388.182V647.39H378.642V656H373.782V635H378.642V643.28H388.182V635H393.042ZM408.473 641.9C411.033 641.9 412.993 642.47 414.353 643.61C415.733 644.75 416.423 646.44 416.423 648.68C416.423 651.06 415.663 652.88 414.143 654.14C412.643 655.38 410.523 656 407.783 656H398.303V635H403.133V641.9H408.473ZM407.513 652.4C408.773 652.4 409.753 652.09 410.453 651.47C411.173 650.85 411.533 649.95 411.533 648.77C411.533 646.59 410.193 645.5 407.513 645.5H403.133V652.4H407.513ZM419.093 635H423.923V656H419.093V635ZM445.413 652.1V656H429.153V635H445.023V638.9H433.983V643.46H443.733V647.24H433.983V652.1H445.413ZM275.268 688.5H265.518L263.658 693H258.678L268.038 672H272.838L282.228 693H277.128L275.268 688.5ZM273.738 684.81L270.408 676.77L267.078 684.81H273.738ZM302.888 672L293.948 688.62C293.088 690.22 292.048 691.43 290.828 692.25C289.628 693.07 288.318 693.48 286.898 693.48C285.798 693.48 284.658 693.24 283.478 692.76L284.648 689.07C285.488 689.33 286.188 689.46 286.748 689.46C287.348 689.46 287.888 689.32 288.368 689.04C288.848 688.74 289.288 688.28 289.688 687.66L289.868 687.42L281.588 672H286.778L292.358 683.28L298.118 672H302.888ZM326.506 689.04V697.35H322.006V693H307.186V697.35H302.686L302.716 689.04H303.556C304.816 689 305.706 688.08 306.226 686.28C306.746 684.48 307.066 681.91 307.186 678.57L307.426 672H323.566V689.04H326.506ZM311.476 679.02C311.376 681.52 311.166 683.62 310.846 685.32C310.526 687 310.036 688.24 309.376 689.04H318.766V675.96H311.566L311.476 679.02ZM329.778 672H334.608V685.68L344.628 672H349.188V693H344.388V679.35L334.368 693H329.778V672ZM370.467 675.96H363.747V693H358.947V675.96H352.257V672H370.467V675.96ZM383.245 693.36C381.065 693.36 379.095 692.89 377.335 691.95C375.595 691.01 374.225 689.72 373.225 688.08C372.245 686.42 371.755 684.56 371.755 682.5C371.755 680.44 372.245 678.59 373.225 676.95C374.225 675.29 375.595 673.99 377.335 673.05C379.095 672.11 381.065 671.64 383.245 671.64C385.425 671.64 387.385 672.11 389.125 673.05C390.865 673.99 392.235 675.29 393.235 676.95C394.235 678.59 394.735 680.44 394.735 682.5C394.735 684.56 394.235 686.42 393.235 688.08C392.235 689.72 390.865 691.01 389.125 691.95C387.385 692.89 385.425 693.36 383.245 693.36ZM383.245 689.22C384.485 689.22 385.605 688.94 386.605 688.38C387.605 687.8 388.385 687 388.945 685.98C389.525 684.96 389.815 683.8 389.815 682.5C389.815 681.2 389.525 680.04 388.945 679.02C388.385 678 387.605 677.21 386.605 676.65C385.605 676.07 384.485 675.78 383.245 675.78C382.005 675.78 380.885 676.07 379.885 676.65C378.885 677.21 378.095 678 377.515 679.02C376.955 680.04 376.675 681.2 376.675 682.5C376.675 683.8 376.955 684.96 377.515 685.98C378.095 687 378.885 687.8 379.885 688.38C380.885 688.94 382.005 689.22 383.245 689.22ZM407.569 672C409.429 672 411.039 672.31 412.399 672.93C413.779 673.55 414.839 674.43 415.579 675.57C416.319 676.71 416.689 678.06 416.689 679.62C416.689 681.16 416.319 682.51 415.579 683.67C414.839 684.81 413.779 685.69 412.399 686.31C411.039 686.91 409.429 687.21 407.569 687.21H403.339V693H398.479V672H407.569ZM407.299 683.25C408.759 683.25 409.869 682.94 410.629 682.32C411.389 681.68 411.769 680.78 411.769 679.62C411.769 678.44 411.389 677.54 410.629 676.92C409.869 676.28 408.759 675.96 407.299 675.96H403.339V683.25H407.299ZM419.895 672H424.725V685.68L434.745 672H439.305V693H434.505V679.35L424.485 693H419.895V672ZM444.534 672H449.364V685.68L459.384 672H463.944V693H459.144V679.35L449.124 693H444.534V672Z" fill="white"/>
<rect width="90" height="40" transform="translate(150 664)" fill="#B93030"/>
<rect width="95" height="480" transform="translate(55 456)" fill="#B93030"/>
<rect width="80" height="90" transform="translate(150 846)" fill="#B93030"/>
<rect width="30" height="20" transform="translate(200 936)" fill="#B93030"/>
<path d="M25 909.5V870.5H131.35V954.5H75.35L25 909.5Z" fill="#B93030"/>
<path d="M25 909.5V870.5H131.35V954.5H75.35L25 909.5Z" fill="#B93030"/>
<path d="M25 909.5V870.5H131.35V954.5H75.35L25 909.5Z" fill="#B93030"/>
<rect width="30" height="26" transform="translate(25 456)" fill="#B93030"/>
<rect width="125" height="125" transform="translate(111 407)" fill="#B93030"/>
<path d="M105.9 839.074V844.674H120V852.724H85V844.674H99.15V838.874L85 829.674V821.124L101.9 832.574L120 820.774V829.974L105.9 839.074ZM120.6 800.426C120.6 804.059 119.817 807.342 118.25 810.276C116.683 813.176 114.533 815.459 111.8 817.126C109.033 818.759 105.933 819.576 102.5 819.576C99.0667 819.576 95.9833 818.759 93.25 817.126C90.4833 815.459 88.3167 813.176 86.75 810.276C85.1833 807.342 84.4 804.059 84.4 800.426C84.4 796.792 85.1833 793.526 86.75 790.626C88.3167 787.726 90.4833 785.442 93.25 783.776C95.9833 782.109 99.0667 781.276 102.5 781.276C105.933 781.276 109.033 782.109 111.8 783.776C114.533 785.442 116.683 787.726 118.25 790.626C119.817 793.526 120.6 796.792 120.6 800.426ZM113.7 800.426C113.7 798.359 113.233 796.492 112.3 794.826C111.333 793.159 110 791.859 108.3 790.926C106.6 789.959 104.667 789.476 102.5 789.476C100.333 789.476 98.4 789.959 96.7 790.926C95 791.859 93.6833 793.159 92.75 794.826C91.7833 796.492 91.3 798.359 91.3 800.426C91.3 802.492 91.7833 804.359 92.75 806.026C93.6833 807.692 95 809.009 96.7 809.976C98.4 810.909 100.333 811.376 102.5 811.376C104.667 811.376 106.6 810.909 108.3 809.976C110 809.009 111.333 807.692 112.3 806.026C113.233 804.359 113.7 802.492 113.7 800.426ZM85 759.886C85 756.786 85.5167 754.102 86.55 751.836C87.5833 749.536 89.05 747.769 90.95 746.536C92.85 745.302 95.1 744.686 97.7 744.686C100.267 744.686 102.517 745.302 104.45 746.536C106.35 747.769 107.817 749.536 108.85 751.836C109.85 754.102 110.35 756.786 110.35 759.886V766.936H120V775.036H85V759.886ZM103.75 760.336C103.75 757.902 103.233 756.052 102.2 754.786C101.133 753.519 99.6333 752.886 97.7 752.886C95.7333 752.886 94.2333 753.519 93.2 754.786C92.1333 756.052 91.6 757.902 91.6 760.336V766.936H103.75V760.336ZM85 707.442H120V715.492H91.6V731.292H120V739.342H85L85 707.442ZM85 667.166L112.7 682.066C115.367 683.5 117.383 685.233 118.75 687.266C120.117 689.266 120.8 691.45 120.8 693.816C120.8 695.65 120.4 697.55 119.6 699.516L113.45 697.566C113.883 696.166 114.1 695 114.1 694.066C114.1 693.066 113.867 692.166 113.4 691.366C112.9 690.566 112.133 689.833 111.1 689.166L110.7 688.866L85 702.666V694.016L103.8 684.716L85 675.116V667.166ZM120.6 647.206C120.6 650.773 119.833 654.006 118.3 656.906C116.733 659.773 114.583 662.04 111.85 663.706C109.083 665.34 105.967 666.156 102.5 666.156C99.0333 666.156 95.9333 665.34 93.2 663.706C90.4333 662.04 88.2833 659.773 86.75 656.906C85.1833 654.006 84.4 650.756 84.4 647.156C84.4 644.123 84.9333 641.39 86 638.956C87.0667 636.49 88.6 634.423 90.6 632.756L95.4 637.956C92.6667 640.323 91.3 643.256 91.3 646.756C91.3 648.923 91.7833 650.856 92.75 652.556C93.6833 654.256 95 655.59 96.7 656.556C98.4 657.49 100.333 657.956 102.5 657.956C104.667 657.956 106.6 657.49 108.3 656.556C110 655.59 111.333 654.256 112.3 652.556C113.233 650.856 113.7 648.923 113.7 646.756C113.7 643.256 112.317 640.323 109.55 637.956L114.35 632.756C116.383 634.423 117.933 636.49 119 638.956C120.067 641.423 120.6 644.173 120.6 647.206ZM101.1 568.317C101.1 570.117 100.75 571.734 100.05 573.167C99.35 574.6 98.3667 575.734 97.1 576.567C95.8333 577.367 94.4167 577.767 92.85 577.767C91.2833 577.767 89.8667 577.367 88.6 576.567C87.3333 575.734 86.35 574.6 85.65 573.167C84.95 571.734 84.6 570.117 84.6 568.317C84.6 566.517 84.95 564.9 85.65 563.467C86.35 562.034 87.3333 560.917 88.6 560.117C89.8667 559.284 91.2833 558.867 92.85 558.867C94.4167 558.867 95.8333 559.284 97.1 560.117C98.3667 560.917 99.35 562.034 100.05 563.467C100.75 564.9 101.1 566.517 101.1 568.317ZM85 589.417V581.417H120V588.067L98.75 605.517H120V613.517H85V606.817L106.25 589.417H85ZM88.75 568.317C88.75 569.55 89.1167 570.567 89.85 571.367C90.5833 572.134 91.5833 572.517 92.85 572.517C94.0833 572.517 95.0833 572.134 95.85 571.367C96.5833 570.567 96.95 569.55 96.95 568.317C96.95 567.084 96.5833 566.084 95.85 565.317C95.0833 564.55 94.0833 564.167 92.85 564.167C91.5833 564.167 90.5833 564.55 89.85 565.317C89.1167 566.084 88.75 567.084 88.75 568.317ZM104.4 576.767L104.4 559.867H109.15L109.15 576.767H104.4ZM85 540.156H120V548.256H91.5V555.256H85V540.156Z" fill="white"/>
<rect width="100" height="100" transform="translate(971 463)" fill="#7A9B65"/>
<rect width="100" height="100" transform="translate(971 650)" fill="#7A9B65"/>
<rect width="143" height="87" transform="translate(872 563)" fill="#7A9B65"/>
<path d="M863.754 792.9H858.154V807H850.104V772H858.154V786.15H863.954L873.154 772H881.704L870.254 788.9L882.054 807H872.854L863.754 792.9ZM902.402 807.6C898.768 807.6 895.485 806.817 892.552 805.25C889.652 803.683 887.368 801.533 885.702 798.8C884.068 796.033 883.252 792.933 883.252 789.5C883.252 786.067 884.068 782.983 885.702 780.25C887.368 777.483 889.652 775.317 892.552 773.75C895.485 772.183 898.768 771.4 902.402 771.4C906.035 771.4 909.302 772.183 912.202 773.75C915.102 775.317 917.385 777.483 919.052 780.25C920.718 782.983 921.552 786.067 921.552 789.5C921.552 792.933 920.718 796.033 919.052 798.8C917.385 801.533 915.102 803.683 912.202 805.25C909.302 806.817 906.035 807.6 902.402 807.6ZM902.402 800.7C904.468 800.7 906.335 800.233 908.002 799.3C909.668 798.333 910.968 797 911.902 795.3C912.868 793.6 913.352 791.667 913.352 789.5C913.352 787.333 912.868 785.4 911.902 783.7C910.968 782 909.668 780.683 908.002 779.75C906.335 778.783 904.468 778.3 902.402 778.3C900.335 778.3 898.468 778.783 896.802 779.75C895.135 780.683 893.818 782 892.852 783.7C891.918 785.4 891.452 787.333 891.452 789.5C891.452 791.667 891.918 793.6 892.852 795.3C893.818 797 895.135 798.333 896.802 799.3C898.468 800.233 900.335 800.7 902.402 800.7ZM942.941 772C946.041 772 948.725 772.517 950.991 773.55C953.291 774.583 955.058 776.05 956.291 777.95C957.525 779.85 958.141 782.1 958.141 784.7C958.141 787.267 957.525 789.517 956.291 791.45C955.058 793.35 953.291 794.817 950.991 795.85C948.725 796.85 946.041 797.35 942.941 797.35H935.891V807H927.791V772H942.941ZM942.491 790.75C944.925 790.75 946.775 790.233 948.041 789.2C949.308 788.133 949.941 786.633 949.941 784.7C949.941 782.733 949.308 781.233 948.041 780.2C946.775 779.133 944.925 778.6 942.491 778.6H935.891V790.75H942.491ZM995.385 772V807H987.335V778.6H971.535V807H963.485V772H995.385ZM1035.66 772L1020.76 799.7C1019.33 802.367 1017.59 804.383 1015.56 805.75C1013.56 807.117 1011.38 807.8 1009.01 807.8C1007.18 807.8 1005.28 807.4 1003.31 806.6L1005.26 800.45C1006.66 800.883 1007.83 801.1 1008.76 801.1C1009.76 801.1 1010.66 800.867 1011.46 800.4C1012.26 799.9 1012.99 799.133 1013.66 798.1L1013.96 797.7L1000.16 772H1008.81L1018.11 790.8L1027.71 772H1035.66ZM1055.62 807.6C1052.05 807.6 1048.82 806.833 1045.92 805.3C1043.05 803.733 1040.79 801.583 1039.12 798.85C1037.49 796.083 1036.67 792.967 1036.67 789.5C1036.67 786.033 1037.49 782.933 1039.12 780.2C1040.79 777.433 1043.05 775.283 1045.92 773.75C1048.82 772.183 1052.07 771.4 1055.67 771.4C1058.7 771.4 1061.44 771.933 1063.87 773C1066.34 774.067 1068.4 775.6 1070.07 777.6L1064.87 782.4C1062.5 779.667 1059.57 778.3 1056.07 778.3C1053.9 778.3 1051.97 778.783 1050.27 779.75C1048.57 780.683 1047.24 782 1046.27 783.7C1045.34 785.4 1044.87 787.333 1044.87 789.5C1044.87 791.667 1045.34 793.6 1046.27 795.3C1047.24 797 1048.57 798.333 1050.27 799.3C1051.97 800.233 1053.9 800.7 1056.07 800.7C1059.57 800.7 1062.5 799.317 1064.87 796.55L1070.07 801.35C1068.4 803.383 1066.34 804.933 1063.87 806C1061.4 807.067 1058.65 807.6 1055.62 807.6ZM1029.77 849.1C1027.97 849.1 1026.36 848.75 1024.92 848.05C1023.49 847.35 1022.36 846.367 1021.52 845.1C1020.72 843.833 1020.32 842.417 1020.32 840.85C1020.32 839.283 1020.72 837.867 1021.52 836.6C1022.36 835.333 1023.49 834.35 1024.92 833.65C1026.36 832.95 1027.97 832.6 1029.77 832.6C1031.57 832.6 1033.19 832.95 1034.62 833.65C1036.06 834.35 1037.17 835.333 1037.97 836.6C1038.81 837.867 1039.22 839.283 1039.22 840.85C1039.22 842.417 1038.81 843.833 1037.97 845.1C1037.17 846.367 1036.06 847.35 1034.62 848.05C1033.19 848.75 1031.57 849.1 1029.77 849.1ZM1008.67 833H1016.67V868H1010.02L992.574 846.75V868H984.574V833H991.274L1008.67 854.25V833ZM1029.77 836.75C1028.54 836.75 1027.52 837.117 1026.72 837.85C1025.96 838.583 1025.57 839.583 1025.57 840.85C1025.57 842.083 1025.96 843.083 1026.72 843.85C1027.52 844.583 1028.54 844.95 1029.77 844.95C1031.01 844.95 1032.01 844.583 1032.77 843.85C1033.54 843.083 1033.92 842.083 1033.92 840.85C1033.92 839.583 1033.54 838.583 1032.77 837.85C1032.01 837.117 1031.01 836.75 1029.77 836.75ZM1021.32 852.4H1038.22V857.15H1021.32V852.4ZM1055.21 846.15C1060.15 846.15 1063.78 847.133 1066.11 849.1C1068.48 851.067 1069.66 853.7 1069.66 857C1069.66 859.133 1069.13 861.083 1068.06 862.85C1067 864.583 1065.36 865.983 1063.16 867.05C1061 868.083 1058.31 868.6 1055.11 868.6C1052.65 868.6 1050.21 868.283 1047.81 867.65C1045.45 866.983 1043.43 866.05 1041.76 864.85L1044.96 858.65C1046.3 859.65 1047.83 860.433 1049.56 861C1051.3 861.533 1053.08 861.8 1054.91 861.8C1056.95 861.8 1058.55 861.4 1059.71 860.6C1060.88 859.8 1061.46 858.683 1061.46 857.25C1061.46 855.75 1060.85 854.617 1059.61 853.85C1058.41 853.083 1056.31 852.7 1053.31 852.7H1044.36L1046.16 833H1067.51V839.5H1052.91L1052.36 846.15H1055.21Z" fill="#7A9B65"/>
<rect width="130" height="100" transform="translate(742 300)" fill="#8F65C5"/>
<path d="M766.018 333.54H762.658V342H757.828V321H762.658V329.49H766.138L771.658 321H776.788L769.918 331.14L776.998 342H771.478L766.018 333.54ZM789.207 342.36C787.027 342.36 785.057 341.89 783.297 340.95C781.557 340.01 780.187 338.72 779.187 337.08C778.207 335.42 777.717 333.56 777.717 331.5C777.717 329.44 778.207 327.59 779.187 325.95C780.187 324.29 781.557 322.99 783.297 322.05C785.057 321.11 787.027 320.64 789.207 320.64C791.387 320.64 793.347 321.11 795.087 322.05C796.827 322.99 798.197 324.29 799.197 325.95C800.197 327.59 800.697 329.44 800.697 331.5C800.697 333.56 800.197 335.42 799.197 337.08C798.197 338.72 796.827 340.01 795.087 340.95C793.347 341.89 791.387 342.36 789.207 342.36ZM789.207 338.22C790.447 338.22 791.567 337.94 792.567 337.38C793.567 336.8 794.347 336 794.907 334.98C795.487 333.96 795.777 332.8 795.777 331.5C795.777 330.2 795.487 329.04 794.907 328.02C794.347 327 793.567 326.21 792.567 325.65C791.567 325.07 790.447 324.78 789.207 324.78C787.967 324.78 786.847 325.07 785.847 325.65C784.847 326.21 784.057 327 783.477 328.02C782.917 329.04 782.637 330.2 782.637 331.5C782.637 332.8 782.917 333.96 783.477 334.98C784.057 336 784.847 336.8 785.847 337.38C786.847 337.94 787.967 338.22 789.207 338.22ZM823.701 321V342H818.841V333.39H809.301V342H804.441V321H809.301V329.28H818.841V321H823.701ZM850.983 338.04V346.44H846.513V342H828.963V321H833.793V338.04H843.153V321H847.983V338.04H850.983ZM855.8 342.24C854.98 342.24 854.29 341.96 853.73 341.4C853.17 340.84 852.89 340.14 852.89 339.3C852.89 338.44 853.17 337.75 853.73 337.23C854.29 336.69 854.98 336.42 855.8 336.42C856.62 336.42 857.31 336.69 857.87 337.23C858.43 337.75 858.71 338.44 858.71 339.3C858.71 340.14 858.43 340.84 857.87 341.4C857.31 341.96 856.62 342.24 855.8 342.24ZM788.154 368.05C789.374 368.47 790.324 369.13 791.004 370.03C791.704 370.91 792.054 371.94 792.054 373.12C792.054 374.4 791.634 375.51 790.794 376.45C789.954 377.39 788.814 378.11 787.374 378.61C785.954 379.11 784.394 379.36 782.694 379.36C781.254 379.36 779.814 379.18 778.374 378.82C776.954 378.46 775.604 377.91 774.324 377.17L775.824 373.69C776.744 374.25 777.754 374.68 778.854 374.98C779.974 375.26 781.064 375.4 782.124 375.4C783.564 375.4 784.754 375.14 785.694 374.62C786.654 374.1 787.134 373.37 787.134 372.43C787.134 371.65 786.804 371.06 786.144 370.66C785.504 370.26 784.624 370.06 783.504 370.06H778.374V366.4H783.144C784.124 366.4 784.884 366.2 785.424 365.8C785.984 365.4 786.264 364.85 786.264 364.15C786.264 363.33 785.864 362.69 785.064 362.23C784.284 361.77 783.274 361.54 782.034 361.54C781.114 361.54 780.164 361.67 779.184 361.93C778.204 362.17 777.274 362.54 776.394 363.04L774.924 359.26C777.144 358.12 779.544 357.55 782.124 357.55C783.764 357.55 785.274 357.79 786.654 358.27C788.034 358.75 789.134 359.45 789.954 360.37C790.774 361.29 791.184 362.36 791.184 363.58C791.184 364.58 790.914 365.47 790.374 366.25C789.834 367.03 789.094 367.63 788.154 368.05ZM810.121 374.5H800.371L798.511 379H793.531L802.891 358H807.691L817.081 379H811.981L810.121 374.5ZM808.591 370.81L805.261 362.77L801.931 370.81H808.591ZM838.762 358V379H833.962V361.96H826.762L826.612 366.34C826.512 369.32 826.272 371.74 825.892 373.6C825.512 375.44 824.872 376.86 823.972 377.86C823.092 378.84 821.852 379.33 820.252 379.33C819.592 379.33 818.792 379.22 817.852 379L818.152 374.89C818.412 374.97 818.702 375.01 819.022 375.01C820.182 375.01 820.992 374.33 821.452 372.97C821.912 371.59 822.202 369.44 822.322 366.52L822.622 358H838.762Z" fill="white"/>
<rect width="96" height="85" transform="translate(759 215)" fill="#8F65C5"/>
<rect width="445" height="90" transform="translate(626 125)" fill="#8F65C5"/>
<rect width="185" height="140" transform="translate(441 125)" fill="#8F65C5"/>
<rect width="100" height="30" transform="translate(441 95)" fill="#8F65C5"/>
<rect width="100" height="175" transform="translate(971 245)" fill="#8F65C5"/>
<rect width="65" height="30" transform="translate(1006 215)" fill="#8F65C5"/>
<path d="M660.092 173.9H654.492V188H646.442V153H654.492V167.15H660.292L669.492 153H678.042L666.592 169.9L678.392 188H669.192L660.092 173.9ZM698.74 188.6C695.107 188.6 691.824 187.817 688.89 186.25C685.99 184.683 683.707 182.533 682.04 179.8C680.407 177.033 679.59 173.933 679.59 170.5C679.59 167.067 680.407 163.983 682.04 161.25C683.707 158.483 685.99 156.317 688.89 154.75C691.824 153.183 695.107 152.4 698.74 152.4C702.374 152.4 705.64 153.183 708.54 154.75C711.44 156.317 713.724 158.483 715.39 161.25C717.057 163.983 717.89 167.067 717.89 170.5C717.89 173.933 717.057 177.033 715.39 179.8C713.724 182.533 711.44 184.683 708.54 186.25C705.64 187.817 702.374 188.6 698.74 188.6ZM698.74 181.7C700.807 181.7 702.674 181.233 704.34 180.3C706.007 179.333 707.307 178 708.24 176.3C709.207 174.6 709.69 172.667 709.69 170.5C709.69 168.333 709.207 166.4 708.24 164.7C707.307 163 706.007 161.683 704.34 160.75C702.674 159.783 700.807 159.3 698.74 159.3C696.674 159.3 694.807 159.783 693.14 160.75C691.474 161.683 690.157 163 689.19 164.7C688.257 166.4 687.79 168.333 687.79 170.5C687.79 172.667 688.257 174.6 689.19 176.3C690.157 178 691.474 179.333 693.14 180.3C694.807 181.233 696.674 181.7 698.74 181.7ZM739.28 153C742.38 153 745.064 153.517 747.33 154.55C749.63 155.583 751.397 157.05 752.63 158.95C753.864 160.85 754.48 163.1 754.48 165.7C754.48 168.267 753.864 170.517 752.63 172.45C751.397 174.35 749.63 175.817 747.33 176.85C745.064 177.85 742.38 178.35 739.28 178.35H732.23V188H724.13V153H739.28ZM738.83 171.75C741.264 171.75 743.114 171.233 744.38 170.2C745.647 169.133 746.28 167.633 746.28 165.7C746.28 163.733 745.647 162.233 744.38 161.2C743.114 160.133 741.264 159.6 738.83 159.6H732.23V171.75H738.83ZM791.724 153V188H783.674V159.6H767.874V188H759.824V153H791.724ZM832 153L817.1 180.7C815.666 183.367 813.933 185.383 811.9 186.75C809.9 188.117 807.716 188.8 805.35 188.8C803.516 188.8 801.616 188.4 799.65 187.6L801.6 181.45C803 181.883 804.166 182.1 805.1 182.1C806.1 182.1 807 181.867 807.8 181.4C808.6 180.9 809.333 180.133 810 179.1L810.3 178.7L796.5 153H805.15L814.45 171.8L824.05 153H832ZM851.96 188.6C848.393 188.6 845.16 187.833 842.26 186.3C839.393 184.733 837.126 182.583 835.46 179.85C833.826 177.083 833.01 173.967 833.01 170.5C833.01 167.033 833.826 163.933 835.46 161.2C837.126 158.433 839.393 156.283 842.26 154.75C845.16 153.183 848.41 152.4 852.01 152.4C855.043 152.4 857.776 152.933 860.21 154C862.676 155.067 864.743 156.6 866.41 158.6L861.21 163.4C858.843 160.667 855.91 159.3 852.41 159.3C850.243 159.3 848.31 159.783 846.61 160.75C844.91 161.683 843.576 163 842.61 164.7C841.676 166.4 841.21 168.333 841.21 170.5C841.21 172.667 841.676 174.6 842.61 176.3C843.576 178 844.91 179.333 846.61 180.3C848.31 181.233 850.243 181.7 852.41 181.7C855.91 181.7 858.843 180.317 861.21 177.55L866.41 182.35C864.743 184.383 862.676 185.933 860.21 187C857.743 188.067 854.993 188.6 851.96 188.6ZM930.849 169.1C929.049 169.1 927.432 168.75 925.999 168.05C924.566 167.35 923.432 166.367 922.599 165.1C921.799 163.833 921.399 162.417 921.399 160.85C921.399 159.283 921.799 157.867 922.599 156.6C923.432 155.333 924.566 154.35 925.999 153.65C927.432 152.95 929.049 152.6 930.849 152.6C932.649 152.6 934.266 152.95 935.699 153.65C937.132 154.35 938.249 155.333 939.049 156.6C939.882 157.867 940.299 159.283 940.299 160.85C940.299 162.417 939.882 163.833 939.049 165.1C938.249 166.367 937.132 167.35 935.699 168.05C934.266 168.75 932.649 169.1 930.849 169.1ZM909.749 153H917.749V188H911.099L893.649 166.75V188H885.649V153H892.349L909.749 174.25V153ZM930.849 156.75C929.616 156.75 928.599 157.117 927.799 157.85C927.032 158.583 926.649 159.583 926.649 160.85C926.649 162.083 927.032 163.083 927.799 163.85C928.599 164.583 929.616 164.95 930.849 164.95C932.082 164.95 933.082 164.583 933.849 163.85C934.616 163.083 934.999 162.083 934.999 160.85C934.999 159.583 934.616 158.583 933.849 157.85C933.082 157.117 932.082 156.75 930.849 156.75ZM922.399 172.4H939.299V177.15H922.399V172.4ZM971.415 181.4V188H944.965V182.75L958.465 170C959.899 168.633 960.865 167.467 961.365 166.5C961.865 165.5 962.115 164.517 962.115 163.55C962.115 162.15 961.632 161.083 960.665 160.35C959.732 159.583 958.349 159.2 956.515 159.2C954.982 159.2 953.599 159.5 952.365 160.1C951.132 160.667 950.099 161.533 949.265 162.7L943.365 158.9C944.732 156.867 946.615 155.283 949.015 154.15C951.415 152.983 954.165 152.4 957.265 152.4C959.865 152.4 962.132 152.833 964.065 153.7C966.032 154.533 967.549 155.733 968.615 157.3C969.715 158.833 970.265 160.65 970.265 162.75C970.265 164.65 969.865 166.433 969.065 168.1C968.265 169.767 966.715 171.667 964.415 173.8L956.365 181.4H971.415Z" fill="white"/>
<rect width="177" height="90" transform="translate(1071 125)" fill="#C78910"/>
<rect width="100" height="70" transform="translate(1148 55)" fill="#C78910"/>
<path d="M1095.75 263.9H1090.15V278H1082.1V243H1090.15V257.15H1095.95L1105.15 243H1113.7L1102.25 259.9L1114.05 278H1104.85L1095.75 263.9ZM1134.4 278.6C1130.77 278.6 1127.48 277.817 1124.55 276.25C1121.65 274.683 1119.37 272.533 1117.7 269.8C1116.07 267.033 1115.25 263.933 1115.25 260.5C1115.25 257.067 1116.07 253.983 1117.7 251.25C1119.37 248.483 1121.65 246.317 1124.55 244.75C1127.48 243.183 1130.77 242.4 1134.4 242.4C1138.03 242.4 1141.3 243.183 1144.2 244.75C1147.1 246.317 1149.38 248.483 1151.05 251.25C1152.72 253.983 1153.55 257.067 1153.55 260.5C1153.55 263.933 1152.72 267.033 1151.05 269.8C1149.38 272.533 1147.1 274.683 1144.2 276.25C1141.3 277.817 1138.03 278.6 1134.4 278.6ZM1134.4 271.7C1136.47 271.7 1138.33 271.233 1140 270.3C1141.67 269.333 1142.97 268 1143.9 266.3C1144.87 264.6 1145.35 262.667 1145.35 260.5C1145.35 258.333 1144.87 256.4 1143.9 254.7C1142.97 253 1141.67 251.683 1140 250.75C1138.33 249.783 1136.47 249.3 1134.4 249.3C1132.33 249.3 1130.47 249.783 1128.8 250.75C1127.13 251.683 1125.82 253 1124.85 254.7C1123.92 256.4 1123.45 258.333 1123.45 260.5C1123.45 262.667 1123.92 264.6 1124.85 266.3C1125.82 268 1127.13 269.333 1128.8 270.3C1130.47 271.233 1132.33 271.7 1134.4 271.7ZM1174.94 243C1178.04 243 1180.72 243.517 1182.99 244.55C1185.29 245.583 1187.06 247.05 1188.29 248.95C1189.52 250.85 1190.14 253.1 1190.14 255.7C1190.14 258.267 1189.52 260.517 1188.29 262.45C1187.06 264.35 1185.29 265.817 1182.99 266.85C1180.72 267.85 1178.04 268.35 1174.94 268.35H1167.89V278H1159.79V243H1174.94ZM1174.49 261.75C1176.92 261.75 1178.77 261.233 1180.04 260.2C1181.31 259.133 1181.94 257.633 1181.94 255.7C1181.94 253.733 1181.31 252.233 1180.04 251.2C1178.77 250.133 1176.92 249.6 1174.49 249.6H1167.89V261.75H1174.49ZM1227.38 243V278H1219.33V249.6H1203.53V278H1195.48V243H1227.38ZM1267.66 243L1252.76 270.7C1251.33 273.367 1249.59 275.383 1247.56 276.75C1245.56 278.117 1243.38 278.8 1241.01 278.8C1239.18 278.8 1237.28 278.4 1235.31 277.6L1237.26 271.45C1238.66 271.883 1239.83 272.1 1240.76 272.1C1241.76 272.1 1242.66 271.867 1243.46 271.4C1244.26 270.9 1244.99 270.133 1245.66 269.1L1245.96 268.7L1232.16 243H1240.81L1250.11 261.8L1259.71 243H1267.66ZM1287.62 278.6C1284.05 278.6 1280.82 277.833 1277.92 276.3C1275.05 274.733 1272.79 272.583 1271.12 269.85C1269.49 267.083 1268.67 263.967 1268.67 260.5C1268.67 257.033 1269.49 253.933 1271.12 251.2C1272.79 248.433 1275.05 246.283 1277.92 244.75C1280.82 243.183 1284.07 242.4 1287.67 242.4C1290.7 242.4 1293.44 242.933 1295.87 244C1298.34 245.067 1300.4 246.6 1302.07 248.6L1296.87 253.4C1294.5 250.667 1291.57 249.3 1288.07 249.3C1285.9 249.3 1283.97 249.783 1282.27 250.75C1280.57 251.683 1279.24 253 1278.27 254.7C1277.34 256.4 1276.87 258.333 1276.87 260.5C1276.87 262.667 1277.34 264.6 1278.27 266.3C1279.24 268 1280.57 269.333 1282.27 270.3C1283.97 271.233 1285.9 271.7 1288.07 271.7C1291.57 271.7 1294.5 270.317 1296.87 267.55L1302.07 272.35C1300.4 274.383 1298.34 275.933 1295.87 277C1293.4 278.067 1290.65 278.6 1287.62 278.6ZM1247.76 320.1C1245.96 320.1 1244.34 319.75 1242.91 319.05C1241.48 318.35 1240.34 317.367 1239.51 316.1C1238.71 314.833 1238.31 313.417 1238.31 311.85C1238.31 310.283 1238.71 308.867 1239.51 307.6C1240.34 306.333 1241.48 305.35 1242.91 304.65C1244.34 303.95 1245.96 303.6 1247.76 303.6C1249.56 303.6 1251.18 303.95 1252.61 304.65C1254.04 305.35 1255.16 306.333 1255.96 307.6C1256.79 308.867 1257.21 310.283 1257.21 311.85C1257.21 313.417 1256.79 314.833 1255.96 316.1C1255.16 317.367 1254.04 318.35 1252.61 319.05C1251.18 319.75 1249.56 320.1 1247.76 320.1ZM1226.66 304H1234.66V339H1228.01L1210.56 317.75V339H1202.56V304H1209.26L1226.66 325.25V304ZM1247.76 307.75C1246.53 307.75 1245.51 308.117 1244.71 308.85C1243.94 309.583 1243.56 310.583 1243.56 311.85C1243.56 313.083 1243.94 314.083 1244.71 314.85C1245.51 315.583 1246.53 315.95 1247.76 315.95C1248.99 315.95 1249.99 315.583 1250.76 314.85C1251.53 314.083 1251.91 313.083 1251.91 311.85C1251.91 310.583 1251.53 309.583 1250.76 308.85C1249.99 308.117 1248.99 307.75 1247.76 307.75ZM1239.31 323.4H1256.21V328.15H1239.31V323.4ZM1291.71 318.25C1294.78 318.75 1297.13 319.9 1298.76 321.7C1300.39 323.467 1301.21 325.667 1301.21 328.3C1301.21 330.333 1300.68 332.217 1299.61 333.95C1298.54 335.65 1296.91 337.017 1294.71 338.05C1292.54 339.083 1289.88 339.6 1286.71 339.6C1284.24 339.6 1281.81 339.283 1279.41 338.65C1277.04 337.983 1275.03 337.05 1273.36 335.85L1276.51 329.65C1277.84 330.65 1279.38 331.433 1281.11 332C1282.88 332.533 1284.68 332.8 1286.51 332.8C1288.54 332.8 1290.14 332.417 1291.31 331.65C1292.48 330.85 1293.06 329.733 1293.06 328.3C1293.06 325.433 1290.88 324 1286.51 324H1282.81V318.65L1290.01 310.5H1275.11V304H1299.61V309.25L1291.71 318.25Z" fill="#C78910"/>
<rect width="430" height="70" transform="translate(857 877)" fill="#731414"/>
<path d="M903.809 927.48C900.902 927.48 898.275 926.853 895.929 925.6C893.609 924.347 891.782 922.627 890.449 920.44C889.142 918.227 888.489 915.747 888.489 913C888.489 910.253 889.142 907.787 890.449 905.6C891.782 903.387 893.609 901.653 895.929 900.4C898.275 899.147 900.902 898.52 903.809 898.52C906.715 898.52 909.329 899.147 911.649 900.4C913.969 901.653 915.795 903.387 917.129 905.6C918.462 907.787 919.129 910.253 919.129 913C919.129 915.747 918.462 918.227 917.129 920.44C915.795 922.627 913.969 924.347 911.649 925.6C909.329 926.853 906.715 927.48 903.809 927.48ZM903.809 921.96C905.462 921.96 906.955 921.587 908.289 920.84C909.622 920.067 910.662 919 911.409 917.64C912.182 916.28 912.569 914.733 912.569 913C912.569 911.267 912.182 909.72 911.409 908.36C910.662 907 909.622 905.947 908.289 905.2C906.955 904.427 905.462 904.04 903.809 904.04C902.155 904.04 900.662 904.427 899.329 905.2C897.995 905.947 896.942 907 896.169 908.36C895.422 909.72 895.049 911.267 895.049 913C895.049 914.733 895.422 916.28 896.169 917.64C896.942 919 897.995 920.067 899.329 920.84C900.662 921.587 902.155 921.96 903.809 921.96ZM924.121 899H946.721V904.16H930.561V909.92H938.321C941.707 909.92 944.281 910.627 946.041 912.04C947.827 913.453 948.721 915.493 948.721 918.16C948.721 920.96 947.734 923.133 945.761 924.68C943.787 926.227 941.001 927 937.401 927H924.121V899ZM937.041 922.2C938.694 922.2 939.961 921.88 940.841 921.24C941.721 920.573 942.161 919.613 942.161 918.36C942.161 915.907 940.454 914.68 937.041 914.68H930.561V922.2H937.041ZM990.612 899V927H953.652V899H960.092V921.72H968.932V899H975.372V921.72H984.172V899H990.612ZM994.412 921.72V932.8H988.412V927H984.052V921.72H994.412ZM1020.53 921.8V927H998.847V899H1020.01V904.2H1005.29V910.28H1018.29V915.32H1005.29V921.8H1020.53ZM1050.89 915.72H1046.81V927H1040.45V915.72H1036.29L1030.01 927H1022.53L1030.93 912.36L1023.05 899H1029.89L1036.17 910.32H1040.45V899H1046.81V910.32H1050.97L1057.29 899H1064.13L1056.29 912.36L1064.65 927H1057.17L1050.89 915.72ZM1067.75 899H1074.19V917.24L1087.55 899H1093.63V927H1087.23V908.8L1073.87 927H1067.75V899ZM1122.01 904.28H1113.05V927H1106.65V904.28H1097.73V899H1122.01V904.28ZM1126.07 899H1132.51V917.24L1145.87 899H1151.95V927H1145.55V908.8L1132.19 927H1126.07V899ZM1180.61 921.8V927H1158.93V899H1180.09V904.2H1165.37V910.28H1178.37V915.32H1165.37V921.8H1180.61ZM1233.17 911.88C1231.73 911.88 1230.43 911.6 1229.29 911.04C1228.14 910.48 1227.23 909.693 1226.57 908.68C1225.93 907.667 1225.61 906.533 1225.61 905.28C1225.61 904.027 1225.93 902.893 1226.57 901.88C1227.23 900.867 1228.14 900.08 1229.29 899.52C1230.43 898.96 1231.73 898.68 1233.17 898.68C1234.61 898.68 1235.9 898.96 1237.05 899.52C1238.19 900.08 1239.09 900.867 1239.73 901.88C1240.39 902.893 1240.73 904.027 1240.73 905.28C1240.73 906.533 1240.39 907.667 1239.73 908.68C1239.09 909.693 1238.19 910.48 1237.05 911.04C1235.9 911.6 1234.61 911.88 1233.17 911.88ZM1216.29 899H1222.69V927H1217.37L1203.41 910V927H1197.01V899H1202.37L1216.29 916V899ZM1233.17 902C1232.18 902 1231.37 902.293 1230.73 902.88C1230.11 903.467 1229.81 904.267 1229.81 905.28C1229.81 906.267 1230.11 907.067 1230.73 907.68C1231.37 908.267 1232.18 908.56 1233.17 908.56C1234.15 908.56 1234.95 908.267 1235.57 907.68C1236.18 907.067 1236.49 906.267 1236.49 905.28C1236.49 904.267 1236.18 903.467 1235.57 902.88C1234.95 902.293 1234.15 902 1233.17 902ZM1226.41 914.52H1239.93V918.32H1226.41V914.52ZM1255.7 899V927H1249.22V904.2H1243.62V899H1255.7Z" fill="white"/>
<rect width="315" height="70" transform="translate(542 840)" fill="#731414"/>
<rect width="230" height="70" transform="translate(312 877)" fill="#731414"/>
<path d="M568.145 890.48C565.238 890.48 562.611 889.853 560.265 888.6C557.945 887.347 556.118 885.627 554.785 883.44C553.478 881.227 552.825 878.747 552.825 876C552.825 873.253 553.478 870.787 554.785 868.6C556.118 866.387 557.945 864.653 560.265 863.4C562.611 862.147 565.238 861.52 568.145 861.52C571.051 861.52 573.665 862.147 575.985 863.4C578.305 864.653 580.131 866.387 581.465 868.6C582.798 870.787 583.465 873.253 583.465 876C583.465 878.747 582.798 881.227 581.465 883.44C580.131 885.627 578.305 887.347 575.985 888.6C573.665 889.853 571.051 890.48 568.145 890.48ZM568.145 884.96C569.798 884.96 571.291 884.587 572.625 883.84C573.958 883.067 574.998 882 575.745 880.64C576.518 879.28 576.905 877.733 576.905 876C576.905 874.267 576.518 872.72 575.745 871.36C574.998 870 573.958 868.947 572.625 868.2C571.291 867.427 569.798 867.04 568.145 867.04C566.491 867.04 564.998 867.427 563.665 868.2C562.331 868.947 561.278 870 560.505 871.36C559.758 872.72 559.385 874.267 559.385 876C559.385 877.733 559.758 879.28 560.505 880.64C561.278 882 562.331 883.067 563.665 883.84C564.998 884.587 566.491 884.96 568.145 884.96ZM588.457 862H611.057V867.16H594.897V872.92H602.657C606.043 872.92 608.617 873.627 610.377 875.04C612.163 876.453 613.057 878.493 613.057 881.16C613.057 883.96 612.07 886.133 610.097 887.68C608.123 889.227 605.337 890 601.737 890H588.457V862ZM601.377 885.2C603.03 885.2 604.297 884.88 605.177 884.24C606.057 883.573 606.497 882.613 606.497 881.36C606.497 878.907 604.79 877.68 601.377 877.68H594.897V885.2H601.377ZM654.948 862V890H617.988V862H624.428V884.72H633.268V862H639.708V884.72H648.508V862H654.948ZM658.748 884.72V895.8H652.748V890H648.388V884.72H658.748ZM684.863 884.8V890H663.183V862H684.343V867.2H669.623V873.28H682.623V878.32H669.623V884.8H684.863ZM715.224 878.72H711.144V890H704.784V878.72H700.624L694.344 890H686.864L695.264 875.36L687.384 862H694.224L700.504 873.32H704.784V862H711.144V873.32H715.304L721.624 862H728.464L720.624 875.36L728.984 890H721.504L715.224 878.72ZM732.089 862H738.529V880.24L751.889 862H757.969V890H751.569V871.8L738.209 890H732.089V862ZM786.341 867.28H777.381V890H770.981V867.28H762.061V862H786.341V867.28ZM790.41 862H796.85V880.24L810.21 862H816.29V890H809.89V871.8L796.53 890H790.41V862ZM844.941 884.8V890H823.261V862H844.421V867.2H829.701V873.28H842.701V878.32H829.701V884.8H844.941Z" fill="white"/>
<path d="M486.957 911.88C485.517 911.88 484.223 911.6 483.077 911.04C481.93 910.48 481.023 909.693 480.357 908.68C479.717 907.667 479.397 906.533 479.397 905.28C479.397 904.027 479.717 902.893 480.357 901.88C481.023 900.867 481.93 900.08 483.077 899.52C484.223 898.96 485.517 898.68 486.957 898.68C488.397 898.68 489.69 898.96 490.837 899.52C491.983 900.08 492.877 900.867 493.517 901.88C494.183 902.893 494.517 904.027 494.517 905.28C494.517 906.533 494.183 907.667 493.517 908.68C492.877 909.693 491.983 910.48 490.837 911.04C489.69 911.6 488.397 911.88 486.957 911.88ZM470.077 899H476.477V927H471.157L457.197 910V927H450.797V899H456.157L470.077 916V899ZM486.957 902C485.97 902 485.157 902.293 484.517 902.88C483.903 903.467 483.597 904.267 483.597 905.28C483.597 906.267 483.903 907.067 484.517 907.68C485.157 908.267 485.97 908.56 486.957 908.56C487.943 908.56 488.743 908.267 489.357 907.68C489.97 907.067 490.277 906.267 490.277 905.28C490.277 904.267 489.97 903.467 489.357 902.88C488.743 902.293 487.943 902 486.957 902ZM480.197 914.52H493.717V918.32H480.197V914.52ZM519.41 921.72V927H498.25V922.8L509.05 912.6C510.196 911.507 510.97 910.573 511.37 909.8C511.77 909 511.97 908.213 511.97 907.44C511.97 906.32 511.583 905.467 510.81 904.88C510.063 904.267 508.956 903.96 507.49 903.96C506.263 903.96 505.156 904.2 504.17 904.68C503.183 905.133 502.356 905.827 501.69 906.76L496.97 903.72C498.063 902.093 499.57 900.827 501.49 899.92C503.41 898.987 505.61 898.52 508.09 898.52C510.17 898.52 511.983 898.867 513.53 899.56C515.103 900.227 516.316 901.187 517.17 902.44C518.05 903.667 518.49 905.12 518.49 906.8C518.49 908.32 518.17 909.747 517.53 911.08C516.89 912.413 515.65 913.933 513.81 915.64L507.37 921.72H519.41Z" fill="white"/>
<rect width="400" height="70" transform="translate(1268 55)" fill="#731414"/>
<rect width="70" height="230" transform="translate(1598 125)" fill="#731414"/>
<path d="M1314.45 104.48C1311.54 104.48 1308.92 103.853 1306.57 102.6C1304.25 101.347 1302.42 99.6267 1301.09 97.44C1299.78 95.2267 1299.13 92.7467 1299.13 90C1299.13 87.2533 1299.78 84.7867 1301.09 82.6C1302.42 80.3867 1304.25 78.6533 1306.57 77.4C1308.92 76.1467 1311.54 75.52 1314.45 75.52C1317.36 75.52 1319.97 76.1467 1322.29 77.4C1324.61 78.6533 1326.44 80.3867 1327.77 82.6C1329.1 84.7867 1329.77 87.2533 1329.77 90C1329.77 92.7467 1329.1 95.2267 1327.77 97.44C1326.44 99.6267 1324.61 101.347 1322.29 102.6C1319.97 103.853 1317.36 104.48 1314.45 104.48ZM1314.45 98.96C1316.1 98.96 1317.6 98.5867 1318.93 97.84C1320.26 97.0667 1321.3 96 1322.05 94.64C1322.82 93.28 1323.21 91.7333 1323.21 90C1323.21 88.2667 1322.82 86.72 1322.05 85.36C1321.3 84 1320.26 82.9467 1318.93 82.2C1317.6 81.4267 1316.1 81.04 1314.45 81.04C1312.8 81.04 1311.3 81.4267 1309.97 82.2C1308.64 82.9467 1307.58 84 1306.81 85.36C1306.06 86.72 1305.69 88.2667 1305.69 90C1305.69 91.7333 1306.06 93.28 1306.81 94.64C1307.58 96 1308.64 97.0667 1309.97 97.84C1311.3 98.5867 1312.8 98.96 1314.45 98.96ZM1334.76 76H1357.36V81.16H1341.2V86.92H1348.96C1352.35 86.92 1354.92 87.6267 1356.68 89.04C1358.47 90.4533 1359.36 92.4933 1359.36 95.16C1359.36 97.96 1358.37 100.133 1356.4 101.68C1354.43 103.227 1351.64 104 1348.04 104H1334.76V76ZM1347.68 99.2C1349.33 99.2 1350.6 98.88 1351.48 98.24C1352.36 97.5733 1352.8 96.6133 1352.8 95.36C1352.8 92.9067 1351.09 91.68 1347.68 91.68H1341.2V99.2H1347.68ZM1401.25 76V104H1364.29V76H1370.73V98.72H1379.57V76H1386.01V98.72H1394.81V76H1401.25ZM1405.05 98.72V109.8H1399.05V104H1394.69V98.72H1405.05ZM1431.17 98.8V104H1409.49V76H1430.65V81.2H1415.93V87.28H1428.93V92.32H1415.93V98.8H1431.17ZM1461.53 92.72H1457.45V104H1451.09V92.72H1446.93L1440.65 104H1433.17L1441.57 89.36L1433.69 76H1440.53L1446.81 87.32H1451.09V76H1457.45V87.32H1461.61L1467.93 76H1474.77L1466.93 89.36L1475.29 104H1467.81L1461.53 92.72ZM1478.39 76H1484.83V94.24L1498.19 76H1504.27V104H1497.87V85.8L1484.51 104H1478.39V76ZM1532.65 81.28H1523.69V104H1517.29V81.28H1508.37V76H1532.65V81.28ZM1536.71 76H1543.15V94.24L1556.51 76H1562.59V104H1556.19V85.8L1542.83 104H1536.71V76ZM1591.25 98.8V104H1569.57V76H1590.73V81.2H1576.01V87.28H1589.01V92.32H1576.01V98.8H1591.25Z" fill="white"/>
<path d="M1634.12 112.175C1634.12 110.735 1634.4 109.442 1634.96 108.295C1635.52 107.149 1636.31 106.242 1637.32 105.575C1638.33 104.935 1639.47 104.615 1640.72 104.615C1641.97 104.615 1643.11 104.935 1644.12 105.575C1645.13 106.242 1645.92 107.149 1646.48 108.295C1647.04 109.442 1647.32 110.735 1647.32 112.175C1647.32 113.615 1647.04 114.909 1646.48 116.055C1645.92 117.202 1645.13 118.095 1644.12 118.735C1643.11 119.402 1641.97 119.735 1640.72 119.735C1639.47 119.735 1638.33 119.402 1637.32 118.735C1636.31 118.095 1635.52 117.202 1634.96 116.055C1634.4 114.909 1634.12 113.615 1634.12 112.175ZM1647 95.2953V101.695H1619V96.3753L1636 82.4153L1619 82.4153V76.0153L1647 76.0153V81.3753L1630 95.2953H1647ZM1644 112.175C1644 111.189 1643.71 110.375 1643.12 109.735C1642.53 109.122 1641.73 108.815 1640.72 108.815C1639.73 108.815 1638.93 109.122 1638.32 109.735C1637.73 110.375 1637.44 111.189 1637.44 112.175C1637.44 113.162 1637.73 113.962 1638.32 114.575C1638.93 115.189 1639.73 115.495 1640.72 115.495C1641.73 115.495 1642.53 115.189 1643.12 114.575C1643.71 113.962 1644 113.162 1644 112.175ZM1631.48 105.415V118.935H1627.68V105.415H1631.48ZM1635.6 135.968C1635.2 138.421 1634.28 140.301 1632.84 141.608C1631.43 142.915 1629.67 143.568 1627.56 143.568C1625.93 143.568 1624.43 143.141 1623.04 142.288C1621.68 141.435 1620.59 140.128 1619.76 138.368C1618.93 136.635 1618.52 134.501 1618.52 131.968C1618.52 129.995 1618.77 128.048 1619.28 126.128C1619.81 124.235 1620.56 122.621 1621.52 121.288L1626.48 123.808C1625.68 124.875 1625.05 126.101 1624.6 127.488C1624.17 128.901 1623.96 130.341 1623.96 131.808C1623.96 133.435 1624.27 134.715 1624.88 135.648C1625.52 136.581 1626.41 137.048 1627.56 137.048C1629.85 137.048 1631 135.301 1631 131.808V128.848H1635.28L1641.8 134.608V122.688H1647V142.288H1642.8L1635.6 135.968Z" fill="white"/>
<path d="M631.82 743L615.089 747.483L627.337 759.73L631.82 743ZM601.061 775.88L623.335 753.607L621.213 751.485L598.939 773.759L601.061 775.88Z" fill="#7F2C8C"/>
<path d="M45 840L30 831.34V848.66L45 840ZM0 841.5H31.5V838.5H0L0 841.5Z" fill="#B93030"/>
<path d="M1072 957L1063.34 972H1080.66L1072 957ZM1073.5 1002V970.5H1070.5V1002H1073.5Z" fill="#731414"/>
<path d="M535 957L526.34 972H543.66L535 957ZM536.5 1002V970.5H533.5V1002H536.5Z" fill="#731414"/>
<path d="M1557.5 154L1540.77 158.483L1553.02 170.73L1557.5 154ZM1526.74 186.88L1549.01 164.607L1546.89 162.485L1524.62 184.759L1526.74 186.88Z" fill="#731414"/>
<path d="M1055 606L1070 614.66V597.34L1055 606ZM1100 604.5H1068.5V607.5H1100V604.5Z" fill="#7A9B65"/>
<path d="M1198 45L1206.66 30H1189.34L1198 45ZM1196.5 0V31.5H1199.5V0L1196.5 0Z" fill="#C78910"/>
<path d="M807 115L815.66 100H798.34L807 115ZM805.5 70V101.5H808.5V70H805.5Z" fill="#8F65C5"/>
</svg>
